<svg xmlns="http://www.w3.org/2000/svg" xmlns:xlink="http://www.w3.org/1999/xlink" viewBox="0 0 1512.644 920.229" xmlns:v="https://vecta.io/nano"><style><![CDATA[.D{isolation:isolate}.G{stroke-linejoin:round}.H{stroke:#4472c4}.I{stroke-width:3.438}.J{stroke-linecap:round}]]></style><g fill="none" class="G"><g stroke="#000" class="I"><path d="M130.95 807.98v-792m0 792h12m-12-131.95h12m-12-132.01h12m-12-132h12m-12-132h12m-12-132.009h12m-12-132.031h12"/><path d="M130.95 807.98h1352m-1352-12v12m225.06-12v12m225.01-12v12m226-12v12m225.01-12v12m225.01-12v12m225.91-12v12"/></g><path d="M175.45 123.48c15.02 73.52 30.05 166.17 45.07 220.56s30.05 77.8 45.07 105.78c15.03 27.99 30.05 44.96 45.07 62.12 15.03 17.16 30.05 29.23 45.08 40.85 15.02 11.63 30.04 20.49 45.07 28.88a445.7 445.7 0 0 0 45.07 21.45c15.02 6.32 30.05 11.58 45.07 16.5 15.02 4.93 30.05 9.12 45.07 13.04 15.03 3.92 30.05 7.31 45.07 10.48 15.03 3.18 30.05 5.96 45.07 8.55 15.03 2.6 30.05 4.89 45.08 7.02l45.07 5.79q22.53 2.64 45.07 4.76 22.53 2.16 45.07 3.88 22.53 1.755 45.07 3.12 22.53 1.38 45.07 2.43 22.545 1.05 45.07 1.8 22.545.75 45.08 1.21 22.53.45 45.07.63 22.53.18 45.07.08 22.53-.105 45.07-.49 22.53-.39 45.07-1.07 22.53-.69 45.07-1.68 22.545-1.02 45.07-2.35 22.545-1.365 45.08-3.08 22.53-1.74 45.07-3.9 22.53-2.175 45.07-4.84l45.07-5.95" stroke-width="5.729" class="H J"/></g><g fill="#4472c4" class="I G H"><use xlink:href="#B"/><use xlink:href="#B" x="45" y="220.997"/><use xlink:href="#B" x="90" y="326.997"/><use xlink:href="#B" x="135" y="388.997"/><use xlink:href="#B" x="180" y="428.997"/><use xlink:href="#B" x="225" y="457.997"/><use xlink:href="#B" x="270" y="479.997"/><use xlink:href="#B" x="315" y="495.997"/><use xlink:href="#B" x="360" y="508.997"/><use xlink:href="#B" x="405" y="519.997"/><use xlink:href="#B" x="450" y="527.997"/><use xlink:href="#B" x="496" y="534.997"/><use xlink:href="#B" x="541" y="540.997"/><use xlink:href="#B" x="586" y="545.997"/><use xlink:href="#B" x="631" y="549.997"/><use xlink:href="#B" x="676" y="552.997"/><use xlink:href="#B" x="721" y="554.997"/><use xlink:href="#B" x="766" y="556.997"/><use xlink:href="#B" x="811" y="557.997"/><use xlink:href="#B" x="856" y="558.997"/><use xlink:href="#B" x="901" y="558.997"/><use xlink:href="#B" x="946" y="558.997"/><use xlink:href="#B" x="991" y="557.997"/><use xlink:href="#B" x="1036" y="555.997"/><use xlink:href="#B" x="1082" y="552.997"/><use xlink:href="#B" x="1127" y="549.997"/><use xlink:href="#B" x="1172" y="545.997"/><use xlink:href="#B" x="1217" y="541.997"/><use xlink:href="#B" x="1262" y="535.997"/></g><use xlink:href="#C" class="D"/><g class="D"><path d="M74.504 686.404v3.075H56.423v-2.46l7.052-7.462c4.511-4.879 6.314-8.241 6.314-11.686 0-3.689-2.132-6.19-5.658-6.19a9.72 9.72 0 0 0-2.706.368l-1.025 3.157c-.491 1.764-1.106 2.542-2.173 2.542-.845-.011-1.61-.505-1.968-1.271.697-4.306 4.51-6.479 8.774-6.479 5.535 0 8.118 3.075 8.118 7.585 0 3.772-1.969 6.725-8.528 13.284-1.148 1.23-3.239 3.321-5.494 5.535z"/><use xlink:href="#D"/><path d="M75.694 548.459h-4.839v9.021h-3.074v-9.021H55.439v-1.886l13.284-18.327h2.132v17.917h4.839zm-7.913-2.296v-14.062l-10.128 14.063z"/><use xlink:href="#D" y="-132"/><path d="M73.356 397.107c-8.65 1.968-12.997 6.724-13.734 13.817a9.37 9.37 0 0 1 6.806-3.075c4.797 0 8.077 3.361 8.077 8.732 0 5.986-3.772 9.472-8.938 9.472-5.821 0-9.389-4.633-9.389-12.383 0-8.773 6.068-16.358 16.975-17.671zM59.499 413.18c0 7.339 2.296 11.233 6.149 11.233 3.28 0 5.535-2.542 5.535-7.421 0-4.797-2.214-6.97-5.535-6.97-2.298-.047-4.517.841-6.149 2.46z"/><use xlink:href="#D" y="-264"/><path d="M74.299 286.592c0 4.428-3.812 7.462-8.979 7.462-5.412 0-9.021-2.542-9.021-7.135 0-3.402 2.255-5.616 6.56-7.749-3.936-2.091-5.575-4.756-5.575-7.831 0-4.551 3.607-7.339 8.118-7.339 4.592 0 7.503 2.829 7.503 6.889 0 2.255-1.312 4.879-5.453 7.216 4.756 2.255 6.847 4.633 6.847 8.487zm-3.116.287c0-2.706-1.681-4.593-6.97-7.053-3.239 1.927-4.838 3.69-4.838 6.766 0 3.484 2.378 5.862 6.027 5.862 1.527.104 3.026-.443 4.127-1.505s1.702-2.541 1.653-4.07zm-5.084-9.39c2.911-2.009 4.06-3.854 4.06-6.519 0-2.911-1.723-5.289-4.838-5.289-1.326-.071-2.623.407-3.585 1.323s-1.505 2.187-1.5 3.515c0 2.501 1.231 4.797 5.863 6.97z"/><use xlink:href="#D" y="-396"/><path d="M53.218 160.167v1.313H37.023v-1.312l6.478-.778.082-7.298V135.28l-6.15.697v-1.477l8.856-2.296.615.492-.164 6.355v13.038l.082 7.298z"/><use xlink:href="#C" x="-19.151" y="-660"/><path d="M97.989 147.088c0 10.947-4.428 14.966-9.061 14.966-4.674 0-9.143-4.019-9.143-14.966 0-10.987 4.469-15.088 9.143-15.088 4.633 0 9.061 4.101 9.061 15.088zm-9.061 13.325c2.87 0 5.658-2.951 5.658-13.325 0-10.496-2.788-13.406-5.658-13.406-2.952 0-5.699 2.87-5.699 13.406 0 10.415 2.747 13.325 5.699 13.325z"/><path d="M53.218 28.167v1.313H37.023v-1.312l6.478-.778.082-7.298V3.28l-6.15.697V2.501L46.289.205l.615.492-.164 6.355V20.09l.082 7.298zm22.755-1.763v3.075H57.892v-2.46l7.052-7.462c4.51-4.879 6.314-8.241 6.314-11.686 0-3.689-2.132-6.19-5.658-6.19a9.72 9.72 0 0 0-2.706.368l-1.025 3.157c-.492 1.764-1.107 2.542-2.173 2.542-.845-.011-1.61-.505-1.968-1.27C58.425 2.173 62.238 0 66.502 0c5.535 0 8.118 3.075 8.118 7.585 0 3.772-1.968 6.725-8.528 13.284-1.148 1.23-3.239 3.321-5.494 5.535zm22.016-11.316c0 10.947-4.428 14.966-9.061 14.966-4.674 0-9.143-4.019-9.143-14.966C79.785 4.101 84.254 0 88.928 0c4.633 0 9.061 4.101 9.061 15.088zm-9.061 13.325c2.87 0 5.658-2.951 5.658-13.325 0-10.496-2.788-13.406-5.658-13.406-2.952 0-5.699 2.87-5.699 13.406 0 10.415 2.747 13.325 5.699 13.325z"/><use xlink:href="#E"/><path d="M1.968 501.018v-2.133l38.786 11.932v2.091zm39.77-15.909l.697.861c-6.191 6.191-12.997 9.102-21.197 9.102S6.19 492.162 0 485.971l.738-.861c7.79 5.371 13.079 6.93 20.5 6.93 7.38 0 12.751-1.6 20.5-6.93zm0-12.588l.697.861c-6.191 6.191-12.997 9.103-21.197 9.103S6.19 479.574 0 473.383l.738-.861c7.79 5.371 13.079 6.93 20.5 6.93 7.38 0 12.751-1.6 20.5-6.93z"/><use xlink:href="#E" y="-63.754"/><path d="M21.279 447.514v-10.332h2.378v10.332zm-7.462-34.401l.491 2.502 19.968 7.544c7.503 2.829 10.537 5.616 10.537 8.938 0 2.008-1.025 3.771-2.583 3.813-1.088-.366-1.771-1.443-1.641-2.583.052-1.193.603-2.308 1.518-3.075l.328-.328c-1.477-2.091-3.978-3.525-6.807-4.551l-.942-.369-20.501 8.118-.368 2.624h-1.271v-10.168h1.312l.45 3.936 16.318-6.027-16.277-5.821-.532 4.019h-1.271v-8.57zm-13.079.37l-.738-.86c6.19-6.191 13.038-9.104 21.238-9.104s15.006 2.912 21.197 9.104l-.697.86c-7.79-5.371-13.12-6.929-20.5-6.929-7.421 0-12.751 1.599-20.5 6.929zm41-27.305l.697.861c-6.191 6.19-12.997 9.102-21.197 9.102S6.19 393.229 0 387.039l.738-.861c7.79 5.371 13.079 6.929 20.5 6.929 7.38 0 12.751-1.599 20.5-6.929zm-27.921-24.436l.491 2.501 19.968 7.544c7.503 2.829 10.537 5.617 10.537 8.938 0 2.009-1.025 3.772-2.583 3.813-1.088-.367-1.772-1.444-1.641-2.584a4.25 4.25 0 0 1 1.518-3.074l.328-.328c-1.477-2.092-3.978-3.526-6.807-4.551l-.942-.369-20.501 8.117-.368 2.625h-1.271v-10.168h1.312l.45 3.936 16.318-6.027-16.277-5.822-.532 4.019h-1.271v-8.569zm7.462-1.148v-10.332h2.378v10.332zm-7.462-34.399l.491 2.5 19.968 7.545c7.503 2.828 10.537 5.617 10.537 8.938 0 2.01-1.025 3.772-2.583 3.813-1.088-.366-1.772-1.443-1.641-2.583a4.25 4.25 0 0 1 1.518-3.075l.328-.328c-1.477-2.091-3.978-3.526-6.807-4.551l-.942-.369-20.501 8.118-.368 2.624h-1.271v-10.168h1.312l.45 3.937 16.318-6.027-16.277-5.822-.532 4.018h-1.271v-8.568zm16.145-2.374a1.52 1.52 0 0 1 0-3.036 1.52 1.52 0 0 1 1.459 1.518 1.52 1.52 0 0 1-1.459 1.518zm16.547-4.399h.765v5.834h-.765l-.312-2.057-4.375-.047h-1.34l-3.634.047-.144 2.2h-.789l-1.243-3.754.239-.358 3.395.071h3.516l4.375-.048zM.738 317.32L0 316.459c6.19-6.191 13.038-9.103 21.238-9.103s15.006 2.911 21.197 9.103l-.697.861c-7.79-5.371-13.12-6.93-20.5-6.93-7.421 0-12.751 1.6-20.5 6.93zm0-12.588l-.738-.86c6.19-6.191 13.038-9.103 21.238-9.103s15.006 2.911 21.197 9.103l-.697.86c-7.79-5.371-13.12-6.929-20.5-6.929-7.421 0-12.751 1.599-20.5 6.929z"/><path d="M832.962 889.232l-2.501.491-7.544 19.968c-2.829 7.503-5.617 10.537-8.938 10.537-2.009 0-3.772-1.025-3.813-2.583.366-1.088 1.443-1.771 2.583-1.641 1.193.052 2.308.603 3.075 1.518l.328.328c2.091-1.477 3.526-3.978 4.551-6.807l.369-.942-8.118-20.501-2.624-.368v-1.271h10.168v1.313l-3.936.45 6.027 16.318 5.822-16.277-4.018-.532v-1.271h8.569z"/><use xlink:href="#C" x="45.411" y="48"/><use xlink:href="#C" x="245" y="48"/><use xlink:href="#F"/><use xlink:href="#C" x="280.464" y="48"/><use xlink:href="#G"/><path d="M575.743 855.088c0 10.947-4.429 14.966-9.062 14.966-4.674 0-9.144-4.019-9.144-14.966 0-10.987 4.47-15.088 9.144-15.088 4.633 0 9.062 4.101 9.062 15.088zm-9.062 13.325c2.87 0 5.658-2.951 5.658-13.325 0-10.496-2.788-13.406-5.658-13.406-2.952 0-5.699 2.87-5.699 13.406 0 10.415 2.747 13.325 5.699 13.325z"/><use xlink:href="#H"/><path d="M610.632 868.167v1.313h-16.195v-1.312l6.478-.778.082-7.298V843.28l-6.149.697v-1.477l8.855-2.296.615.492-.164 6.355v13.038l.082 7.298z"/><use xlink:href="#C" x="695.771" y="48"/><use xlink:href="#F" x="450.77"/><path d="M825.702 868.167v1.313h-16.195v-1.312l6.478-.778.082-7.298V843.28l-6.15.697v-1.477l8.856-2.296.615.492-.164 6.355v13.038l.082 7.298z"/><use xlink:href="#G" x="450.77"/><use xlink:href="#C" x="931.46" y="48"/><use xlink:href="#F" x="686.46"/><use xlink:href="#I"/><use xlink:href="#C" x="1146.53" y="48"/><use xlink:href="#H" x="665.83"/><use xlink:href="#I" x="215.07"/><use xlink:href="#G" x="901.53"/><use xlink:href="#C" x="1382.22" y="48"/><use xlink:href="#H" x="901.52"/><path d="M1499.401 844.552c-.41 1.681-.902 2.419-2.214 2.419-.904.047-1.713-.556-1.927-1.436.902-3.771 4.305-5.535 8.2-5.535 5.043 0 8.241 2.87 8.241 7.012 0 3.361-2.214 6.026-6.109 7.257 4.715.819 7.052 3.566 7.052 7.38 0 4.879-3.977 8.405-9.758 8.405-4.223 0-7.462-1.805-8.364-5.986a2.08 2.08 0 0 1 1.927-1.271c1.23 0 1.681.819 2.214 2.624l.779 2.542a9.6 9.6 0 0 0 2.952.45c4.551 0 6.929-2.542 6.929-6.642 0-4.141-2.378-6.602-7.216-6.602h-2.091v-1.763h1.763c4.1 0 6.724-2.296 6.724-6.313 0-3.403-2.05-5.412-5.658-5.412-.899-.003-1.794.107-2.665.327z"/></g><path d="M1257.04 807.98V670.54M181.886 807.98V147.984" fill="none" stroke="#d11313" stroke-width="2" class="G J"/><g class="D" fill="#d11313"><path d="M625.528 757.34v1.476h-11.849v-1.476l4.51-.451-2.706-8.159h-10.537l-2.665 8.077 4.305.533v1.476h-9.84v-1.476l3.69-.492 9.471-28.208h2.296l9.635 28.29zm-10.619-10.292l-4.715-14.186-4.674 14.186zm19.475-4.059c1.476-3.608 4.1-5.822 6.683-5.822a3.55 3.55 0 0 1 3.116 1.477c0 1.763-.697 2.788-2.296 2.788a3.98 3.98 0 0 1-2.624-1.189l-.574-.492a11.24 11.24 0 0 0-4.264 5.986v3.731l.082 7.503 3.772.532v1.313h-10.455v-1.312l3.362-.491.123-7.544v-2.256l-.164-6.231-3.649-.287v-1.312l5.904-2.173.574.41zm14.965 5.043c.041 6.068 3.239 9.062 7.585 9.062 2.535.031 4.93-1.159 6.437-3.198l.861.656a9.2 9.2 0 0 1-8.323 4.838c-5.74 0-9.881-3.978-9.881-10.988 0-6.847 4.633-11.234 10.045-11.234 4.756 0 8.2 3.239 8.2 8.364a8.49 8.49 0 0 1-.287 2.542zm9.635-1.558c1.804 0 2.214-.902 2.214-2.214.029-1.434-.519-2.819-1.521-3.844a5.35 5.35 0 0 0-3.809-1.609c-2.993 0-5.986 2.46-6.478 7.667zm29.356 10.784a4.02 4.02 0 0 1-3.567 2.05c-2.091 0-3.403-1.395-3.772-3.649-2.501 2.542-4.141 3.731-6.806 3.731-3.28 0-5.904-1.887-5.904-5.412 0-2.747 1.599-4.756 7.175-6.766l5.453-1.476v-1.312c0-4.51-1.353-5.616-4.469-5.616a8.5 8.5 0 0 0-2.87.45l-.902 3.034c-.328 1.189-.943 1.805-2.009 1.805-.448.044-.895-.098-1.236-.393s-.546-.716-.568-1.166c.861-3.362 4.059-5.371 8.405-5.371 4.551 0 6.765 2.05 6.765 7.38v9.718c0 2.378.656 3.116 1.763 3.116a2.4 2.4 0 0 0 1.845-.984zm-7.421-10.21c-1.557.408-3.09.9-4.592 1.477-3.977 1.517-4.715 3.239-4.715 4.879 0 2.46 1.558 3.567 3.772 3.567 1.722 0 2.911-.738 5.535-2.829zm19.884-6.478v-2.009h20.787v2.009zm0 8.938v-2.01h20.787v2.01zm52.357 7.995v1.313h-16.195v-1.312l6.478-.778.082-7.298v-16.811l-6.15.697v-1.477l8.856-2.296.615.492-.164 6.355v13.038l.082 7.298z"/><use xlink:href="#J"/><use xlink:href="#F" x="435.79" y="-110.664"/><use xlink:href="#J" x="35.463"/></g><defs ><path id="B" d="M179.33 121.543a4 4 0 1 1-8 0 4 4 0 0 1 6.829-2.829 4 4 0 0 1 1.171 2.829z"/><path id="C" d="M95.042 807.088c0 10.947-4.428 14.966-9.061 14.966-4.674 0-9.144-4.019-9.144-14.966 0-10.987 4.469-15.088 9.144-15.088 4.633 0 9.061 4.101 9.061 15.088zm-9.061 13.325c2.87 0 5.658-2.951 5.658-13.325 0-10.496-2.788-13.406-5.658-13.406-2.952 0-5.699 2.87-5.699 13.406 0 10.415 2.747 13.325 5.699 13.325z"/><path id="D" d="M96.521 675.088c0 10.947-4.428 14.966-9.061 14.966-4.675 0-9.144-4.019-9.144-14.966 0-10.987 4.469-15.088 9.144-15.088 4.633 0 9.061 4.101 9.061 15.088zm-9.061 13.325c2.869 0 5.657-2.951 5.657-13.325 0-10.496-2.788-13.406-5.657-13.406-2.952 0-5.699 2.87-5.699 13.406 0 10.415 2.747 13.325 5.699 13.325z"/><path id="E" d="M32.308 515.531h1.313v16.195h-1.312l-.778-6.479-7.298-.082H7.421l.697 6.15H6.642l-2.296-8.856.492-.615 6.355.164h13.038l7.298-.082z"/><path id="F" d="M345.946 867.307c-.029-.986.48-1.91 1.329-2.412s1.904-.502 2.754 0 1.359 1.426 1.329 2.412c0 1.495-1.212 2.706-2.706 2.706s-2.706-1.212-2.706-2.706z"/><path id="G" d="M383.377 852.137c1.501-.464 3.063-.699 4.633-.697 5.658 0 9.512 3.239 9.512 9.02 0 5.658-4.018 9.595-10.209 9.595-4.346 0-7.257-1.968-8.2-5.904a1.93 1.93 0 0 1 1.927-1.353c1.148 0 1.64.573 2.173 2.501l.82 2.665a10.9 10.9 0 0 0 3.034.45c4.633 0 7.175-2.951 7.175-7.544 0-4.756-2.829-7.298-7.175-7.298a13.76 13.76 0 0 0-4.469.697l-1.148-.246.943-13.407h14.391v3.075h-12.792z"/><path id="H" d="M581.646 867.307c-.029-.986.48-1.91 1.329-2.412s1.904-.502 2.754 0 1.359 1.426 1.329 2.412c-.003 1.492-1.214 2.701-2.706 2.701s-2.703-1.208-2.706-2.701z"/><path id="I" d="M1062.048 866.404v3.075h-18.082v-2.46l7.052-7.462c4.51-4.879 6.314-8.241 6.314-11.686 0-3.689-2.132-6.19-5.658-6.19a9.72 9.72 0 0 0-2.706.368l-1.025 3.157c-.492 1.764-1.107 2.542-2.173 2.542-.845-.011-1.61-.505-1.968-1.271.697-4.306 4.51-6.479 8.774-6.479 5.535 0 8.118 3.075 8.118 7.585 0 3.772-1.968 6.725-8.528 13.284-1.148 1.23-3.239 3.321-5.494 5.535z"/><path id="J" d="M777.104 749.795h-4.838v9.02h-3.075v-9.021h-12.341v-1.886l13.284-18.327h2.132v17.917h4.838zm-7.913-2.296v-14.062l-10.127 14.063z"/></defs></svg>