<svg xmlns="http://www.w3.org/2000/svg" xmlns:xlink="http://www.w3.org/1999/xlink" viewBox="0 0 2023.939 828.561" xmlns:v="https://vecta.io/nano"><style><![CDATA[.F{isolation:isolate}]]></style><defs><clipPath id="A" transform="translate(-28.201 -28.004)"><path d="M0 0h2080v899H0z" fill="none"/></clipPath><path id="B" d="M157.742 50.128c11.659 1.319 9.569 9.293 5.554 7.148-.935-2.42-3.739-5.169-6.104-6.654zm16.333-4.84l-7.864 24.032c-.504 1.641-.781 3.343-.825 5.059.055 2.53 1.595 4.895 1.485 9.459-.11 2.365-1.265 3.85-3.135 3.85-.99 0-1.705-.99-1.87-2.75.825-5.554.495-9.898-.77-10.724a4.56 4.56 0 0 0-2.64-.824v-1.21h2.365c.715 0 .88 0 1.375-1.155.99-2.034.99-2.034 10.833-26.012zm-12.209-7.369c12.099 2.035 9.734 10.174 5.719 7.81-.88-2.585-3.74-5.609-6.214-7.314zm41.08 12.648s2.805 2.255 4.619 3.904c-.165.605-.715.88-1.485.88h-21.502c-.88 2.75-2.255 6.874-3.355 9.789h17.213l2.035-2.145 4.125 3.409a3.13 3.13 0 0 1-2.145.825c-.935 9.568-3.08 16.442-5.774 18.587-1.758 1.309-3.915 1.969-6.104 1.87a3.01 3.01 0 0 0-.99-2.585 17.75 17.75 0 0 0-5.279-1.484v-.935l7.864.604a3.31 3.31 0 0 0 2.31-.66c1.76-1.265 3.52-7.479 4.399-15.838h-17.708l-1.814 1.87-3.959-3.135a12.3 12.3 0 0 1 2.419-1.1c1.045-2.694 2.31-6.6 3.025-9.074h-8.359l-.385-1.595h28.321zm-26.617-7.314l-.44-1.595h20.897l2.53-3.189s2.859 2.255 4.564 3.905c-.055.604-.66.879-1.43.879z"/><path id="C" d="M572.463 92.885l-1.155.935c-8.304-8.304-12.208-17.433-12.208-28.431s3.905-20.183 12.208-28.486l1.155.989c-7.204 10.449-9.294 17.543-9.294 27.497 0 9.898 2.145 17.103 9.294 27.496z"/><path id="D" d="M657.328 67.533c.055 8.139 4.344 12.153 10.173 12.153a10.57 10.57 0 0 0 8.634-4.29l1.155.881a12.34 12.34 0 0 1-11.163 6.488c-7.699 0-13.253-5.334-13.253-14.737 0-9.185 6.214-15.068 13.473-15.068 6.379 0 10.999 4.345 10.999 11.219.045 1.149-.085 2.299-.385 3.409zm12.923-2.09c2.42 0 2.97-1.21 2.97-2.97a7.17 7.17 0 0 0-7.149-7.313c-4.015 0-8.029 3.299-8.689 10.283z"/><path id="E" d="M754.676 67.972c0-10.009 6.709-15.013 13.528-15.013 6.654 0 13.473 5.004 13.473 15.013 0 9.954-6.709 14.793-13.473 14.793-6.819 0-13.528-4.839-13.528-14.793zm22.382 0c0-8.193-3.354-12.812-8.854-12.812-5.555 0-8.854 4.619-8.854 12.813 0 8.249 3.299 12.594 8.854 12.594 5.499 0 8.854-4.345 8.854-12.594z"/><path id="F" d="M914.335 80.236v1.76h-13.474v-1.76l4.675-.66.11-10.118v-5.499c0-5.72-1.65-7.59-5.17-7.59-2.694 0-5.499 1.155-9.019 4.399v8.689l.11 10.063 4.344.715v1.76h-13.418v-1.76l4.619-.66c.11-3.079.165-7.313.165-10.118v-3.024c0-3.465-.109-5.774-.22-8.359l-4.895-.385v-1.76l7.919-2.915.771.55.439 5.06c3.189-3.52 7.314-5.664 10.999-5.664 5.004 0 7.533 3.024 7.533 10.778v5.72c0 2.859.056 7.039.165 10.063z"/><path id="G" d="M935.017 80.016c-1.684 1.848-4.101 2.855-6.599 2.749-4.18 0-6.489-2.254-6.489-6.929l.055-4.784V56.26h-5.39v-2.035l5.609-.66 1.32-8.139h3.024l-.33 8.304h8.249v2.53h-8.304v19.357c0 3.244 1.319 4.619 3.574 4.619 1.532-.052 3.002-.613 4.18-1.595z"/><path id="H" d="M1097.212 37.891l1.154-.989c8.304 8.304 12.209 17.487 12.209 28.486s-3.905 20.127-12.209 28.431l-1.154-.935c7.204-10.449 9.294-17.598 9.294-27.496 0-9.954-2.146-17.104-9.294-27.497z"/><path id="I" d="M722.005 511.924c0 13.033-8.634 20.952-17.982 20.952-9.459 0-18.148-7.534-18.148-20.952 0-12.979 8.744-20.952 18.148-20.952 9.349 0 17.982 7.534 17.982 20.952zm-17.982 18.532c8.579 0 12.648-9.019 12.648-18.532 0-9.459-4.069-18.478-12.648-18.478-8.689 0-12.758 9.019-12.758 18.478 0 9.514 4.069 18.532 12.758 18.532z"/><path id="J" d="M757.976 530.237v1.76l-7.809.495-.44-5.499c-3.08 3.794-6.874 5.773-10.724 5.773-4.949 0-7.864-2.805-7.809-10.889l.165-15.287-4.564-.771v-1.76l8.249-.715.55.605-.275 8.358v9.239c0 5.719 1.76 7.698 5.334 7.698 3.135 0 6.159-1.484 8.964-4.399l.11-18.257-4.509-.771v-1.76l8.139-.715.604.605-.22 8.358v17.268z"/><path id="K" d="M795.872 530.237v1.76h-14.463v-1.76l5.114-.715.11-10.063v-27.387l-5.004-.439v-1.705l8.524-2.31.825.495-.165 8.469v22.877l.11 10.063z"/><path id="L" d="M896.683 521.218l-.165 8.688a23.32 23.32 0 0 1-11.934 2.97c-11.988 0-20.127-8.634-20.127-20.952 0-12.153 8.524-20.952 20.127-20.952a21.78 21.78 0 0 1 11.384 2.97l.22 8.634h-3.024l-1.32-7.424c-2.039-1.121-4.328-1.708-6.654-1.705-8.744 0-15.343 6.709-15.343 18.478 0 11.878 6.214 18.478 14.958 18.478 2.627.021 5.223-.562 7.589-1.705l1.32-7.479z"/><path id="M" d="M902.187 517.973c0-10.009 6.709-15.013 13.528-15.013 6.654 0 13.473 5.004 13.473 15.013 0 9.954-6.709 14.793-13.473 14.793-6.819 0-13.528-4.839-13.528-14.793zm22.382 0c0-8.193-3.354-12.812-8.854-12.812-5.555 0-8.854 4.619-8.854 12.813 0 8.249 3.299 12.594 8.854 12.594 5.499 0 8.853-4.345 8.853-12.594z"/><path id="N" d="M966.368 530.237v1.76h-13.474v-1.76l4.674-.66.11-10.118v-5.499c0-5.72-1.649-7.59-5.169-7.59-2.695 0-5.5 1.155-9.019 4.399v8.689l.11 10.063 4.345.715v1.76h-13.418v-1.76l4.62-.66c.11-3.079.165-7.313.165-10.118v-3.024c0-3.465-.11-5.774-.22-8.359l-4.895-.385v-1.76l7.919-2.915.77.55.44 5.06c3.189-3.52 7.314-5.664 10.999-5.664 5.004 0 7.534 3.024 7.534 10.778v5.72c0 2.859.055 7.039.165 10.063z"/><path id="O" d="M995.133 525.727c-1.87 4.399-5.499 7.039-10.889 7.039-8.029 0-13.309-5.773-13.309-14.902 0-9.349 6.545-14.903 13.693-14.903 5.06 0 9.294 2.97 10.339 7.314-.048.592-.331 1.14-.785 1.522s-1.043.566-1.635.512c-1.4.04-2.607-.978-2.805-2.364l-1.21-4.125c-1.203-.418-2.466-.64-3.739-.659-5.554 0-9.514 4.563-9.514 12.318 0 7.698 4.18 12.208 10.118 12.208 3.438.041 6.664-1.655 8.579-4.51z"/><path id="P" d="M1094.353 510.769c1.979-4.839 5.499-7.809 8.964-7.809 1.76 0 3.574.77 4.179 1.98 0 2.365-.935 3.74-3.079 3.74a5.33 5.33 0 0 1-3.52-1.596l-.77-.659c-2.585 1.704-4.345 4.234-5.72 8.028v5.005l.11 10.063 5.059.715v1.76h-14.022v-1.76l4.509-.66c.11-3.079.165-7.313.165-10.118v-3.024c0-3.52-.109-5.774-.22-8.359l-4.895-.385v-1.76l7.919-2.915.771.55z"/><path id="Q" d="M774.254 277.768c1.98-4.839 5.5-7.809 8.964-7.809 1.76 0 3.575.77 4.18 1.979 0 2.365-.935 3.74-3.08 3.74a5.33 5.33 0 0 1-3.52-1.596l-.77-.659c-2.584 1.704-4.344 4.234-5.719 8.028v5.005l.11 10.063 5.06.715v1.76h-14.023v-1.76l4.51-.66c.11-3.079.165-7.313.165-10.118v-3.024c0-3.52-.11-5.774-.22-8.359l-4.895-.385v-1.76l7.919-2.915.77.55z"/><path id="R" d="M777.986 680.017c-1.684 1.848-4.101 2.855-6.599 2.749-4.18 0-6.489-2.254-6.489-6.929l.055-4.784V656.26h-5.39v-2.035l5.609-.66 1.32-8.139h3.024l-.33 8.304h8.249v2.53h-8.304v19.357c0 3.244 1.319 4.619 3.574 4.619 1.532-.052 3.003-.613 4.18-1.595z"/></defs><g clip-path="url(#A)"><path d="M83.663 753.706V22.917h-5.729v730.789zM94.549 27.5L80.799 0l-13.75 27.5z"/><path d="M80.799 751.136h1920.23v5.72H80.799zm1915.64-10.89l27.5 13.75-27.5 13.75z"/><g fill="none" stroke-miterlimit="8"><path d="M81.299 754.496l965.27-20.21c88.02-4.77 170.35-13.89 240.05-79.14s204.26-321.63 310.81-388.14c156.24-111.14 279.22-93.46 363.87-98.51" stroke="#000" stroke-width="9.167"/><g stroke-width="5.729" stroke-dasharray="45.8333 17.1875"><path d="M80.799 98.996h1918.59" stroke="#c55a11"/><path d="M80.799 549.996h1918.59" stroke="#5b9bd5"/></g></g><g class="F"><g><path d="M50.08 107.453l-.192 10.111A27.13 27.13 0 0 1 36 121.019c-13.951 0-23.422-10.047-23.422-24.382 0-14.143 9.919-24.382 23.422-24.382 4.649-.085 9.232 1.11 13.247 3.455l.256 10.048h-3.52l-1.536-8.64c-2.372-1.305-5.036-1.987-7.744-1.983-10.175 0-17.854 7.807-17.854 21.502 0 13.823 7.231 21.503 17.407 21.503a19.93 19.93 0 0 0 8.831-1.984l1.536-8.703z" fill="#c55a11"/></g><g><path d="M54.22 124.031c0-7.826 5.246-11.738 10.578-11.738 5.203 0 10.535 3.912 10.535 11.738 0 7.783-5.246 11.566-10.535 11.566-5.332 0-10.578-3.783-10.578-11.566zm17.501 0c0-6.407-2.623-10.019-6.923-10.019-4.343 0-6.923 3.611-6.923 10.019 0 6.45 2.58 9.847 6.923 9.847 4.3 0 6.923-3.396 6.923-9.847z" fill="#c55a11"/></g><g><path d="M52.746 559.453l-.192 10.111a27.13 27.13 0 0 1-13.887 3.455c-13.951 0-23.422-10.047-23.422-24.382 0-14.143 9.919-24.382 23.422-24.382 4.649-.085 9.232 1.11 13.247 3.455l.256 10.048h-3.52l-1.536-8.64c-2.372-1.305-5.036-1.987-7.744-1.983-10.175 0-17.855 7.807-17.855 21.502 0 13.823 7.231 21.503 17.407 21.503a19.93 19.93 0 0 0 8.831-1.984l1.536-8.703z" fill="#4472c4"/></g><g><path d="M66.604 574.484c4.558 1.677 6.278 3.741 6.278 6.622 0 3.396-2.967 6.492-8.814 6.492-2.393-.009-4.751-.584-6.88-1.677l-.172-5.03h2.064l.946 4.171c1.273.559 2.652.838 4.042.816 3.827 0 5.633-1.591 5.633-3.913 0-2.106-1.333-3.182-4.472-4.343l-2.15-.816c-3.44-1.247-5.676-3.054-5.676-6.235 0-3.354 2.795-6.277 7.869-6.277a12 12 0 0 1 6.45 1.849l-.172 4.644h-1.892l-.774-3.827a7.32 7.32 0 0 0-3.612-.945c-3.139 0-4.73 1.462-4.73 3.568 0 2.193 1.204 3.097 4.386 4.3z" fill="#4472c4"/></g><g fill="#c55a11"><use xlink:href="#B"/><path d="M212.192 85.213c5.719-2.97 13.143-8.909 16.168-12.429l4.564 2.86c-.275.605-1.044.935-2.475.77a67.94 67.94 0 0 1-17.763 9.624zm44.929-19.798s3.079 2.42 5.004 4.234c-.11.605-.715.881-1.484.881h-21.502v15.893c0 .439-1.595 1.21-2.97 1.21h-.715V70.531h-21.887l-.439-1.596h22.327v-6.544l5.719.605c-.11.77-.66 1.319-2.035 1.484v4.454h15.233zm-43.444-20.896c10.173.385 8.084 7.424 4.509 5.499-.715-1.87-2.97-3.904-4.949-4.949zm3.189 11.713c.715 0 .88 0 1.595-.824 1.155-1.32 1.155-1.32 12.648-15.344l.825.44c-2.475 3.794-8.799 12.648-9.789 14.243a7.7 7.7 0 0 0-1.265 3.409c0 1.43 1.209 2.694 1.1 5.114 0 1.65-.935 2.585-2.75 2.585-.825 0-1.43-.66-1.65-1.705.495-3.739.22-5.554-.935-6.104-.775-.362-1.62-.55-2.475-.551V56.23zm.275-18.422c10.449.329 8.964 7.589 5.389 5.938-1.43-2.302-3.465-4.166-5.884-5.389zm21.612 7.479a49.26 49.26 0 0 0 .11-8.084l6.104.495c-.165.935-.825 1.43-1.979 1.595a53.03 53.03 0 0 1-.44 5.994h5.169l1.979-2.145 3.905 3.52a3.01 3.01 0 0 1-1.925.77v11.494c0 .604.165.715 1.209.715h2.475c.99 0 1.924 0 2.31-.056.275 0 .495-.055.715-.55a54.66 54.66 0 0 0 1.375-6.269h.77l.165 6.434c1.045.44 1.21.88 1.21 1.54 0 1.43-1.485 2.09-6.764 2.09h-3.245c-3.189 0-3.685-.88-3.685-3.135V46.938h-5.939c-1.485 7.645-5.719 14.188-17.213 17.818l-.44-.66c9.019-3.96 12.703-10.063 13.858-17.158h-8.634l-.495-1.649zm3.134 28.541c20.402 3.74 20.788 12.539 16.058 11.329-3.245-3.465-11.108-8.194-16.498-10.614zm76.064-24.527a3.49 3.49 0 0 1-2.31.935c-.77 18.258-2.75 31.236-5.774 34.535a8.37 8.37 0 0 1-6.709 2.64 2.92 2.92 0 0 0-1.1-2.64c-.88-.659-3.52-1.319-5.884-1.649l.055-1.045c2.695.33 7.149.771 8.414.771.947.083 1.886-.236 2.585-.881 2.475-2.199 4.179-15.178 5.004-32.226h-3.575c-2.419 14.354-8.304 26.672-20.567 34.976l-.604-.715c10.173-8.799 15.508-21.007 17.212-34.261h-4.125A44.08 44.08 0 0 1 283.8 74.544l-.605-.715a46.2 46.2 0 0 0 13.528-24.087h-4.894a31.78 31.78 0 0 1-8.414 9.569l-.77-.605a38.72 38.72 0 0 0 5.555-8.358c-.319.357-.789.541-1.265.495h-6.819v12.428l7.864-2.694.275.825-8.139 4.234v20.567c0 .494-1.485 1.319-2.805 1.319h-.715V67.451l-6.27 3.08c-.141.617-.571 1.129-1.155 1.374l-2.089-4.619c1.925-.439 5.389-1.484 9.514-2.859V50.843h-4.399a35.25 35.25 0 0 1-4.399 9.129l-.825-.495a72.44 72.44 0 0 0 4.015-18.973l5.224.989a1.87 1.87 0 0 1-1.924 1.32 63.69 63.69 0 0 1-1.595 6.379h3.905V37.095l5.444.659c-.165.771-.605 1.32-1.925 1.54v9.898h1.43l2.475-3.189s2.695 2.31 4.345 3.96v.055a56.75 56.75 0 0 0 4.399-12.923l5.609 1.649c-.275.715-.935 1.154-2.145 1.154a45.45 45.45 0 0 1-3.52 8.305h18.972l2.035-2.42zm22.224 14.903c-.44.494-.935.604-2.145.659-1.201 4.33-3.362 8.334-6.324 11.714a1.94 1.94 0 0 1 .99.605c4.785 4.84 10.834 5.555 21.447 5.555 6.434 0 11.769 0 18.422-.33l.055.77a3.21 3.21 0 0 0-2.75 2.805h-16.773c-10.889 0-16.168-1.539-21.062-7.259-.715-.77-1.265-.66-1.76 0-1.1 1.54-3.41 4.784-4.839 7.039.192.402.078.883-.275 1.155l-3.08-3.74c2.2-1.539 5.499-4.619 7.369-5.994 2.492-3.796 4.177-8.064 4.95-12.538h-5.884l-1.595 1.32-3.025-2.86a8.26 8.26 0 0 1 2.09-.88c1.925-2.584 4.509-6.654 6.214-9.514h-9.129l-.495-1.595h9.954l1.98-2.145 4.234 3.795c-.55.604-1.815.824-3.245.88-1.595 2.529-4.234 6.488-6.269 9.349h4.949l2.255-2.09zM325.492 37.7c11.769 3.135 9.184 11.108 5.334 8.634-.66-2.694-3.575-6.159-5.884-8.139zm10.504 20.732a73.92 73.92 0 0 0 9.458-21.337l5.665 1.924a1.87 1.87 0 0 1-2.035 1.045 83.87 83.87 0 0 1-3.244 6.709h18.312l2.475-3.134s2.859 2.199 4.674 3.85c-.165.605-.715.88-1.485.88h-12.209v7.424h5.665l2.365-2.97s2.75 2.09 4.454 3.739c-.11.605-.66.88-1.375.88h-11.109v7.534h5.665l2.365-2.97s2.75 2.09 4.454 3.739c-.11.605-.66.88-1.375.88h-11.109v7.864h7.259l2.64-3.244s2.859 2.31 4.729 4.014c-.11.605-.66.88-1.43.88h-25.681v2.42c0 .275-1.155 1.21-2.915 1.21h-.604V53.483a47.73 47.73 0 0 1-4.785 5.499zm9.129-10.063v7.424h8.963v-7.424zm8.963 9.073h-8.963v7.534h8.963zm0 9.184h-8.963v7.864h8.963zm-1.32-29.695c9.734 4.619 6.159 11.933 2.86 9.019-.055-2.859-1.87-6.435-3.575-8.634zm24.919 13.252c11.604 1.319 9.569 9.294 5.555 7.094-.935-2.364-3.74-5.114-6.104-6.599zm16.058-1.045l-8.029 20.732a14.66 14.66 0 0 0-.825 4.619c0 2.364 1.595 4.949 1.375 9.349-.11 2.365-1.21 3.85-3.08 3.85-.99 0-1.65-1.045-1.815-2.805.77-5.609.495-9.898-.77-10.669a4.89 4.89 0 0 0-2.695-.824v-1.21h2.475c.66 0 .825 0 1.43-1.1 1.045-1.815 1.045-1.815 10.999-22.272zm-11.934-11.164c11.989 2.035 9.569 10.229 5.609 7.755-.825-2.585-3.685-5.609-6.104-7.314zM396 62.117l5.224.55c-.165.66-.55 1.21-1.87 1.375V69.1c-.055 6.215-1.595 14.134-10.449 18.753l-.715-.715c6.6-4.84 7.81-12.099 7.81-18.147zm-4.015-16.883h9.734a68.04 68.04 0 0 0 3.849-8.084l5.719 2.475a1.93 1.93 0 0 1-2.089.88c-.825 1.43-1.87 3.024-3.08 4.729h13.913l2.529-3.3s2.97 2.31 4.729 4.015c-.203.599-.804.968-1.43.88h-20.952c-2.614 3.52-5.501 6.83-8.634 9.898 4.949-.274 12.758-.88 21.117-1.54a24.56 24.56 0 0 0-4.455-4.234l.55-.55c13.528 4.29 11.329 13.033 7.259 10.559a13.34 13.34 0 0 0-2.475-4.674c-5.444 1.044-13.528 2.364-22.602 3.794a3.07 3.07 0 0 1-1.265 1.265l-1.76-4.344c.469-.133.914-.337 1.32-.605a56.95 56.95 0 0 0 6.874-9.568h-8.414zm13.473 16.827l5.279.605c-.055.715-.605 1.265-1.925 1.43v21.063c0 .439-1.485 1.154-2.694 1.154h-.66zm21.227 21.228c1.1.385 1.595.66 1.595 1.32 0 1.43-1.485 1.924-6.6 1.924h-2.969c-3.135 0-3.629-.88-3.629-3.189V62.006l5.004.55c-.11.715-.604 1.21-1.649 1.43v18.533c0 .77.11.989 1.155.989h4.729l1.65-.274h.55zm5.727-32.997c11.274 1.21 9.019 8.909 5.115 6.71-.825-2.255-3.355-4.84-5.609-6.215zm14.133-2.914l-6.434 21.997a25.1 25.1 0 0 0-.715 4.839c.055 2.53 1.65 5.06 1.43 9.569-.11 2.364-1.155 3.739-3.024 3.739-.99 0-1.65-.935-1.76-2.694.77-5.499.44-9.899-.715-10.724a4.56 4.56 0 0 0-2.64-.77v-1.209h2.365c.605 0 .825-.056 1.32-1.21.88-1.87.88-1.87 9.129-23.757zm-10.503-9.789c11.878 1.705 9.679 9.624 5.664 7.424-.88-2.529-3.794-5.334-6.214-6.874zm42.949 38.33c-.439.385-.989.495-1.979.11a36.41 36.41 0 0 1-6.434 2.529 27.67 27.67 0 0 0 11.988 5.005l-.056.604a3.72 3.72 0 0 0-2.805 2.97c-7.919-2.529-13.253-7.314-16.277-14.903h-5.555v10.834l8.524-3.08.33.771-9.899 6.049c-.27.577-.712 1.057-1.265 1.375l-1.925-3.904c.99-.605 1.101-.88 1.101-1.65V72.235h-3.795c-.33 5.279-1.705 11.219-7.314 15.453l-.715-.66c4.454-5.444 4.894-12.099 4.894-18.312v-9.898l1.1.495V41.549l3.464 1.54h5.334v-5.885l4.895.605c-.055.715-.604 1.209-1.869 1.374v3.905h5.444v-5.885l4.894.605c-.055.715-.604 1.209-1.869 1.374v3.905h4.674l1.925-2.035 4.125 3.244a3.93 3.93 0 0 1-2.31 1.045v12.318c0 .056-.11.165-.221.275.771.55 2.805 2.035 4.29 3.3-.165.604-.66.88-1.43.88h-29.202v3.52h20.732l2.365-2.695s2.75 1.925 4.454 3.465c-.109.605-.66.88-1.43.88h-26.122v3.3h24.251l2.365-2.695a50.42 50.42 0 0 1 4.51 3.465c-.11.605-.66.88-1.431.88h-16.003c1.196 1.953 2.659 3.73 4.345 5.279a58.95 58.95 0 0 0 6.104-5.114zM452.1 58.541c-.653.63-1.513 1.001-2.419 1.045l2.035.88h22.932l1.814-2.09a3.68 3.68 0 0 1-1.54.33h-.495v-1.76H452.1zm0-13.803v4.345h5.609v-4.345zm0 10.559h5.609v-4.619H452.1zm8.634-10.559v4.345h5.444v-4.345zm0 10.559h5.444v-4.619h-5.444zm8.469-10.559v4.345h5.224v-4.345zm0 10.559h5.224v-4.619h-5.224zm26.898 2.86c0 9.129-.55 21.228-8.523 29.586l-.88-.604c5.279-8.469 5.829-19.083 5.829-28.926V42.538l4.234 1.815h32.995l2.695-3.41s3.024 2.365 4.839 4.125c-.109.604-.66.88-1.375.88h-39.814zm34.096 11.603c-.495.44-1.1.605-2.53.66-2.536 3.578-5.749 6.623-9.458 8.964 5.499 2.31 12.263 3.629 19.797 4.234l-.055.66a3.93 3.93 0 0 0-3.08 3.189c-7.974-1.155-14.518-3.08-19.687-6.27-6.049 3.135-13.473 5.225-22.217 6.27l-.385-.88c7.064-1.268 13.879-3.664 20.183-7.095-3.266-2.557-5.9-5.831-7.699-9.568h-4.345l-.494-1.649h23.481l2.64-2.145zm-9.074-3.85v-2.419H509.3v1.924c0 .386-1.54 1.101-2.805 1.101h-.66V55.187h-7.974l-.439-1.595h8.413v-6.049l5.444.55c-.109.77-.604 1.265-1.979 1.484v4.015h11.823v-6.049l5.5.55c-.11.77-.605 1.265-1.98 1.484v4.015h4.51l2.42-3.244s2.805 2.31 4.399 3.959c-.056.605-.605.88-1.375.88h-9.954v9.569c0 .385-1.539 1.154-2.805 1.154zm-14.683 4.015a23.28 23.28 0 0 0 8.799 7.974 28.14 28.14 0 0 0 8.139-7.974zm3.079-33.436c10.999 1.925 8.359 9.349 4.51 7.039a19.31 19.31 0 0 0-5.06-6.599zm11.604 25.352v-6.654H509.3v6.654z"/></g><g fill="#c55a11"><use xlink:href="#C"/><path d="M587.479 44.436c-.165 5.224-.165 10.559-.165 16.003v3.024l.165 15.947 5.719.605v1.979h-16.333v-1.979l5.72-.605c.165-5.224.165-10.559.165-15.947v-3.024l-.165-16.003-5.72-.605v-1.925h16.333v1.925zm42.896 35.8v1.76h-13.473v-1.76l4.674-.66.11-10.118v-5.499c0-5.72-1.649-7.59-5.169-7.59-2.695 0-5.5 1.155-9.019 4.399v8.689l.11 10.063 4.345.715v1.76h-13.418v-1.76l4.62-.66c.11-3.079.165-7.313.165-10.118v-3.024c0-3.465-.11-5.774-.22-8.359l-4.895-.385v-1.76l7.919-2.915.77.55.44 5.06c3.189-3.52 7.314-5.664 10.999-5.664 5.004 0 7.534 3.024 7.534 10.778v5.72c0 2.859.055 7.039.165 10.063zm17.987 0v1.76h-14.463v-1.76l5.114-.715.11-10.063V42.071l-5.004-.439v-1.705l8.524-2.31.825.495-.165 8.469v22.877l.11 10.063z"/><use xlink:href="#D"/><path d="M699.291 80.016c-1.684 1.848-4.101 2.855-6.599 2.749-4.179 0-6.489-2.254-6.489-6.929l.055-4.784V56.26h-5.389v-2.035l5.609-.66 1.32-8.139h3.024l-.33 8.304h8.249v2.53h-8.304v19.357c0 3.244 1.32 4.619 3.574 4.619a6.89 6.89 0 0 0 4.18-1.595zm49.882-8.798l-.165 8.688a23.32 23.32 0 0 1-11.934 2.97c-11.988 0-20.127-8.634-20.127-20.952 0-12.153 8.524-20.952 20.127-20.952 3.995-.073 7.933.954 11.383 2.97l.22 8.634h-3.024l-1.32-7.424c-2.039-1.121-4.328-1.708-6.654-1.705-8.744 0-15.343 6.709-15.343 18.478 0 11.878 6.214 18.478 14.958 18.478a17.13 17.13 0 0 0 7.589-1.705l1.32-7.479z"/><use xlink:href="#E"/><path d="M818.857 80.236v1.76h-13.473v-1.76l4.674-.66.11-10.118v-5.499c0-5.72-1.65-7.59-5.169-7.59-2.694 0-5.499 1.155-9.019 4.399v8.689l.11 10.063 4.345.715v1.76h-13.418v-1.76l4.62-.66c.11-3.079.165-7.313.165-10.118v-3.024c0-3.465-.11-5.774-.22-8.359l-4.895-.385v-1.76l7.919-2.915.77.55.44 5.06c3.189-3.52 7.314-5.664 10.999-5.664 5.004 0 7.534 3.024 7.534 10.778v5.72c0 2.859.055 7.039.165 10.063zm28.766-4.51c-1.87 4.399-5.5 7.039-10.889 7.039-8.029 0-13.308-5.773-13.308-14.902 0-9.349 6.544-14.903 13.693-14.903 5.06 0 9.294 2.97 10.339 7.314-.048.592-.331 1.14-.785 1.522s-1.043.566-1.635.512c-1.4.04-2.607-.978-2.805-2.364l-1.209-4.125a11.94 11.94 0 0 0-3.74-.659c-5.554 0-9.514 4.563-9.514 12.318 0 7.698 4.18 12.208 10.119 12.208 3.437.041 6.663-1.655 8.579-4.51zm9.461-8.193c.055 8.139 4.344 12.153 10.174 12.153 3.4.042 6.613-1.555 8.634-4.29l1.154.881a12.34 12.34 0 0 1-11.163 6.488c-7.699 0-13.254-5.334-13.254-14.737 0-9.185 6.215-15.068 13.474-15.068 6.379 0 10.999 4.345 10.999 11.219.045 1.149-.086 2.299-.386 3.409zm12.923-2.09c2.42 0 2.97-1.21 2.97-2.97.039-1.923-.696-3.781-2.041-5.156s-3.185-2.153-5.109-2.157c-4.014 0-8.028 3.299-8.688 10.283z"/><use xlink:href="#F"/><use xlink:href="#G"/><path d="M946.843 60.768c1.98-4.839 5.499-7.809 8.964-7.809 1.76 0 3.574.77 4.179 1.979 0 2.365-.935 3.74-3.079 3.74a5.33 5.33 0 0 1-3.52-1.596l-.77-.659c-2.585 1.704-4.345 4.234-5.72 8.028v5.005l.11 10.063 5.059.715v1.76h-14.022v-1.76l4.509-.66c.11-3.079.165-7.313.165-10.118v-3.024c0-3.52-.109-5.774-.22-8.359l-4.895-.385v-1.76l7.919-2.915.771.55zm42.787 19.138a5.39 5.39 0 0 1-4.784 2.75c-2.805 0-4.564-1.87-5.06-4.895-3.354 3.409-5.554 5.004-9.129 5.004-4.399 0-7.919-2.529-7.919-7.259 0-3.685 2.145-6.379 9.624-9.073 2.145-.66 4.784-1.431 7.313-1.98v-1.76c0-6.049-1.814-7.533-5.994-7.533-1.308-.021-2.61.183-3.849.604l-1.21 4.069c-.44 1.595-1.266 2.42-2.695 2.42a2.21 2.21 0 0 1-2.419-2.09c1.154-4.51 5.444-7.204 11.273-7.204 6.104 0 9.073 2.75 9.073 9.898V75.89c0 3.189.88 4.18 2.365 4.18a3.22 3.22 0 0 0 2.475-1.319zm-9.954-13.693c-2.088.547-4.143 1.208-6.158 1.98-5.335 2.034-6.324 4.344-6.324 6.544 0 3.3 2.089 4.784 5.059 4.784 2.31 0 3.904-.99 7.424-3.795zm29.59 13.803c-1.684 1.848-4.101 2.855-6.599 2.749-4.18 0-6.489-2.254-6.489-6.929l.055-4.784V56.26h-5.39v-2.035l5.609-.66 1.32-8.139h3.024l-.33 8.304h8.249v2.53h-8.304v19.357c0 3.244 1.319 4.619 3.574 4.619a6.89 6.89 0 0 0 4.18-1.595zm16.114.22v1.76h-13.418v-1.76l4.729-.715.109-10.063v-3.08l-.109-8.358-5.059-.33v-1.814l8.633-2.86.825.55-.165 7.81v8.084l.109 10.063zm-10.118-38.055c.075-1.874 1.616-3.355 3.492-3.355s3.417 1.481 3.492 3.355c-.075 1.874-1.616 3.355-3.492 3.355s-3.417-1.481-3.492-3.355zm15.125 25.791c0-10.009 6.709-15.013 13.528-15.013 6.654 0 13.473 5.004 13.473 15.013 0 9.954-6.709 14.793-13.473 14.793-6.819 0-13.528-4.839-13.528-14.793zm22.382 0c0-8.193-3.354-12.812-8.854-12.812-5.555 0-8.854 4.619-8.854 12.813 0 8.249 3.3 12.594 8.854 12.594 5.499 0 8.854-4.345 8.854-12.594zm41.798 12.264v1.76h-13.474v-1.76l4.675-.66.11-10.118v-5.499c0-5.72-1.65-7.59-5.17-7.59-2.694 0-5.499 1.155-9.019 4.399v8.689l.11 10.063 4.344.715v1.76h-13.418v-1.76l4.619-.66c.11-3.079.165-7.313.165-10.118v-3.024c0-3.465-.109-5.774-.22-8.359l-4.895-.385v-1.76l7.919-2.915.771.55.439 5.06c3.189-3.52 7.314-5.664 10.999-5.664 5.004 0 7.533 3.024 7.533 10.778v5.72c0 2.859.056 7.039.165 10.063z"/><use xlink:href="#H"/></g><g fill="#4472c4"><path d="M157.742 500.128c11.659 1.319 9.569 9.293 5.554 7.148-.935-2.42-3.739-5.169-6.104-6.654zm16.333-4.84l-7.864 24.032a18.88 18.88 0 0 0-.825 5.059c.055 2.53 1.595 4.895 1.485 9.459-.11 2.365-1.265 3.85-3.135 3.85-.99 0-1.705-.99-1.87-2.75.825-5.554.495-9.898-.77-10.724a4.56 4.56 0 0 0-2.64-.824v-1.21h2.365c.715 0 .88 0 1.375-1.155.99-2.034.99-2.034 10.833-26.012zm-12.209-7.369c12.099 2.035 9.734 10.174 5.719 7.81-.88-2.585-3.74-5.609-6.214-7.314zm41.08 12.648s2.805 2.255 4.619 3.904c-.165.605-.715.88-1.485.88h-21.502c-.88 2.75-2.255 6.874-3.355 9.789h17.213l2.035-2.145 4.125 3.409a3.13 3.13 0 0 1-2.145.825c-.935 9.568-3.08 16.442-5.774 18.587a9.5 9.5 0 0 1-6.104 1.87 3.01 3.01 0 0 0-.99-2.585 17.75 17.75 0 0 0-5.279-1.484v-.935l7.864.604a3.31 3.31 0 0 0 2.31-.66c1.76-1.265 3.52-7.479 4.399-15.838h-17.708l-1.814 1.87-3.959-3.135a12.3 12.3 0 0 1 2.419-1.1c1.045-2.694 2.31-6.6 3.025-9.074h-8.359l-.385-1.595h28.321zm-26.617-7.314l-.44-1.595h20.897l2.53-3.189s2.859 2.255 4.564 3.905c-.055.604-.66.879-1.43.879zm35.863 41.96c5.719-2.97 13.143-8.909 16.168-12.429l4.564 2.86c-.275.605-1.044.935-2.475.77a67.94 67.94 0 0 1-17.763 9.624zm44.929-19.798s3.079 2.42 5.004 4.234c-.11.605-.715.881-1.484.881h-21.502v15.893c0 .439-1.595 1.21-2.97 1.21h-.715V520.53h-21.887l-.439-1.596h22.327v-6.544l5.719.605c-.11.77-.66 1.319-2.035 1.484v4.454h15.233zm-43.444-20.896c10.173.385 8.084 7.424 4.509 5.499-.715-1.87-2.97-3.904-4.949-4.949zm3.189 11.713c.715 0 .88 0 1.595-.824 1.155-1.32 1.155-1.32 12.648-15.344l.825.44c-2.475 3.794-8.799 12.648-9.789 14.243a7.7 7.7 0 0 0-1.265 3.409c0 1.43 1.209 2.694 1.1 5.114 0 1.65-.935 2.585-2.75 2.585-.825 0-1.43-.66-1.65-1.705.495-3.739.22-5.554-.935-6.104-.775-.362-1.62-.55-2.475-.551v-1.265zm.275-18.422c10.449.329 8.964 7.589 5.389 5.938-1.43-2.302-3.465-4.166-5.884-5.389zm21.612 7.479a49.26 49.26 0 0 0 .11-8.084l6.104.495c-.165.935-.825 1.43-1.979 1.595a53.03 53.03 0 0 1-.44 5.994h5.169l1.979-2.145 3.905 3.52a3.01 3.01 0 0 1-1.925.77v11.494c0 .604.165.715 1.209.715h2.475c.99 0 1.924 0 2.31-.056.275 0 .495-.055.715-.55a54.66 54.66 0 0 0 1.375-6.269h.77l.165 6.434c1.045.44 1.21.88 1.21 1.54 0 1.43-1.485 2.09-6.764 2.09h-3.245c-3.189 0-3.685-.88-3.685-3.135v-12.759h-5.939c-1.485 7.645-5.719 14.188-17.213 17.818l-.44-.66c9.019-3.96 12.703-10.063 13.858-17.158h-8.634l-.495-1.649zm3.134 28.541c20.402 3.74 20.788 12.539 16.058 11.329-3.245-3.465-11.108-8.194-16.498-10.614zm76.064-24.527a3.49 3.49 0 0 1-2.31.935c-.77 18.258-2.75 31.236-5.774 34.535a8.37 8.37 0 0 1-6.709 2.64 2.92 2.92 0 0 0-1.1-2.64c-.88-.659-3.52-1.319-5.884-1.649l.055-1.045c2.695.33 7.149.771 8.414.771.947.083 1.886-.236 2.585-.881 2.475-2.199 4.179-15.178 5.004-32.226h-3.575c-2.419 14.354-8.304 26.672-20.567 34.976l-.604-.715c10.173-8.799 15.508-21.007 17.212-34.261h-4.125a44.08 44.08 0 0 1-16.772 24.802l-.605-.715a46.2 46.2 0 0 0 13.528-24.087h-4.894a31.78 31.78 0 0 1-8.414 9.569l-.77-.605a38.72 38.72 0 0 0 5.555-8.358c-.319.357-.789.541-1.265.495h-6.819v12.428l7.864-2.694.275.825-8.139 4.234v20.567c0 .494-1.485 1.319-2.805 1.319h-.715v-20.072l-6.27 3.08c-.141.617-.571 1.129-1.155 1.374l-2.089-4.619c1.925-.439 5.389-1.484 9.514-2.859v-13.583h-4.399a35.25 35.25 0 0 1-4.399 9.129l-.825-.495a72.44 72.44 0 0 0 4.015-18.973l5.224.989a1.87 1.87 0 0 1-1.924 1.32 63.69 63.69 0 0 1-1.595 6.379h3.905v-12.098l5.444.659c-.165.771-.605 1.32-1.925 1.54v9.898h1.43l2.475-3.189s2.695 2.31 4.345 3.96v.055a56.75 56.75 0 0 0 4.399-12.923l5.609 1.649c-.275.715-.935 1.154-2.145 1.154a45.45 45.45 0 0 1-3.52 8.305h18.972l2.035-2.42z"/></g><g fill="#4472c4"><path d="M370.365 515.141c-.11.77-.604 1.265-1.979 1.484v19.248c0 .439-1.54 1.21-2.86 1.21h-.66v-4.345h-34.7l-1.43 2.255-4.069-2.915a7.57 7.57 0 0 1 1.595-1.21v-16.662l5.774.55c-.11.659-.605 1.154-2.255 1.374v14.959h15.563v-21.228h-12.538l-1.375 2.09-4.069-2.75a7.58 7.58 0 0 1 1.595-1.21v-15.727l5.774.495c-.11.659-.605 1.154-2.31 1.375v14.078h12.923V487.48l5.609.605c-.165.77-.605 1.32-1.98 1.54v18.588h13.198v-15.894l5.5.605c-.11.715-.66 1.21-1.98 1.43v17.213c0 .385-1.54 1.154-2.859 1.154h-.66v-2.859h-13.198v21.228h15.893v-16.554zm7.321-14.958c11.604 1.319 9.569 9.294 5.555 7.094-.935-2.364-3.74-5.114-6.104-6.599zm16.058-1.045l-8.029 20.732a14.66 14.66 0 0 0-.825 4.619c0 2.364 1.595 4.949 1.375 9.349-.11 2.365-1.21 3.85-3.08 3.85-.99 0-1.65-1.045-1.815-2.805.77-5.609.495-9.898-.77-10.669a4.89 4.89 0 0 0-2.695-.824v-1.21h2.475c.66 0 .825 0 1.43-1.1 1.045-1.815 1.045-1.815 10.999-22.272zm-11.934-11.164c11.989 2.035 9.569 10.229 5.609 7.755-.825-2.585-3.685-5.609-6.104-7.314zm14.188 24.143l5.224.55c-.165.66-.55 1.21-1.87 1.375v5.059c-.055 6.215-1.595 14.134-10.449 18.753l-.715-.715c6.599-4.84 7.809-12.099 7.809-18.147zm-4.015-16.883h9.734a68.04 68.04 0 0 0 3.849-8.084l5.719 2.475a1.93 1.93 0 0 1-2.089.88c-.825 1.43-1.87 3.024-3.08 4.729h13.913l2.529-3.3s2.97 2.31 4.729 4.015c-.203.599-.804.968-1.43.88h-20.952a83.79 83.79 0 0 1-8.634 9.898c4.949-.274 12.758-.88 21.117-1.54a24.56 24.56 0 0 0-4.455-4.234l.55-.55c13.528 4.29 11.329 13.033 7.259 10.559a13.34 13.34 0 0 0-2.475-4.674c-5.444 1.044-13.528 2.364-22.602 3.794a3.07 3.07 0 0 1-1.265 1.265l-1.76-4.344c.469-.133.914-.337 1.32-.605a56.95 56.95 0 0 0 6.874-9.568h-8.414zm13.473 16.827l5.279.605c-.055.715-.605 1.265-1.925 1.43v21.063c0 .439-1.485 1.154-2.694 1.154h-.66zm21.227 21.228c1.1.385 1.595.66 1.595 1.32 0 1.43-1.485 1.924-6.6 1.924h-2.969c-3.135 0-3.629-.88-3.629-3.189v-21.337l5.004.55c-.11.715-.604 1.21-1.649 1.43v18.533c0 .77.11.989 1.155.989h4.729l1.65-.274h.55z"/></g><g fill="#4472c4"><path d="M442.751 506.397c9.734 4.784 6.874 11.054 3.739 8.579a22.54 22.54 0 0 0-3.739-7.314v28.486c0 .495-1.485 1.32-2.64 1.32h-.715v-25.517a45.4 45.4 0 0 1-7.039 12.813l-.825-.771c3.63-6.214 5.884-14.187 7.039-22.162h-5.884l-.439-1.649h7.149v-13.198l5.334.66c-.165.77-.605 1.319-1.979 1.539v10.999h1.265l2.255-3.024s2.64 2.199 4.179 3.794c-.11.605-.604.88-1.375.88h-6.324zm5.004 28.816a33.26 33.26 0 0 0 8.469-11.219l5.06 2.53c-.275.55-.715.824-1.98.604a34.05 34.05 0 0 1-10.943 8.799zm1.87-43.004l-.44-1.65h26.122l2.53-3.079a56.01 56.01 0 0 1 4.509 3.85c-.11.604-.66.88-1.375.88h-9.954v5.664h4.62l1.924-2.035 4.29 3.189a4.51 4.51 0 0 1-2.365 1.101v9.953c-.055.33-1.705 1.1-2.805 1.1h-.495v-1.814h-21.392v1.98c0 .33-1.43.99-2.695.99h-.495V496.28l3.52 1.595h4.894v-5.664zm28.651 25.352s2.804 2.145 4.619 3.739c-.165.604-.715.88-1.485.88h-14.133v14.463c0 .22-1.21.88-2.97.88h-.55V522.18H449.9l-.44-1.595h26.396zm-3.575-6.435s2.805 2.09 4.509 3.685a1.25 1.25 0 0 1-1.375.88H453.2l-.385-1.649h19.467zm-19.907-3.409h5.224v-8.249h-5.224zm13.198-15.508h-4.949v5.664h4.949zm-4.949 15.508h4.949v-8.249h-4.949zm7.919 17.322c13.748 4.125 11.768 12.538 7.754 10.174-1.1-3.3-5.114-7.314-8.304-9.624zm.055-25.571v8.249h5.169v-8.249zm16.505-5.059c10.613 1.155 8.414 8.359 4.784 6.435-1.183-2.425-3.009-4.48-5.279-5.939zm44.819 25.736l5.114 4.18c-.165.604-.715.88-1.485.88h-21.832v11.164c0 .439-1.65 1.209-2.915 1.209h-.715v-12.373h-22.657l-.495-1.649h23.152v-5.225l5.169.55c-.11.605-.495 1.045-1.54 1.265v3.41h15.453zm-41.519-11.658c.66 0 .825 0 1.485-.935 1.155-1.375 1.155-1.375 10.668-15.068l.99.385-8.139 14.078c-.611 1.122-.985 2.357-1.1 3.63.055 1.814 1.32 3.904 1.155 7.259-.11 1.98-.99 3.135-2.64 3.135-.88 0-1.43-.825-1.54-2.31.55-4.784.275-7.645-.935-8.249a5.51 5.51 0 0 0-2.53-.715v-1.21zm1.32-21.062c10.833 1.54 8.634 8.854 4.949 6.819a16.24 16.24 0 0 0-5.499-6.324zm6.434 17.983c3.52-4.345 6.929-11.329 8.854-18.533l5.389 1.815a1.96 1.96 0 0 1-2.035 1.044 42.69 42.69 0 0 1-2.2 4.51h11.658a2.21 2.21 0 0 1-.88-.439c-.716-2.475-2.106-4.703-4.014-6.435l.605-.439c7.809 1.869 7.534 6.653 5.334 7.313h8.304l2.53-3.079s2.859 2.145 4.674 3.849c-.165.605-.715.881-1.485.881h-13.528v4.949h6.379l2.365-2.915s2.64 2.09 4.345 3.685c-.165.604-.66.88-1.43.88h-11.658v5.225h6.599l2.31-2.97s2.695 2.09 4.345 3.685c-.165.605-.66.88-1.43.88h-11.823v5.334h8.634l2.53-3.135s2.805 2.255 4.619 3.904c-.165.605-.66.88-1.43.88H507.87v1.76c0 .275-1.155 1.21-2.915 1.21h-.55v-18.532a30.51 30.51 0 0 1-5.059 5.225zm19.743-9.514H507.87v4.949h10.449zm0 6.599H507.87v5.225h10.449zm0 6.819H507.87v5.334h10.449zm24.093-9.02c11.274 1.21 9.019 8.909 5.115 6.71-.825-2.255-3.355-4.84-5.609-6.215zm14.133-2.914l-6.434 21.997a25.1 25.1 0 0 0-.715 4.839c.055 2.53 1.65 5.06 1.43 9.569-.11 2.364-1.155 3.739-3.024 3.739-.99 0-1.65-.935-1.76-2.694.77-5.499.44-9.899-.715-10.724a4.56 4.56 0 0 0-2.64-.77v-1.209h2.365c.605 0 .825-.056 1.32-1.21.88-1.87.88-1.87 9.129-23.757zm-10.503-9.789c11.878 1.705 9.679 9.624 5.664 7.424-.88-2.529-3.794-5.334-6.214-6.874zm42.949 38.33c-.44.385-.99.495-1.98.11a36.4 36.4 0 0 1-6.434 2.529 27.68 27.68 0 0 0 11.988 5.005l-.055.604a3.72 3.72 0 0 0-2.805 2.97c-7.919-2.529-13.253-7.314-16.278-14.903h-5.554v10.834l8.524-3.08.33.771-9.898 6.049a3.11 3.11 0 0 1-1.265 1.375l-1.924-3.904c.99-.605 1.1-.88 1.1-1.65v-10.394h-3.794c-.33 5.279-1.705 11.219-7.314 15.453l-.715-.66c4.454-5.444 4.894-12.099 4.894-18.312v-9.898l1.1.495V491.55l3.464 1.54h5.334v-5.885l4.894.605c-.055.715-.604 1.209-1.87 1.374v3.905h5.444v-5.885l4.895.605c-.055.715-.605 1.209-1.87 1.374v3.905h4.674l1.924-2.035 4.125 3.244a3.93 3.93 0 0 1-2.31 1.045v12.318c0 .056-.11.165-.22.275.77.55 2.804 2.035 4.289 3.3-.165.604-.66.88-1.43.88h-29.201v3.52h20.732l2.365-2.695s2.75 1.925 4.454 3.465c-.11.605-.66.88-1.43.88h-26.122v3.3h24.252l2.365-2.695a50.63 50.63 0 0 1 4.509 3.465c-.11.605-.66.88-1.43.88h-16.003a24.68 24.68 0 0 0 4.344 5.279 58.95 58.95 0 0 0 6.104-5.114zM562.1 508.541c-.653.63-1.513 1.001-2.419 1.045l2.035.88h22.932l1.815-2.09a3.68 3.68 0 0 1-1.54.33h-.495v-1.76H562.1zm0-13.803v4.345h5.609v-4.345zm0 10.559h5.609v-4.619H562.1zm8.634-10.559v4.345h5.444v-4.345zm0 10.559h5.444v-4.619h-5.444zm8.469-10.559v4.345h5.224v-4.345zm0 10.559h5.224v-4.619h-5.224zm26.898 2.86c0 9.129-.55 21.228-8.524 29.586l-.88-.604c5.279-8.469 5.83-19.083 5.83-28.926v-15.674l4.234 1.815h32.996l2.694-3.41s3.025 2.365 4.839 4.125c-.11.604-.66.88-1.375.88H606.1zm34.096 11.603c-.495.44-1.1.605-2.53.66-2.536 3.578-5.75 6.623-9.459 8.964 5.5 2.31 12.264 3.629 19.797 4.234l-.055.66a3.93 3.93 0 0 0-3.08 3.189c-7.974-1.155-14.518-3.08-19.687-6.27-6.049 3.135-13.473 5.225-22.217 6.27l-.385-.88c7.064-1.268 13.879-3.664 20.183-7.095a27.05 27.05 0 0 1-7.699-9.568h-4.344l-.495-1.649h23.482l2.64-2.145zm-9.074-3.85v-2.419H619.3v1.924c0 .386-1.54 1.101-2.805 1.101h-.66v-11.329h-7.974l-.44-1.595h8.414v-6.049l5.444.55c-.11.77-.605 1.265-1.98 1.484v4.015h11.823v-6.049l5.5.55c-.11.77-.605 1.265-1.98 1.484v4.015h4.51l2.419-3.244s2.805 2.31 4.399 3.959c-.055.605-.605.88-1.375.88h-9.954v9.569c0 .385-1.54 1.154-2.804 1.154zm-14.683 4.015a23.28 23.28 0 0 0 8.799 7.974c3.228-2.075 5.998-4.789 8.139-7.974zm3.08-33.436c10.999 1.925 8.359 9.349 4.509 7.039a19.31 19.31 0 0 0-5.06-6.599zm11.603 25.352v-6.654H619.3v6.654z"/></g><g fill="#4472c4"><path d="M682.463 542.885l-1.155.935c-8.304-8.304-12.208-17.433-12.208-28.431s3.905-20.183 12.208-28.486l1.155.989c-7.204 10.449-9.294 17.543-9.294 27.497 0 9.898 2.145 17.103 9.294 27.496z"/><use xlink:href="#I"/><use xlink:href="#J"/><path d="M779.317 530.017c-1.684 1.848-4.101 2.855-6.599 2.749-4.179 0-6.489-2.254-6.489-6.929l.055-4.784V506.26h-5.389v-2.035l5.609-.66 1.32-8.139h3.024l-.33 8.304h8.249v2.53h-8.304v19.357c0 3.244 1.32 4.619 3.574 4.619a6.89 6.89 0 0 0 4.18-1.595z"/><use xlink:href="#K"/><path d="M804.838 517.534c.055 8.139 4.344 12.153 10.173 12.153a10.57 10.57 0 0 0 8.634-4.29l1.155.881a12.34 12.34 0 0 1-11.163 6.488c-7.699 0-13.253-5.334-13.253-14.737 0-9.185 6.214-15.068 13.473-15.068 6.379 0 10.999 4.345 10.999 11.219.045 1.149-.085 2.299-.385 3.409zm12.923-2.09c2.42 0 2.97-1.21 2.97-2.97a7.17 7.17 0 0 0-7.149-7.313c-4.015 0-8.029 3.299-8.689 10.283zm29.04 14.573c-1.684 1.848-4.101 2.855-6.599 2.749-4.179 0-6.489-2.254-6.489-6.929l.055-4.784V506.26h-5.389v-2.035l5.609-.66 1.32-8.139h3.024l-.33 8.304h8.249v2.53h-8.304v19.357c0 3.244 1.32 4.619 3.574 4.619a6.89 6.89 0 0 0 4.18-1.595z"/><use xlink:href="#L"/><use xlink:href="#M"/><use xlink:href="#N"/><use xlink:href="#O"/><path d="M1004.594 517.534c.056 8.139 4.345 12.153 10.173 12.153a10.57 10.57 0 0 0 8.634-4.29l1.155.881a12.34 12.34 0 0 1-11.164 6.488c-7.699 0-13.252-5.334-13.252-14.737 0-9.185 6.214-15.068 13.473-15.068 6.379 0 10.998 4.345 10.998 11.219a11.41 11.41 0 0 1-.385 3.409zm12.923-2.09c2.419 0 2.97-1.21 2.97-2.97a7.17 7.17 0 0 0-7.149-7.313c-4.014 0-8.029 3.299-8.688 10.283zm44.329 14.793v1.76h-13.474v-1.76l4.675-.66.11-10.118v-5.499c0-5.72-1.65-7.59-5.17-7.59-2.694 0-5.499 1.155-9.019 4.399v8.689l.11 10.063 4.344.715v1.76h-13.418v-1.76l4.619-.66c.11-3.079.165-7.313.165-10.118v-3.024c0-3.465-.109-5.774-.22-8.359l-4.895-.385v-1.76l7.919-2.915.771.55.439 5.06c3.189-3.52 7.314-5.664 10.999-5.664 5.004 0 7.533 3.024 7.533 10.778v5.72c0 2.859.056 7.039.165 10.063zm20.681-.22c-1.684 1.848-4.101 2.855-6.599 2.749-4.18 0-6.489-2.254-6.489-6.929l.055-4.784V506.26h-5.39v-2.035l5.609-.66 1.32-8.139h3.024l-.33 8.304h8.249v2.53h-8.304v19.357c0 3.244 1.319 4.619 3.574 4.619a6.89 6.89 0 0 0 4.18-1.595z"/><use xlink:href="#P"/><path d="M1137.14 529.907a5.39 5.39 0 0 1-4.784 2.75c-2.805 0-4.564-1.87-5.06-4.895-3.354 3.409-5.554 5.004-9.129 5.004-4.399 0-7.919-2.529-7.919-7.259 0-3.685 2.145-6.379 9.624-9.073 2.145-.66 4.784-1.431 7.313-1.98v-1.76c0-6.049-1.814-7.533-5.994-7.533-1.308-.021-2.61.183-3.849.604l-1.21 4.069c-.44 1.595-1.266 2.42-2.695 2.42a2.21 2.21 0 0 1-2.419-2.09c1.154-4.51 5.444-7.204 11.273-7.204 6.104 0 9.073 2.75 9.073 9.898v13.033c0 3.189.88 4.18 2.365 4.18a3.22 3.22 0 0 0 2.475-1.319zm-9.954-13.693a58.82 58.82 0 0 0-6.158 1.98c-5.335 2.034-6.324 4.344-6.324 6.544 0 3.3 2.089 4.784 5.059 4.784 2.31 0 3.904-.99 7.424-3.795zm29.589 13.803c-1.684 1.848-4.101 2.855-6.599 2.749-4.18 0-6.489-2.254-6.489-6.929l.055-4.784V506.26h-5.39v-2.035l5.609-.66 1.32-8.139h3.024l-.33 8.304h8.249v2.53h-8.304v19.357c0 3.244 1.319 4.619 3.574 4.619a6.89 6.89 0 0 0 4.18-1.595zm16.116.22v1.76h-13.418v-1.76l4.729-.715.109-10.063v-3.08l-.109-8.358-5.06-.33v-1.814l8.634-2.86.825.55-.165 7.81v8.084l.109 10.063zm-10.118-38.055c.075-1.874 1.616-3.355 3.492-3.355s3.417 1.481 3.492 3.355c-.075 1.874-1.616 3.355-3.492 3.355s-3.417-1.481-3.492-3.355zm15.124 25.791c0-10.009 6.709-15.013 13.528-15.013 6.654 0 13.473 5.004 13.473 15.013 0 9.954-6.709 14.793-13.473 14.793-6.819 0-13.528-4.839-13.528-14.793zm22.382 0c0-8.193-3.354-12.812-8.854-12.812-5.555 0-8.854 4.619-8.854 12.813 0 8.249 3.299 12.594 8.854 12.594 5.499 0 8.854-4.345 8.854-12.594zm41.798 12.264v1.76h-13.474v-1.76l4.675-.66.11-10.118v-5.499c0-5.72-1.65-7.59-5.17-7.59-2.694 0-5.499 1.155-9.019 4.399v8.689l.11 10.063 4.344.715v1.76h-13.418v-1.76l4.619-.66c.11-3.079.165-7.313.165-10.118v-3.024c0-3.465-.109-5.774-.22-8.359l-4.895-.385v-1.76l7.919-2.915.771.55.439 5.06c3.189-3.52 7.314-5.664 10.999-5.664 5.004 0 7.533 3.024 7.533 10.778v5.72c0 2.859.056 7.039.165 10.063zm2.645-42.345l1.154-.989c8.304 8.304 12.209 17.487 12.209 28.486s-3.905 20.127-12.209 28.431l-1.154-.935c7.204-10.449 9.294-17.598 9.294-27.496 0-9.954-2.146-17.104-9.294-27.497z"/></g></g><path d="M1460.383 628.234l-.191-3.509-.653-3.592-2.313-6.811-3.666-6.366-4.683-5.71-5.524-4.818-6.223-3.721-3.315-1.365-3.362-1.034-3.449-.651-3.45-.192-3.375-.187.149.018-3.312-.625.125.031-3.25-1 .099.036-3.187-1.312.152.076-6.062-3.625.165.12-5.375-4.687.133.137-4.562-5.562.107.155-1.214-2.108-1.986 1.143 1.261 2.19 4.683 5.71 5.524 4.818 6.223 3.721 3.315 1.365 3.362 1.034 3.449.651 3.45.192 3.375.188-.149-.018 3.313.625-.125-.031 3.25 1-.099-.036 3.188 1.313-.152-.076 6.063 3.625-.165-.12 5.375 4.688-.133-.137 4.562 5.563-.107-.155 3.563 6.188-.092-.203 2.25 6.625-.042-.164.625 3.438-.017-.143.188 3.438zM1393.15 572.5l15.843 4.7-21.254-22.217-5.021 30.333z" fill="red"/><g class="F"><g fill="red"><path d="M1452.706 676.302a5.38 5.38 0 0 1-2.859.989h-.495v-3.629h-6.929v5.773c0 .33-1.101 1.21-2.805 1.21h-.495v-21.887c-1.208 2.143-2.588 4.184-4.125 6.104l-.77-.66c4.069-7.094 6.379-16.113 7.589-25.187h-6.874l-.385-1.65h15.068l2.529-3.079s2.805 2.199 4.619 3.85c-.165.604-.66.88-1.43.88h-9.733a67.31 67.31 0 0 1-3.685 13.748l1.154.495h5.72l1.869-2.145 4.29 3.244a4.1 4.1 0 0 1-2.255 1.1zm-3.354-4.29v-17.213h-6.929v17.213zm33.931-16.277c-.619.503-1.404.758-2.2.715a41.44 41.44 0 0 1-7.974 15.838c3.681 3.418 8.077 5.972 12.868 7.479l-.11.551c-1.702.2-3.125 1.386-3.629 3.024-4.433-1.922-8.352-4.861-11.438-8.579a38.16 38.16 0 0 1-14.793 8.634l-.55-.825a36.75 36.75 0 0 0 13.692-10.009c-2.969-4.399-4.949-9.898-6.104-16.662h-2.2v1.43c0 8.744-.77 19.027-9.184 25.847l-.825-.605c5.939-7.039 6.654-16.003 6.654-25.187v-16.937l4.015 1.76h7.039v-9.129l5.334.604c-.109.771-.659 1.32-2.034 1.54v6.984h7.259l2.255-2.31 4.234 4.069c-.44.385-.99.439-2.035.55a34.44 34.44 0 0 1-5.279 6.104l-.715-.44c.722-2.073 1.328-4.184 1.815-6.324h-7.534v10.449h5.169l2.31-2.2zm-22.437-1.43h7.699v-10.449h-7.699zm3.354 1.595a33.91 33.91 0 0 0 6.874 14.188 41.67 41.67 0 0 0 6.159-14.187zm73.587 4.949c-.11.77-.604 1.265-1.979 1.484v19.248c0 .439-1.54 1.21-2.86 1.21h-.659v-4.345h-34.7l-1.431 2.255-4.069-2.915a7.58 7.58 0 0 1 1.595-1.21v-16.662l5.774.55c-.109.659-.604 1.154-2.255 1.374v14.959h15.563V655.57h-12.538l-1.375 2.09-4.069-2.75a7.56 7.56 0 0 1 1.595-1.21v-15.727l5.773.495c-.109.659-.604 1.154-2.31 1.375v14.078h12.924v-20.732l5.609.604c-.165.771-.605 1.32-1.98 1.54v18.588h13.198v-15.894l5.5.605c-.11.715-.66 1.21-1.98 1.43v17.213c0 .385-1.539 1.154-2.859 1.154h-.66v-2.859h-13.198v21.228h15.894v-16.554z"/></g><g><path d="M1549.123 670.802c1.265 5.114.385 9.02-1.045 10.834-.88 1.21-2.805 1.649-3.685.44-.66-.99-.11-2.255.935-3.135 1.796-2.335 2.781-5.193 2.805-8.14zm16.772-6.379c1.378 1.068 2.699 2.206 3.96 3.41-.165.604-.605.88-1.375.88h-23.702l-.385-1.65h11.273v-6.929h-9.238l-.44-1.65h9.679v-5.499h-5.774v1.32c0 .33-1.43 1.1-2.64 1.1h-.55v-20.952l3.465 1.595h13.803l1.76-1.925 3.96 3.024c-.551.545-1.266.894-2.035.99v15.343c-.055.33-1.649 1.1-2.749 1.1h-.44v-1.595h-5.499v5.499h3.85l2.09-2.529a48.01 48.01 0 0 1 3.849 3.3c-.109.604-.604.88-1.374.88h-8.414v6.929h4.729zm-16.003-13.088h5.994v-13.693h-5.994zm1.21-11.769c5.994 6.049 3.465 10.834 1.43 8.634-.243-2.893-.987-5.721-2.199-8.358zm2.09 31.456c6.049 7.039 2.199 13.253-.22 10.173.509-3.344.284-6.759-.66-10.008zm4.675-.33c8.028 6.104 4.674 12.593 1.924 9.733.11-2.97-1.319-6.929-2.584-9.403zm.824-33.051v13.693h5.774v-9.404a1.5 1.5 0 0 1-.88.11c-1.069 2.442-2.262 4.829-3.574 7.149l-.771-.275c.815-3.063 1.476-6.165 1.98-9.294l3.244 1.155v-3.135zm4.949 32.886c9.02 5.554 5.829 12.483 2.97 9.624-.055-2.97-1.925-6.874-3.685-9.294zm19.522-23.207v11.823h5.885l1.814-2.09 3.96 3.08a3.21 3.21 0 0 1-2.09.935v20.513c0 .274-1.375 1.1-2.97 1.1h-.55v-3.355h-14.354v2.75c0 .274-1.154 1.1-2.859 1.1h-.55v-25.792l4.069 1.76h4.18v-25.847l5.499.605c-.165.77-.66 1.319-2.035 1.539v10.229h5.72l2.199-2.86c1.462 1.128 2.858 2.34 4.18 3.63-.15.587-.719.967-1.319.88zm-8.304 13.474v16.882h14.354v-16.882z" fill="red"/></g><g fill="red"><path d="M1629.885 689.885l-1.155.935c-8.304-8.304-12.208-17.433-12.208-28.431s3.904-20.183 12.208-28.486l1.155.989c-7.205 10.449-9.295 17.543-9.295 27.497 0 9.898 2.146 17.103 9.295 27.496zm20.954-50.978c8.358 0 12.923 3.904 12.923 9.679 0 4.29-2.75 8.084-9.403 9.514 8.028 1.045 11.438 5.005 11.438 10.009 0 5.555-4.455 10.889-15.344 10.889h-16.168v-1.98l5.721-.605c.164-5.279.164-10.613.164-16.003v-3.024l-.164-15.947-5.721-.605v-1.925zm-5.939 2.255c-.165 5.169-.165 10.448-.165 15.948h3.465c7.479 0 10.943-2.75 10.943-8.359 0-5.334-3.08-7.589-9.789-7.589zm4.454 35.58c7.645 0 11.549-3.079 11.549-8.634 0-5.719-3.74-8.799-12.318-8.799h-3.85l.165 17.433zm30.58-18.973c1.98-4.839 5.5-7.809 8.965-7.809 1.76 0 3.574.77 4.18 1.98 0 2.365-.936 3.74-3.08 3.74a5.33 5.33 0 0 1-3.52-1.596l-.77-.659c-2.585 1.704-4.345 4.234-5.72 8.028v5.005l.11 10.063 5.059.715v1.76h-14.023v-1.76l4.51-.66a322.42 322.42 0 0 0 .166-10.118v-3.024c0-3.52-.111-5.774-.221-8.359l-4.895-.385v-1.76l7.919-2.915.771.55zm20.076 6.765c.055 8.139 4.345 12.153 10.174 12.153a10.57 10.57 0 0 0 8.634-4.29l1.155.881a12.34 12.34 0 0 1-11.164 6.488c-7.699 0-13.253-5.334-13.253-14.737 0-9.185 6.214-15.068 13.474-15.068 6.379 0 10.998 4.345 10.998 11.219a11.38 11.38 0 0 1-.385 3.409zm12.924-2.09c2.42 0 2.969-1.21 2.969-2.97a7.17 7.17 0 0 0-2.04-5.156c-1.344-1.375-3.185-2.153-5.108-2.157-4.015 0-8.029 3.299-8.689 10.283zm39.379 14.463c-.97 1.725-2.806 2.781-4.785 2.75-2.805 0-4.564-1.87-5.059-4.895-3.355 3.409-5.555 5.004-9.129 5.004-4.4 0-7.92-2.529-7.92-7.259 0-3.685 2.146-6.379 9.625-9.073 2.145-.66 4.783-1.431 7.313-1.98v-1.76c0-6.049-1.815-7.533-5.994-7.533a11.37 11.37 0 0 0-3.85.604l-1.21 4.069c-.439 1.595-1.265 2.42-2.694 2.42a2.21 2.21 0 0 1-2.42-2.09c1.155-4.51 5.444-7.204 11.273-7.204 6.104 0 9.073 2.75 9.073 9.898v13.033c0 3.189.881 4.18 2.365 4.18a3.22 3.22 0 0 0 2.475-1.319zm-9.954-13.693c-2.088.547-4.144 1.208-6.159 1.98-5.334 2.034-6.324 4.344-6.324 6.544 0 3.3 2.09 4.784 5.06 4.784 2.31 0 3.904-.99 7.424-3.795zm43.062 14.023v1.76h-7.589l-9.568-15.398-4.289 4.345.109 8.579 4.784.715v1.76h-14.133v-1.76l4.949-.715.11-10.063v-27.387l-5.005-.439v-1.705l8.524-2.31.824.495-.164 8.469v21.447l11.107-11.494-4.839-.88v-1.925h13.692v1.925l-5.554.715-7.204 7.26 10.174 16.058zm27.558-14.463l.164 13.638 5.885.605v1.98h-16.498v-1.98l5.719-.605c.166-5.224.166-10.559.166-15.947v-3.024l-.166-16.003-5.719-.605v-1.925h15.838c9.734 0 14.573 4.675 14.573 11.769 0 6.765-4.675 12.099-16.497 12.099zm.164-21.612c-.164 5.279-.164 10.724-.164 16.278v3.134h3.959c8.084 0 11.164-4.069 11.164-9.898 0-6.105-3.189-9.514-10.613-9.514zm23.211 23.811c0-10.009 6.709-15.013 13.528-15.013 6.654 0 13.473 5.004 13.473 15.013 0 9.954-6.709 14.793-13.473 14.793-6.819 0-13.528-4.839-13.528-14.793zm22.382 0c0-8.193-3.354-12.812-8.854-12.812-5.555 0-8.854 4.619-8.854 12.813 0 8.249 3.299 12.594 8.854 12.594 5.499 0 8.854-4.345 8.854-12.594zm23.157 12.264v1.76h-13.418v-1.76l4.729-.715.111-10.063v-3.08l-.111-8.358-5.059-.33v-1.814l8.634-2.86.825.55-.166 7.81v8.084l.111 10.063zm-10.119-38.055c.075-1.874 1.617-3.355 3.492-3.355s3.417 1.481 3.492 3.355c-.075 1.874-1.617 3.355-3.492 3.355s-3.417-1.481-3.492-3.355zm46.636 38.055v1.76h-13.474v-1.76l4.675-.66.109-10.118v-5.499c0-5.72-1.65-7.59-5.17-7.59-2.693 0-5.498 1.155-9.018 4.399v8.689l.109 10.063 4.345.715v1.76h-13.419v-1.76l4.62-.66c.11-3.079.165-7.313.165-10.118v-3.024c0-3.465-.11-5.774-.221-8.359l-4.895-.385v-1.76l7.92-2.915.77.55.439 5.06c3.189-3.52 7.314-5.664 10.999-5.664 5.005 0 7.534 3.024 7.534 10.778v5.72c0 2.859.055 7.039.164 10.063zm20.682-.22a8.45 8.45 0 0 1-6.6 2.749c-4.18 0-6.488-2.254-6.488-6.929l.055-4.784V653.26h-5.391v-2.035l5.609-.66 1.32-8.139h3.025l-.33 8.304h8.248v2.53h-8.303v19.357c0 3.244 1.318 4.619 3.574 4.619a6.89 6.89 0 0 0 4.18-1.595zm1.982-42.125l1.154-.989c8.305 8.304 12.209 17.487 12.209 28.486s-3.904 20.127-12.209 28.431l-1.154-.935c7.203-10.449 9.293-17.598 9.293-27.496 0-9.954-2.145-17.104-9.293-27.497z"/></g><g><path d="M492.026 296.302c-.839.596-1.831.94-2.859.989h-.495v-3.629h-6.929v5.773c0 .33-1.1 1.21-2.805 1.21h-.495v-21.887c-1.208 2.143-2.588 4.184-4.125 6.104l-.77-.66c4.07-7.094 6.379-16.113 7.589-25.187h-6.874l-.385-1.65h15.068l2.529-3.079s2.805 2.199 4.62 3.85c-.165.604-.66.88-1.43.88h-9.733a67.28 67.28 0 0 1-3.685 13.748l1.155.495h5.719l1.87-2.145 4.29 3.244a4.1 4.1 0 0 1-2.255 1.1zm-3.354-4.29v-17.213h-6.929v17.213zm33.931-16.277c-.619.503-1.403.758-2.2.715a41.45 41.45 0 0 1-7.974 15.838c3.681 3.418 8.077 5.972 12.869 7.479l-.11.551c-1.702.2-3.126 1.386-3.629 3.024-4.433-1.922-8.352-4.861-11.438-8.579-4.213 3.962-9.272 6.914-14.793 8.634l-.55-.825c5.282-2.223 9.971-5.651 13.693-10.009-2.969-4.399-4.949-9.898-6.104-16.662h-2.2v1.43c0 8.744-.77 19.027-9.184 25.847l-.825-.605c5.939-7.039 6.654-16.003 6.654-25.187v-16.937l4.014 1.76h7.039v-9.129l5.334.604c-.11.771-.66 1.32-2.035 1.54v6.984h7.259l2.255-2.31 4.234 4.069c-.44.385-.99.439-2.035.55a34.46 34.46 0 0 1-5.279 6.104l-.715-.44c.721-2.073 1.327-4.184 1.815-6.324h-7.534v10.449h5.169l2.31-2.2zm-22.437-1.43h7.699v-10.449h-7.699zm3.354 1.595a33.91 33.91 0 0 0 6.874 14.188 41.68 41.68 0 0 0 6.159-14.187z"/></g><g><path d="M577.107 280.848c-.11.77-.605 1.265-1.98 1.484v19.248c0 .439-1.54 1.21-2.86 1.21h-.66v-4.345h-34.7l-1.43 2.255-4.069-2.915a7.57 7.57 0 0 1 1.595-1.21v-16.662l5.774.55c-.11.659-.605 1.154-2.255 1.374v14.959h15.563v-21.228h-12.538l-1.375 2.09-4.069-2.75a7.57 7.57 0 0 1 1.595-1.21V257.97l5.774.495c-.11.659-.605 1.154-2.31 1.375v14.078h12.923v-20.732l5.609.604c-.165.771-.605 1.32-1.98 1.54v18.588h13.198v-15.894l5.5.605c-.11.715-.66 1.21-1.98 1.43v17.213c0 .385-1.54 1.154-2.859 1.154h-.66v-2.859h-13.198v21.228h15.893v-16.554zm55.55-14.132a4.3 4.3 0 0 1-2.365 1.1v33.71c-.055.386-1.76 1.32-3.025 1.32h-.55v-3.85h-35.855v2.805c0 .495-1.32 1.375-2.915 1.375h-.605V263.69l3.904 1.815h9.129v-12.099l5.499.604c-.165.825-.605 1.375-1.979 1.595v9.899h9.514v-12.099l5.499.604c-.165.825-.604 1.375-1.979 1.595v9.899h9.239l2.09-2.255zm-41.794.439v13.858h9.514v-13.858zm0 30.191h9.514v-14.684h-9.514zm13.033-30.191v13.858h9.514v-13.858zm0 15.508v14.684h9.514v-14.684zm13.033-15.508v13.858h9.789v-13.858zm9.789 30.191v-14.684h-9.789v14.684zm16.78-9.128c1.485 5.389.605 9.514-.77 11.383-.88 1.155-2.75 1.705-3.52.66-.66-.935-.165-2.145.825-3.024 1.43-1.595 2.75-5.609 2.475-9.019zm-4.125-6.654a6.32 6.32 0 0 0 1.43-.55 59.01 59.01 0 0 0 8.249-10.229c-1.815.55-3.959 1.1-6.214 1.595-.276.597-.767 1.068-1.375 1.319l-1.815-4.784a3.14 3.14 0 0 0 1.265-.495c3.135-3.244 6.984-11.054 8.359-15.232l5.004 2.529a1.91 1.91 0 0 1-1.979.825 70.1 70.1 0 0 1-9.404 12.483c2.035.055 4.619.055 7.204 0 1.152-1.865 2.198-3.793 3.134-5.774l4.62 3.189a2.01 2.01 0 0 1-2.035.55 77.99 77.99 0 0 1-12.979 14.684l10.833-.771a25.25 25.25 0 0 0-2.529-5.884l.715-.33c8.359 6.159 5.279 12.703 2.529 9.953a13.99 13.99 0 0 0-.33-2.419c-3.025.824-7.259 1.979-11.659 2.97-.328.492-.812.86-1.375 1.045zm8.909 5.609c5.994 7.204 2.145 13.473-.33 10.394a25.93 25.93 0 0 0-.495-10.174zm4.949-.935c7.864 5.279 4.62 11.548 1.925 8.908a20.31 20.31 0 0 0-2.64-8.634zm34.206-3.355c-.53.548-1.358.682-2.035.33-2.114 1.642-4.317 3.165-6.599 4.564a29.89 29.89 0 0 0 10.449 8.469l-.11.551c-1.42.295-2.537 1.39-2.86 2.804-5.334-3.904-9.458-8.964-11.878-17.763v16.113c0 2.805-.66 4.84-5.389 5.334.068-.965-.294-1.911-.99-2.584a9.46 9.46 0 0 0-4.399-1.375v-.825l6.214.385c.935 0 1.21-.274 1.21-.989v-14.189a2.9 2.9 0 0 1-2.09.66c-1.925 6.544-5.884 12.868-13.143 16.772l-.605-.824c5.499-3.96 8.799-10.009 10.284-16.224h-6.819l-.44-1.649h7.094l2.145-2.035 3.575 3.189v-7.203h-6.929v2.034c0 .33-1.045.99-2.75.99h-.495v-21.393l3.905 1.65h3.904a214.05 214.05 0 0 0 1.485-6.874l5.719 1.1c-.165.77-.88 1.21-2.035 1.21-.935 1.319-2.42 3.134-3.575 4.564h10.339l1.76-1.98 3.849 2.915a2.83 2.83 0 0 1-2.035.935v16.443c-.767.688-1.776 1.043-2.805.989h-.55v-2.584h-6.434v2.419c.821 2.855 2.083 5.564 3.739 8.029a54.64 54.64 0 0 0 5.115-7.259zm-23.317-21.557v5.884h16.718v-5.884zm16.718 13.473v-5.938H664.12v5.938z"/></g><g><path d="M724.204 309.885l-1.155.935c-8.304-8.304-12.208-17.433-12.208-28.431s3.905-20.183 12.208-28.486l1.155.989c-7.204 10.449-9.294 17.543-9.294 27.497 0 9.898 2.145 17.103 9.294 27.496zm20.955-50.979c8.359 0 12.923 3.904 12.923 9.679 0 4.29-2.75 8.084-9.404 9.514 8.029 1.045 11.438 5.005 11.438 10.009 0 5.555-4.455 10.889-15.343 10.889h-16.168v-1.979l5.72-.605c.165-5.279.165-10.613.165-16.003v-3.024l-.165-15.947-5.72-.605v-1.925zm-5.939 2.255c-.165 5.169-.165 10.448-.165 15.948h3.465c7.479 0 10.943-2.75 10.943-8.359 0-5.334-3.08-7.589-9.789-7.589zm4.455 35.58c7.644 0 11.548-3.079 11.548-8.634 0-5.719-3.74-8.799-12.318-8.799h-3.85l.165 17.433z"/><use xlink:href="#Q"/><path d="M794.33 284.533c.055 8.139 4.344 12.153 10.173 12.153a10.57 10.57 0 0 0 8.634-4.29l1.155.881a12.34 12.34 0 0 1-11.163 6.488c-7.699 0-13.253-5.334-13.253-14.737 0-9.185 6.214-15.068 13.473-15.068 6.379 0 10.999 4.345 10.999 11.219.045 1.149-.085 2.299-.385 3.409zm12.923-2.09c2.42 0 2.97-1.21 2.97-2.97a7.17 7.17 0 0 0-7.149-7.313c-4.015 0-8.029 3.299-8.689 10.283zm39.379 14.463a5.39 5.39 0 0 1-4.784 2.75c-2.805 0-4.564-1.87-5.06-4.895-3.354 3.409-5.554 5.004-9.129 5.004-4.399 0-7.919-2.529-7.919-7.259 0-3.685 2.145-6.379 9.624-9.073 2.145-.66 4.784-1.431 7.314-1.98v-1.76c0-6.049-1.815-7.533-5.994-7.533a11.37 11.37 0 0 0-3.85.604l-1.21 4.069c-.44 1.595-1.265 2.42-2.694 2.42a2.21 2.21 0 0 1-2.42-2.09c1.155-4.51 5.444-7.204 11.273-7.204 6.105 0 9.074 2.75 9.074 9.898v13.033c0 3.189.88 4.18 2.365 4.18a3.22 3.22 0 0 0 2.475-1.319zm-9.954-13.693a58.81 58.81 0 0 0-6.159 1.98c-5.334 2.034-6.324 4.344-6.324 6.544 0 3.3 2.09 4.784 5.06 4.784 2.31 0 3.904-.99 7.424-3.795zm43.063 14.023v1.76h-7.589l-9.569-15.398-4.289 4.345.11 8.579 4.784.715v1.76h-14.133v-1.76l4.949-.715.11-10.063v-27.387l-5.004-.439v-1.705l8.524-2.31.825.495-.165 8.469v21.447l11.108-11.494-4.839-.88v-1.925h13.693v1.925l-5.554.715-7.204 7.26 10.173 16.058zm19.087-.22c-1.684 1.848-4.101 2.855-6.599 2.749-4.179 0-6.489-2.254-6.489-6.929l.055-4.784V273.26h-5.389v-2.035l5.609-.66 1.32-8.139h3.024l-.33 8.304h8.249v2.53h-8.304v19.357c0 3.244 1.32 4.619 3.574 4.619a6.89 6.89 0 0 0 4.18-1.595zm34.537.22v1.76h-13.418v-1.76l4.674-.66.11-10.118v-5.499c0-5.72-1.705-7.59-5.279-7.59-2.75 0-5.554.99-9.128 4.399v8.689l.11 10.118 4.344.66v1.76h-13.473v-1.76l4.729-.715.11-10.063V259.07l-5.004-.439v-1.705l8.414-2.31.825.495-.22 8.469v12.153c3.189-3.52 7.369-5.774 11.164-5.774 5.004 0 7.534 2.97 7.534 10.778v5.72l.11 10.063zm13.313-19.468c1.98-4.839 5.5-7.809 8.964-7.809 1.76 0 3.575.77 4.18 1.979 0 2.365-.935 3.74-3.08 3.74a5.33 5.33 0 0 1-3.52-1.596l-.77-.659c-2.584 1.704-4.344 4.234-5.719 8.028v5.005l.11 10.063 5.06.715v1.76H937.88v-1.76l4.51-.66c.11-3.079.165-7.313.165-10.118v-3.024c0-3.52-.11-5.774-.22-8.359l-4.895-.385v-1.76l7.919-2.915.77.55zm15.621 7.204c0-10.009 6.709-15.013 13.528-15.013 6.654 0 13.473 5.004 13.473 15.013 0 9.954-6.709 14.793-13.473 14.793-6.819 0-13.528-4.839-13.528-14.793zm22.382 0c0-8.193-3.354-12.812-8.854-12.812-5.554 0-8.854 4.619-8.854 12.813 0 8.249 3.3 12.594 8.854 12.594 5.499 0 8.854-4.345 8.854-12.594zm39.929 12.264v1.76l-7.809.495-.44-5.499c-3.079 3.794-6.874 5.773-10.724 5.773-4.949 0-7.864-2.805-7.809-10.889l.165-15.287-4.564-.771v-1.76l8.249-.715.55.605-.275 8.358v9.239c0 5.719 1.76 7.698 5.334 7.698 3.134 0 6.159-1.484 8.964-4.399l.109-18.257-4.509-.771v-1.76l8.139-.715.604.605-.22 8.358v17.268zm31.077-23.372l-6.27-.055a9.65 9.65 0 0 1 1.76 5.939c0 6.269-4.454 9.844-10.504 9.844a13.55 13.55 0 0 1-4.619-.771c-1.21 1.54-1.87 2.75-1.87 4.234 0 1.705.936 2.915 4.015 2.915h8.084c6.104 0 9.074 2.585 9.074 7.313 0 5.114-4.785 10.119-14.299 10.119-8.358 0-12.318-3.024-12.318-7.479 0-2.64 1.65-4.784 5.774-6.764-2.419-.66-3.85-2.145-3.85-4.399 0-1.979 1.101-3.904 4.015-6.544-2.805-1.595-4.564-4.455-4.564-8.469 0-6.215 4.51-9.789 10.614-9.789 2.578-.081 5.111.692 7.204 2.2l6.818-2.146.936.605zm-17.158 25.847a23.26 23.26 0 0 1-2.914-.165c-1.87 1.814-2.75 3.409-2.75 5.664 0 4.069 3.244 5.939 8.249 5.939 6.874 0 10.503-2.97 10.503-6.599 0-2.75-1.649-4.84-6.049-4.84zm8.579-20.072c0-4.564-2.365-7.699-6.379-7.699s-6.545 3.189-6.545 7.864 2.42 7.809 6.38 7.809c4.069 0 6.544-3.299 6.544-7.974zm43.448 17.597v1.76h-13.418v-1.76l4.674-.66.11-10.118v-5.499c0-5.72-1.705-7.59-5.279-7.59-2.75 0-5.555.99-9.129 4.399v8.689l.109 10.118 4.345.66v1.76h-13.473v-1.76l4.729-.715.11-10.063V259.07l-5.004-.439v-1.705l8.413-2.31.825.495-.22 8.469v12.153c3.189-3.52 7.369-5.774 11.163-5.774 5.005 0 7.534 2.97 7.534 10.778v5.72l.11 10.063zm51.369-9.018l-.165 8.688a23.32 23.32 0 0 1-11.933 2.97c-11.989 0-20.128-8.634-20.128-20.952 0-12.153 8.524-20.952 20.128-20.952 3.995-.073 7.933.954 11.383 2.97l.221 8.634h-3.025l-1.319-7.424c-2.039-1.121-4.328-1.708-6.654-1.705-8.744 0-15.343 6.709-15.343 18.478 0 11.878 6.214 18.478 14.958 18.478a17.13 17.13 0 0 0 7.589-1.705l1.319-7.479zm34.981 9.018v1.76l-7.81.495-.439-5.499c-3.08 3.794-6.874 5.773-10.724 5.773-4.949 0-7.864-2.805-7.81-10.889l.165-15.287-4.564-.771v-1.76l8.249-.715.55.605-.274 8.358v9.239c0 5.719 1.76 7.698 5.334 7.698 3.135 0 6.159-1.484 8.964-4.399l.11-18.257-4.51-.771v-1.76l8.139-.715.605.605-.221 8.358v17.268zm13.698-19.468c1.979-4.839 5.499-7.809 8.964-7.809 1.76 0 3.574.77 4.179 1.979 0 2.365-.935 3.74-3.079 3.74a5.33 5.33 0 0 1-3.52-1.596l-.77-.659c-2.585 1.704-4.345 4.234-5.72 8.028v5.005l.11 10.063 5.059.715v1.76h-14.022v-1.76l4.509-.66c.11-3.079.165-7.313.165-10.118v-3.024c0-3.52-.109-5.774-.22-8.359l-4.895-.385v-1.76l7.919-2.915.771.55zm43.666-5.114l-3.465.66-9.788 26.066h-2.09l-10.724-26.231-3.63-.495v-1.925h13.748v1.925l-5.279.605 7.864 20.787 7.259-20.678-5.004-.715v-1.925h11.108zm6.712 11.879c.056 8.139 4.345 12.153 10.174 12.153a10.57 10.57 0 0 0 8.634-4.29l1.155.881a12.34 12.34 0 0 1-11.164 6.488c-7.698 0-13.253-5.334-13.253-14.737 0-9.185 6.214-15.068 13.473-15.068 6.38 0 10.999 4.345 10.999 11.219a11.41 11.41 0 0 1-.385 3.409zm12.924-2.09c2.419 0 2.97-1.21 2.97-2.97a7.17 7.17 0 0 0-7.149-7.313c-4.015 0-8.029 3.299-8.688 10.283zm10.672-27.552l1.154-.989c8.304 8.304 12.209 17.487 12.209 28.486s-3.905 20.127-12.209 28.431l-1.154-.935c7.204-10.449 9.294-17.598 9.294-27.496 0-9.954-2.146-17.104-9.294-27.497z"/></g><g><path d="M175.827 663.849c-.11.77-.604 1.265-1.979 1.484v19.248c0 .439-1.54 1.21-2.86 1.21h-.659v-4.345h-34.7l-1.431 2.255-4.069-2.915a7.58 7.58 0 0 1 1.595-1.21v-16.662l5.774.55c-.109.659-.604 1.154-2.255 1.374v14.959h15.563V658.57h-12.538l-1.375 2.09-4.069-2.75a7.56 7.56 0 0 1 1.595-1.21v-15.727l5.773.495c-.109.659-.604 1.154-2.31 1.375v14.078h12.924v-20.732l5.609.604c-.165.771-.605 1.32-1.98 1.54v18.588h13.198v-15.894l5.5.605c-.11.715-.66 1.21-1.98 1.43v17.213c0 .385-1.539 1.154-2.859 1.154h-.66v-2.859h-13.198v21.228h15.894v-16.554zm53.901-18.258c-.814.737-1.828 1.216-2.915 1.375v35.306a5.19 5.19 0 0 1-3.189 1.154h-.55v-5.939h-30.411v5.335c0 .495-1.43 1.43-3.024 1.43h-.66v-41.904l4.069 1.925h29.366l2.255-2.695zm-6.654 30.246v-29.971h-30.411v29.971zM237.873 649c11.274 1.21 9.02 8.909 5.115 6.71-.825-2.255-3.355-4.84-5.609-6.215zm14.134-2.914l-6.435 21.997a25.19 25.19 0 0 0-.715 4.839c.055 2.53 1.65 5.06 1.43 9.569-.109 2.364-1.154 3.739-3.024 3.739-.99 0-1.649-.935-1.76-2.694.77-5.499.44-9.899-.715-10.724a4.56 4.56 0 0 0-2.64-.771v-1.209h2.364c.605 0 .825-.056 1.32-1.21.88-1.87.88-1.87 9.129-23.757zm-10.504-9.789c11.879 1.705 9.679 9.624 5.664 7.424-.88-2.529-3.794-5.334-6.214-6.874zm42.949 38.33c-.439.385-.989.495-1.979.11a36.42 36.42 0 0 1-6.435 2.529 27.68 27.68 0 0 0 11.988 5.005l-.055.604a3.72 3.72 0 0 0-2.805 2.97c-7.919-2.529-13.253-7.314-16.277-14.903h-5.555v10.834l8.524-3.08.329.771-9.898 6.049a3.11 3.11 0 0 1-1.265 1.375l-1.925-3.904c.99-.605 1.1-.88 1.1-1.65v-10.394h-3.794c-.33 5.279-1.705 11.219-7.314 15.453l-.715-.66c4.454-5.444 4.895-12.099 4.895-18.312v-9.898l1.1.495v-17.763l3.465 1.54h5.334v-5.885l4.895.605c-.055.715-.604 1.209-1.87 1.374v3.905h5.444v-5.885l4.895.605c-.055.715-.604 1.209-1.869 1.374v3.905h4.674l1.925-2.035 4.124 3.244a3.93 3.93 0 0 1-2.31 1.045v12.318c0 .056-.109.165-.22.275.77.55 2.805 2.035 4.289 3.3-.164.604-.659.88-1.43.88h-29.201v3.52h20.732l2.365-2.695s2.749 1.925 4.454 3.465c-.11.605-.66.88-1.43.88h-26.122v3.3h24.252l2.365-2.695c1.567 1.07 3.072 2.226 4.509 3.465-.109.605-.659.88-1.43.88h-16.003c1.196 1.953 2.659 3.73 4.345 5.279a59.05 59.05 0 0 0 6.104-5.114zm-26.892-17.378c-.653.63-1.513 1.001-2.419 1.045l2.034.88h22.932l1.815-2.09a3.68 3.68 0 0 1-1.54.33h-.495v-1.76H257.56zm0-13.803v4.345h5.609v-4.345zm0 10.559h5.609v-4.619h-5.609zm8.634-10.559v4.345h5.444v-4.345zm0 10.559h5.444v-4.619h-5.444zm8.47-10.559v4.345h5.224v-4.345zm0 10.559h5.224v-4.619h-5.224zm26.899 2.86c0 9.129-.55 21.228-8.524 29.586l-.88-.604c5.279-8.469 5.83-19.083 5.83-28.926v-15.674l4.234 1.815h32.995l2.694-3.41s3.025 2.365 4.84 4.125c-.11.604-.66.88-1.375.88h-39.815zm34.096 11.604c-.495.44-1.101.605-2.53.66-2.536 3.578-5.75 6.623-9.459 8.964 5.5 2.31 12.264 3.629 19.798 4.234l-.055.66a3.93 3.93 0 0 0-3.08 3.189c-7.974-1.155-14.518-3.08-19.688-6.27-6.049 3.135-13.473 5.225-22.217 6.27l-.385-.88c7.064-1.268 13.879-3.664 20.183-7.095-3.266-2.557-5.901-5.831-7.699-9.568h-4.345l-.495-1.649h23.482l2.64-2.146zm-9.074-3.85V662.2h-11.823v1.924c0 .386-1.54 1.101-2.805 1.101h-.66v-11.329h-7.974l-.44-1.595h8.414v-6.049l5.444.55c-.11.77-.604 1.265-1.979 1.484v4.015h11.823v-6.049l5.499.55c-.109.77-.604 1.265-1.979 1.484v4.015h4.51l2.419-3.244s2.805 2.31 4.399 3.959c-.055.605-.604.88-1.374.88h-9.954v9.569c0 .385-1.54 1.154-2.805 1.154zm-14.683 4.015a23.28 23.28 0 0 0 8.799 7.974 28.15 28.15 0 0 0 8.139-7.974zm3.079-33.436c10.999 1.925 8.359 9.349 4.51 7.039a19.31 19.31 0 0 0-5.06-6.599zm11.604 25.352v-6.654h-11.823v6.654z"/></g><g><path d="M377.921 692.885l-1.155.935c-8.304-8.304-12.208-17.433-12.208-28.431s3.905-20.183 12.208-28.486l1.155.989c-7.204 10.449-9.294 17.543-9.294 27.497 0 9.898 2.145 17.103 9.294 27.496zm39.542-30.961c0 13.033-8.634 20.952-17.982 20.952-9.459 0-18.148-7.534-18.148-20.952 0-12.979 8.744-20.952 18.148-20.952 9.349 0 17.982 7.534 17.982 20.952zm-17.982 18.532c8.579 0 12.648-9.019 12.648-18.532 0-9.459-4.069-18.478-12.648-18.478-8.689 0-12.758 9.019-12.758 18.478 0 9.514 4.069 18.532 12.758 18.532zm53.953-.219v1.76l-7.809.495-.44-5.499c-3.08 3.794-6.874 5.773-10.724 5.773-4.949 0-7.864-2.805-7.809-10.889l.165-15.287-4.564-.771v-1.76l8.249-.715.55.605-.275 8.358v9.239c0 5.719 1.76 7.698 5.334 7.698 3.135 0 6.159-1.484 8.964-4.399l.11-18.257-4.509-.771v-1.76l8.139-.715.604.605-.22 8.358v17.268zm21.341-.22c-1.684 1.848-4.101 2.855-6.599 2.749-4.179 0-6.489-2.254-6.489-6.929l.055-4.784V656.26h-5.389v-2.035l5.609-.66 1.32-8.139h3.024l-.33 8.304h8.249v2.53h-8.304v19.357c0 3.244 1.32 4.619 3.574 4.619a6.89 6.89 0 0 0 4.18-1.595zm16.555.22v1.76h-14.463v-1.76l5.114-.715.11-10.063v-27.387l-5.004-.439v-1.705l8.524-2.31.825.495-.165 8.469v22.877l.11 10.063zm8.966-12.703c.055 8.139 4.344 12.153 10.173 12.153a10.57 10.57 0 0 0 8.634-4.29l1.155.881a12.34 12.34 0 0 1-11.163 6.488c-7.699 0-13.253-5.334-13.253-14.737 0-9.185 6.214-15.068 13.473-15.068 6.379 0 10.999 4.345 10.999 11.219.045 1.149-.085 2.299-.385 3.409zm12.923-2.09c2.42 0 2.97-1.21 2.97-2.97a7.17 7.17 0 0 0-7.149-7.313c-4.015 0-8.029 3.299-8.689 10.283zm29.04 14.573c-1.684 1.848-4.101 2.855-6.599 2.749-4.179 0-6.489-2.254-6.489-6.929l.055-4.784V656.26h-5.389v-2.035l5.609-.66 1.32-8.139h3.024l-.33 8.304h8.249v2.53h-8.304v19.357c0 3.244 1.32 4.619 3.574 4.619a6.89 6.89 0 0 0 4.18-1.595zm49.882-8.799l-.165 8.688a23.32 23.32 0 0 1-11.934 2.97c-11.988 0-20.127-8.634-20.127-20.952 0-12.153 8.524-20.952 20.127-20.952a21.78 21.78 0 0 1 11.384 2.97l.22 8.634h-3.024l-1.32-7.424c-2.039-1.121-4.328-1.708-6.654-1.705-8.744 0-15.343 6.709-15.343 18.478 0 11.878 6.214 18.478 14.958 18.478a17.13 17.13 0 0 0 7.589-1.705l1.32-7.479zm5.504-3.245c0-10.009 6.709-15.013 13.528-15.013 6.654 0 13.473 5.004 13.473 15.013 0 9.954-6.709 14.793-13.473 14.793-6.819 0-13.528-4.839-13.528-14.793zm22.382 0c0-8.193-3.354-12.812-8.854-12.812-5.555 0-8.854 4.619-8.854 12.813 0 8.249 3.299 12.594 8.854 12.594 5.499 0 8.853-4.345 8.853-12.594zm41.799 12.264v1.76h-13.474v-1.76l4.674-.66.11-10.118v-5.499c0-5.72-1.649-7.59-5.169-7.59-2.695 0-5.5 1.155-9.019 4.399v8.689l.11 10.063 4.345.715v1.76h-13.418v-1.76l4.62-.66c.11-3.079.165-7.313.165-10.118v-3.024c0-3.465-.11-5.774-.22-8.359l-4.895-.385v-1.76l7.919-2.915.77.55.44 5.06c3.189-3.52 7.314-5.664 10.999-5.664 5.004 0 7.534 3.024 7.534 10.778v5.72c0 2.859.055 7.039.165 10.063zm28.765-4.51c-1.87 4.399-5.499 7.039-10.889 7.039-8.029 0-13.309-5.773-13.309-14.902 0-9.349 6.545-14.903 13.693-14.903 5.06 0 9.294 2.97 10.339 7.314-.048.592-.331 1.14-.785 1.522s-1.043.566-1.635.512c-1.4.04-2.607-.978-2.805-2.364l-1.21-4.125c-1.203-.418-2.466-.64-3.739-.659-5.554 0-9.514 4.563-9.514 12.318 0 7.698 4.18 12.208 10.118 12.208 3.438.041 6.664-1.655 8.579-4.51zm9.461-8.193c.056 8.139 4.345 12.153 10.174 12.153a10.57 10.57 0 0 0 8.634-4.29l1.155.881a12.34 12.34 0 0 1-11.164 6.488c-7.699 0-13.253-5.334-13.253-14.737 0-9.185 6.214-15.068 13.474-15.068 6.379 0 10.998 4.345 10.998 11.219a11.41 11.41 0 0 1-.385 3.409zm12.924-2.09c2.419 0 2.97-1.21 2.97-2.97a7.17 7.17 0 0 0-7.149-7.313c-4.015 0-8.029 3.299-8.688 10.283zm44.328 14.793v1.76H743.83v-1.76l4.675-.66.11-10.118v-5.499c0-5.72-1.65-7.59-5.17-7.59-2.694 0-5.499 1.155-9.019 4.399v8.689l.11 10.063 4.344.715v1.76h-13.418v-1.76l4.619-.66c.11-3.079.165-7.313.165-10.118v-3.024c0-3.465-.109-5.774-.22-8.359l-4.895-.385v-1.76l7.919-2.915.771.55.439 5.06c3.189-3.52 7.314-5.664 10.999-5.664 5.004 0 7.533 3.024 7.533 10.778v5.72c0 2.859.056 7.039.165 10.063z"/><use xlink:href="#R"/><path d="M789.811 660.769c1.979-4.839 5.499-7.809 8.964-7.809 1.76 0 3.574.77 4.179 1.98 0 2.365-.935 3.74-3.079 3.74a5.33 5.33 0 0 1-3.52-1.596l-.77-.659c-2.585 1.704-4.345 4.234-5.72 8.028v5.005l.11 10.063 5.059.715v1.76h-14.022v-1.76l4.509-.66c.11-3.079.165-7.313.165-10.118v-3.024c0-3.52-.109-5.774-.22-8.359l-4.895-.385v-1.76l7.919-2.915.771.55zm42.787 19.138a5.39 5.39 0 0 1-4.784 2.75c-2.805 0-4.564-1.87-5.06-4.895-3.355 3.409-5.554 5.004-9.129 5.004-4.399 0-7.919-2.529-7.919-7.259 0-3.685 2.145-6.379 9.624-9.073 2.145-.66 4.784-1.431 7.313-1.98v-1.76c0-6.049-1.814-7.533-5.994-7.533-1.308-.021-2.61.183-3.849.604l-1.21 4.069c-.44 1.595-1.266 2.42-2.695 2.42a2.21 2.21 0 0 1-2.419-2.09c1.154-4.51 5.444-7.204 11.273-7.204 6.104 0 9.073 2.75 9.073 9.898v13.033c0 3.189.88 4.18 2.365 4.18a3.22 3.22 0 0 0 2.475-1.319zm-9.954-13.693c-2.088.547-4.143 1.208-6.158 1.98-5.335 2.034-6.324 4.344-6.324 6.544 0 3.3 2.089 4.784 5.059 4.784 2.31 0 3.904-.99 7.424-3.795zm29.59 13.803c-1.684 1.848-4.101 2.855-6.599 2.749-4.18 0-6.489-2.254-6.489-6.929l.055-4.784V656.26h-5.39v-2.035l5.609-.66 1.32-8.139h3.024l-.33 8.304h8.249v2.53h-8.304v19.357c0 3.244 1.319 4.619 3.574 4.619a6.89 6.89 0 0 0 4.18-1.595zm16.115.22v1.76h-13.418v-1.76l4.73-.715.109-10.063v-3.08l-.109-8.358-5.06-.33v-1.814l8.634-2.86.825.55-.165 7.81v8.084l.109 10.063zm-10.118-38.055c.075-1.874 1.616-3.355 3.492-3.355s3.417 1.481 3.492 3.355c-.075 1.874-1.616 3.355-3.492 3.355s-3.417-1.481-3.492-3.355zm15.125 25.791c0-10.009 6.709-15.013 13.528-15.013 6.654 0 13.473 5.004 13.473 15.013 0 9.954-6.709 14.793-13.473 14.793-6.819 0-13.528-4.839-13.528-14.793zm22.382 0c0-8.193-3.354-12.812-8.854-12.812-5.555 0-8.854 4.619-8.854 12.813 0 8.249 3.299 12.594 8.854 12.594 5.499 0 8.854-4.345 8.854-12.594zm41.798 12.264v1.76h-13.474v-1.76l4.675-.66.11-10.118v-5.499c0-5.72-1.65-7.59-5.17-7.59-2.694 0-5.499 1.155-9.019 4.399v8.689l.11 10.063 4.344.715v1.76h-13.418v-1.76l4.619-.66c.11-3.079.165-7.313.165-10.118v-3.024c0-3.465-.109-5.774-.22-8.359l-4.895-.385v-1.76l7.919-2.915.771.55.439 5.06c3.189-3.52 7.314-5.664 10.999-5.664 5.004 0 7.533 3.024 7.533 10.778v5.72c0 2.859.056 7.039.165 10.063zm2.644-42.345l1.154-.989c8.304 8.304 12.209 17.487 12.209 28.486s-3.905 20.127-12.209 28.431l-1.154-.935c7.204-10.449 9.294-17.598 9.294-27.496 0-9.954-2.145-17.104-9.294-27.497z"/></g></g><path d="M960.829 659.846l17.72.51 17.17 1.31 8.23.94 7.91 1.13 7.41 1.32 6.97 1.45 6.42 1.51 5.8 1.7 5.12 1.77 4.41 1.85 3.56 1.94 2.74 2.08 1.8 2.23.63 2.22.56 2-.21-.4 1.56 1.93-.2-.19 2.56 1.94-.14-.1 3.44 1.88-.11-.05 4.31 1.81-.07-.03 5.07 1.75-.05-.01 5.75 1.69-.07-.02 6.38 1.5-.03-.01 6.94 1.44-.04-.01 7.44 1.32-.03-.01 7.81 1.13-.03-.01 8.18.94h-.04l16.49 1.26-.18 2.28-16.51-1.26-8.22-.94-7.85-1.13-7.47-1.32-6.97-1.45-6.42-1.51-5.81-1.7-5.12-1.77-4.4-1.85-3.56-1.94-2.75-2.08-1.79-2.23-.63-2.22-.56-2 .21.4-1.56-1.93.2.19-2.57-1.94.15.1-3.44-1.88.1.05-4.31-1.81.07.03-5.06-1.75.05.01-5.75-1.69.06.02-6.37-1.5.03.01-6.94-1.44.03.01-7.38-1.32.04.01-7.87-1.13.03.01-8.19-.94.04.01-17.12-1.32.06.01-17.69-.5zm171.27 42.85l-8.75-14.02 27.07 14.57-27.89 12.92zm160.73-410.85l17.72.51 17.17 1.31 8.23.94 7.91 1.13 7.41 1.32 6.97 1.45 6.42 1.51 5.8 1.7 5.12 1.77 4.41 1.85 3.56 1.94 2.74 2.08 1.8 2.23.63 2.22.56 2-.21-.4 1.56 1.93-.2-.19 2.56 1.94-.14-.1 3.44 1.88-.11-.05 4.31 1.81-.07-.03 5.07 1.75-.05-.01 5.75 1.69-.07-.02 6.38 1.5-.03-.01 6.94 1.44-.04-.01 7.44 1.32-.03-.01 7.81 1.13-.03-.01 8.18.94-.04-.01 16.49 1.27-.18 2.28-16.51-1.26-8.22-.94-7.85-1.13-7.47-1.32-6.97-1.45-6.42-1.51-5.81-1.7-5.12-1.77-4.4-1.85-3.56-1.94-2.75-2.08-1.79-2.23-.63-2.22-.56-2 .21.4-1.56-1.93.2.19-2.57-1.94.15.1-3.44-1.88.1.05-4.31-1.81.07.03-5.06-1.75.05.01-5.75-1.69.06.02-6.37-1.5.03.01-6.94-1.44.03.01-7.38-1.32.04.01-7.87-1.13.03.01-8.19-.94h.04l-17.12-1.31.06.01-17.69-.5zm171.27 42.85l-8.75-14.02 27.07 14.57-27.89 12.92z"/><g class="F"><path d="M794.271 779.892c-.275.605-.88 1.045-2.146.936-1.66 4.272-3.684 8.393-6.049 12.318l2.42.88c-.165.439-.715.824-1.65.989v32.062a4.51 4.51 0 0 1-2.914 1.209h-.66V797.49c-2.212 3.176-4.756 6.107-7.589 8.744l-.77-.604c5.169-6.545 10.559-17.048 13.803-27.717zm27.111 5.72s3.024 2.364 4.894 4.069a1.34 1.34 0 0 1-1.43.825h-16.553v9.898h8.469l2.475-3.135s2.86 2.2 4.62 3.85c-.165.605-.715.88-1.485.88h-14.078v10.174h9.129l2.585-3.3s2.97 2.31 4.839 4.015c-.203.599-.804.968-1.43.88h-15.123v13.363c0 .22-1.154 1.154-3.079 1.154h-.55v-37.779h-4.29a51.86 51.86 0 0 1-10.229 12.593l-.77-.605c4.619-5.774 9.514-15.068 12.428-24.527l5.555 2.035c-.22.604-.935.99-2.145.935a72.68 72.68 0 0 1-3.96 8.029h17.488zm9.082 40.255a51.19 51.19 0 0 0 16.168-11.603l4.289 3.189c-.44.495-.99.66-2.035.274-5.114 4.399-12.373 7.59-18.092 9.129zm45.368-40.585s2.86 2.09 4.675 3.795c-.165.605-.715.88-1.484.88h-14.629l4.18 1.374c-.165.605-.88.99-2.09.936a30.95 30.95 0 0 1-4.839 4.839h8.964l2.475-2.97s2.749 2.09 4.509 3.74c-.109.604-.659.88-1.43.88h-18.917v5.114h10.229l2.31-2.805a55.69 55.69 0 0 1 4.289 3.574c-.203.599-.804.968-1.43.88h-15.397v5.334H872.7l2.529-3.134s2.859 2.199 4.675 3.904c-.165.604-.715.88-1.485.88h-21.172v14.737c0 .275-1.21.99-2.97.99h-.604v-15.728H832.17l-.494-1.65h21.997v-5.334h-16.168l-.44-1.649h16.608v-5.114h-18.918l-.439-1.65h13.583q-.248-.164-.495-.33c-.495-2.476-1.767-4.73-3.63-6.434l.55-.385h-12.923l-.495-1.65h18.588v-10.339l5.114.551c-.055.715-.55 1.209-1.76 1.374v8.414h5.664v-10.339l5.169.551c-.109.715-.604 1.209-1.814 1.43v8.358h2.035a59.98 59.98 0 0 0 5.719-9.238l5.06 1.925c-.33.659-1.045.989-2.2.824a45.13 45.13 0 0 1-7.039 6.489h7.864zm-37.779-6.049c10.559 3.574 7.754 10.778 4.399 8.248-.44-2.639-2.859-5.938-5.005-7.809zm21.612 17.872a68.88 68.88 0 0 0 3.794-7.148h-18.917c6.599 2.145 6.709 6.104 5.114 7.148zm.659 18.313c24.857 6.05 18.808 13.804 15.014 10.669-2.86-3.024-8.305-6.654-15.344-9.844zm44.222-31.071a3.91 3.91 0 0 1-2.31 1.1v34.48c-.055.439-1.705 1.319-2.915 1.319h-.494v-3.629h-8.084v4.784c0 .33-1.155 1.21-2.86 1.21h-.55v-42.51l4.069 2.035h6.874l1.98-2.255zm-13.803.439v14.738h8.084v-14.738zm8.084 31.236v-14.903h-8.084v14.903zm33.05-13.969l4.455 3.905c-.11.604-.715.879-1.485.879h-8.084v16.003c0 3.025-.604 4.785-5.773 5.335a3.48 3.48 0 0 0-1.266-2.64c-.824-.605-2.254-1.045-4.839-1.375v-.88l7.039.385c1.045 0 1.319-.274 1.319-1.1v-15.729h-19.852l-.44-1.595h20.292v-6.434l5.5.604c-.165.771-.715 1.21-1.98 1.43v4.399h2.64zm-15.232-15.838v-8.139l5.499.604c-.11.771-.605 1.32-1.98 1.54v5.994h7.259l2.585-3.189 4.619 3.96c-.203.599-.804.968-1.43.88h-13.033v8.249h6.324l2.529-3.3 4.784 4.015c-.165.604-.659.88-1.43.88h-25.517l-.439-1.595h10.229v-8.249h-12.153l-.44-1.65zm-8.964 22.547c12.153 4.51 8.964 12.594 5.06 9.789-.55-3.135-3.355-6.984-5.665-9.349zm39.382-11.712v29.751c0 .495-1.21 1.43-2.859 1.43h-.66v-48.559l3.795 1.76h10.778l1.814-1.979 4.125 3.135a3.7 3.7 0 0 1-2.035.989v14.849c-.055.33-1.814 1.1-2.97 1.1h-.439v-2.475zm0-13.968v5.279h11.549v-5.279zm11.549 12.373v-5.499h-11.549v5.499zm19.027 8.688a3.39 3.39 0 0 1-2.035 1.045v16.772c-.055.386-1.814 1.266-2.97 1.266h-.494v-2.97h-13.363v2.31c0 .33-1.43 1.154-2.86 1.154h-.55v-22.326l3.63 1.704h12.648l1.869-2.09zm-18.862.495v5.994h13.363v-5.994zm13.363 13.968v-6.324h-13.363v6.324zm17.872-35.965a4.72 4.72 0 0 1-2.42 1.155v39.154c0 2.915-.55 4.784-5.773 5.334.016-1.011-.382-1.984-1.101-2.694a11.65 11.65 0 0 0-4.729-1.43v-.88l6.709.439c1.045 0 1.374-.329 1.374-1.209v-25.46h-11.988v1.21c0 .33-1.539 1.1-3.024 1.1h-.495v-19.523l3.74 1.595h11.218l1.815-2.255zm-17.928.44v5.279h11.988v-5.279zm11.988 12.373v-5.499h-11.988v5.499zm38.118 19.963c-5.5 1.65-12.979 3.739-23.372 6.38-.204.563-.647 1.006-1.21 1.209l-2.42-4.399c4.729-.494 15.508-2.199 26.837-4.069zm21.997 8.909c1.704 1.649 1.869 2.364 1.484 3.024-1.1 1.76-4.18.604-6.929-.99a22.83 22.83 0 0 1-9.679-9.679 49.71 49.71 0 0 1-18.808 11.438l-.55-.824a50.47 50.47 0 0 0 18.147-13.254c-2.805-6.434-4.015-14.572-4.51-23.866h-27.331l-.495-1.595h27.771c-.165-3.41-.22-6.93-.22-10.669l5.554.66c-.055.715-.55 1.375-1.979 1.54-.055 2.859 0 5.719.055 8.469h11.604l2.75-3.3s2.97 2.31 4.895 4.015a1.32 1.32 0 0 1-1.431.88h-17.763c.33 7.863 1.266 15.067 3.41 20.842a52.18 52.18 0 0 0 7.754-16.058l5.39 1.814c-.275.715-.771.99-2.2.88a51.63 51.63 0 0 1-9.568 16.443c1.812 3.816 4.852 6.915 8.634 8.799 1.045.604 1.375.604 1.869-.495.895-2.067 1.631-4.2 2.2-6.379l.715.109zm-29.642-11.879v-2.969h-10.778v3.024c0 .385-1.485 1.154-2.859 1.154h-.551V794.41l3.685 1.595h10.009l1.87-1.925 4.069 3.08a4.13 4.13 0 0 1-2.035.935v13.144a4.34 4.34 0 0 1-2.859 1.209zm0-4.619v-10.174h-10.778v10.174zm16.168-28.266c11.493.935 9.954 8.248 6.214 6.544-1.1-2.146-4.179-4.675-6.654-5.939zm34.323 6.159a36.83 36.83 0 0 1-13.362 13.034l-.66-.66c5.279-4.29 10.394-11.714 13.253-20.292l5.555 2.31c-.275.604-.99 1.045-2.2.88-.495 1.1-1.045 2.09-1.595 3.079h25.571l2.64-3.3a53.06 53.06 0 0 1 5.005 4.07 1.25 1.25 0 0 1-1.375.879zm18.368 22.162s2.64 2.035 4.344 3.63c-.203.599-.804.968-1.43.88h-14.188v14.573c0 .439-1.54 1.265-2.75 1.265h-.715v-15.838h-15.673l-.385-1.595h16.058v-11.549l5.279.605c-.11.715-.55 1.21-1.814 1.375v9.568h8.908zm-29.696 17.873a37.84 37.84 0 0 0 8.194-10.669l4.509 2.64c-.22.495-.989.825-2.145.605a31.08 31.08 0 0 1-9.898 8.139zm46.358-1.32c1.155 1.431 1.43 2.365.88 3.08-1.045 1.32-3.409.495-5.279-.99-6.654-4.399-7.974-16.332-8.249-28.596h-30.41l-.495-1.65h30.411l2.145-2.254 4.345 3.574a3.44 3.44 0 0 1-2.2.88c-.165 9.074 1.045 21.063 5.994 24.307.66.385.935.33 1.155-.33.628-1.673 1.16-3.381 1.595-5.114l.659.11zm-42.233-23.866c10.394 4.015 7.313 10.943 3.959 8.358-.55-2.64-2.75-5.938-4.51-7.974zm30.136-10.448l2.529-3.19s2.97 2.255 4.729 3.96c-.165.604-.66.88-1.43.88h-30.356l-.439-1.649zm-13.363 25.461c13.418 3.63 11.493 12.264 7.479 9.898-1.045-3.244-4.895-7.203-7.974-9.403zm9.788-12.868a1.94 1.94 0 0 1-2.145.715 49 49 0 0 1-6.929 6.379l-.771-.55a82.66 82.66 0 0 0 5.06-8.964zm25.084-4.95a6.13 6.13 0 0 1-1.154 4.18c-.715.824-2.31 1.1-2.915.165a2.19 2.19 0 0 1 .825-2.695c1.24-1.358 1.858-3.171 1.705-5.004l.989.055a8.91 8.91 0 0 1 .385 1.65h.936v-16.168l3.52 1.539h6.929l1.705-2.199 4.344 3.244a3.3 3.3 0 0 1-2.529.99v12.594h.33l1.76-1.815 3.189 3.135v-15.123l3.685 1.649h3.189v-6.049l4.345.495c-.056.66-.605 1.155-1.705 1.375v4.179h3.795v-6.049l4.399.495c-.11.715-.605 1.155-1.76 1.375v4.179h3.794l1.65-1.924 3.629 2.859c-.528.528-1.233.842-1.979.88v13.528c0 .165-.33.439-.88.659a30.44 30.44 0 0 1 3.795 3.135 1.29 1.29 0 0 1-1.375.88h-26.287l-.385-1.649h21.777l1.76-2.09c-.345.067-.694.104-1.045.11h-.495v-1.32h-16.883v.88c0 .33-.989.99-2.585.99h-.439v-3.08a5.18 5.18 0 0 1-1.87.33c-.842 1.279-1.779 2.492-2.805 3.63l-.88-.385.88-3.63zm16.663 5.664c-.565.525-1.273.87-2.035.99v19.467c0 2.42-.494 3.795-4.509 4.18-.044-.702-.336-1.365-.825-1.87-1.053-.569-2.215-.906-3.409-.989v-.88l4.619.33c.88 0 1.1-.33 1.1-1.045v-9.459l-5.279 3.85c-.115.55-.454 1.028-.935 1.319l-1.814-3.409c-.495 4.399-2.035 8.964-6.819 12.373l-.66-.715c4.18-4.674 4.564-10.559 4.564-16.388v-10.559l3.795 1.705h6.653l1.54-1.814zm-13.033-7.313h2.859v-9.679l3.245 1.43h2.145v-4.729h-8.249zm.165 15.013a61.37 61.37 0 0 1-.165 4.454c1.649-.439 4.784-1.484 7.974-2.694v-8.909h-7.809v3.3c9.073-.495 8.249 4.564 5.499 3.795-1.751-1.041-3.591-1.925-5.499-2.64zm8.084-15.013v-6.6h-2.915v6.6zm30.301 25.186s2.805 2.145 4.51 3.794c-.11.605-.66.88-1.431.88h-28.431l-.44-1.649h16.168c1.125-2.323 2.063-4.732 2.805-7.204l1.815.604v-1.154h-12.209v1.045c7.039 3.52 3.63 8.469.99 6.049a17.9 17.9 0 0 0-1.925-5.444c-.564.216-1.157.346-1.76.385h-.495V805.3l3.795 1.649h11.493l1.649-1.87 3.685 2.805a2.74 2.74 0 0 1-1.925.88v8.359a3.34 3.34 0 0 1-2.145.99l1.814.604c-.398.726-1.224 1.106-2.034.935a40.26 40.26 0 0 1-3.85 4.675h5.499zm-19.138-35.745v4.949h3.85v-4.949zm3.85 6.599h-3.85v5.225h3.85zm10.284 22.822v-6.38h-12.209v6.38zm-7.645-29.421v4.949h3.795v-4.949zm0 11.823h3.795v-5.225h-3.795zm6.435-11.823v4.949h3.959v-4.949zm3.959 11.823v-5.225h-3.959v5.225zm11.555-6.489c11.604 1.319 9.569 9.294 5.555 7.094-.936-2.364-3.739-5.114-6.104-6.599zm16.059-1.045l-8.029 20.732a14.66 14.66 0 0 0-.825 4.619c0 2.364 1.595 4.949 1.375 9.349-.11 2.365-1.21 3.85-3.079 3.85-.99 0-1.65-1.045-1.815-2.805.771-5.609.495-9.898-.77-10.669a4.89 4.89 0 0 0-2.694-.824v-1.21h2.475c.659 0 .824 0 1.43-1.1 1.045-1.815 1.045-1.815 10.998-22.272zm-11.934-11.164c11.988 2.035 9.568 10.23 5.609 7.755-.825-2.585-3.685-5.609-6.104-7.314zm14.188 24.143l5.225.55c-.165.66-.55 1.21-1.87 1.375v5.059c-.055 6.215-1.595 14.134-10.448 18.753l-.715-.715c6.599-4.84 7.809-12.099 7.809-18.147zm-4.014-16.883h9.733a68.2 68.2 0 0 0 3.85-8.084l5.719 2.475a1.93 1.93 0 0 1-2.09.88c-.824 1.43-1.869 3.024-3.079 4.729h13.913l2.529-3.3s2.97 2.31 4.729 4.015c-.203.599-.804.968-1.43.88h-20.952c-2.614 3.52-5.501 6.83-8.634 9.898 4.949-.274 12.758-.88 21.117-1.54-1.302-1.592-2.798-3.015-4.454-4.234l.55-.55c13.528 4.29 11.328 13.033 7.259 10.559a13.34 13.34 0 0 0-2.475-4.674c-5.444 1.044-13.528 2.364-22.603 3.794a3.07 3.07 0 0 1-1.265 1.265l-1.76-4.344c.469-.133.914-.337 1.32-.605a56.95 56.95 0 0 0 6.874-9.568h-8.414zm13.473 16.827l5.279.605c-.055.715-.604 1.265-1.925 1.43v21.063c0 .439-1.484 1.154-2.694 1.154h-.66zm21.228 21.228c1.1.385 1.595.66 1.595 1.32 0 1.43-1.485 1.924-6.6 1.924h-2.97c-3.134 0-3.629-.88-3.629-3.189v-21.337l5.004.55c-.109.715-.604 1.21-1.649 1.43v18.533c0 .77.109.989 1.154.989h4.729l1.65-.274h.55zm50.654-1.871l4.895 4.015c-.11.605-.66.88-1.43.88h-47.679l-.495-1.54h22.767v-4.509h-18.147l-.439-1.595h18.587v-4.125h-10.613v1.43c0 .275-1.595 1.101-3.079 1.101h-.495v-17.378l3.904 1.76h24.196l2.035-2.255 4.51 3.465a4.96 4.96 0 0 1-2.365 1.154v11.164c-.109.385-1.869 1.154-3.079 1.154h-.55v-1.595h-10.889v4.125h12.813l2.365-2.97 4.399 3.685c-.165.577-.724.95-1.32.88h-18.257v4.509h15.728zm-44.159-23.481l-.495-1.649h42.069l2.585-3.08 4.619 3.85c-.109.604-.715.88-1.484.88zm12.099-3.96c0 .33-1.595 1.155-3.08 1.155h-.55v-16.663l3.904 1.705h23.042l1.98-2.2 4.454 3.41a4.52 4.52 0 0 1-2.31 1.1V794.3c-.056.33-1.87 1.155-3.08 1.155h-.55v-1.979h-23.812zm-.495 9.074v4.124h10.613v-4.124zm10.613 9.844v-4.124h-10.613v4.124zm-10.118-31.071v3.74h23.812v-3.74zm23.812 9.294v-3.904h-23.812v3.904zm-10.118 11.934v4.124h10.889v-4.124zm10.889 9.844v-4.124h-10.889v4.124z"/><g><path d="M1.43 456.957c2.035-12.099 10.174-9.733 7.81-5.72-2.585.881-5.609 3.74-7.314 6.215zm5.334-14.463l-1.595.44v-20.898l-3.189-2.529 3.905-4.564c.604.055.879.66.879 1.43zm2.035 2.255l24.032 7.863a18.83 18.83 0 0 0 5.059.825c2.53-.056 4.895-1.595 9.459-1.485 2.365.11 3.85 1.266 3.85 3.135 0 .99-.99 1.705-2.75 1.87-5.554-.825-9.898-.495-10.724.771a4.56 4.56 0 0 0-.824 2.639h-1.21v-2.364c0-.715 0-.88-1.155-1.375-2.034-.989-2.034-.989-26.012-10.833zm4.84 16.332c1.319-11.658 9.293-9.568 7.148-5.554-2.42.935-5.169 3.739-6.654 6.104zm.439-45.204s2.255-2.805 3.904-4.619c.605.165.88.715.88 1.485v21.502c2.75.88 6.874 2.255 9.789 3.354v-17.213l-2.145-2.035 3.409-4.125a3.13 3.13 0 0 1 .825 2.145c9.568.935 16.442 3.08 18.587 5.774a9.5 9.5 0 0 1 1.87 6.104 3.01 3.01 0 0 0-2.585.99c-.765 1.672-1.266 3.453-1.484 5.279h-.935l.604-7.864a3.31 3.31 0 0 0-.66-2.31c-1.265-1.76-7.479-3.52-15.838-4.4v17.709l1.87 1.814-3.135 3.959c-.453-.765-.822-1.576-1.1-2.42-2.694-1.045-6.6-2.31-9.074-3.024v8.358l-1.595.386v-28.321zM8.799 380.07a49.26 49.26 0 0 0-8.084-.11l.495-6.104c.935.165 1.43.825 1.595 1.979a53.03 53.03 0 0 1 5.994.44v-5.169l-2.145-1.979 3.52-3.905a3.01 3.01 0 0 1 .77 1.925h11.494c.604 0 .715-.165.715-1.209v-2.475l-.056-2.31c0-.275-.055-.495-.55-.715a54.66 54.66 0 0 0-6.269-1.375v-.77l6.434-.165c.44-1.045.88-1.21 1.54-1.21 1.43 0 2.09 1.485 2.09 6.764v3.245c0 3.189-.88 3.685-3.135 3.685H10.448v5.939c7.645 1.485 14.188 5.719 17.818 17.213l-.66.44c-3.96-9.019-10.063-12.703-17.158-13.858v8.634l-1.649.495zM1.32 401.682c.329-10.449 7.589-8.964 5.938-5.389-2.302 1.43-4.166 3.465-5.389 5.884zm18.422.275c0-.715 0-.88-.824-1.595-1.32-1.155-1.32-1.155-15.344-12.648l.44-.825c3.794 2.475 12.648 8.799 14.243 9.789a7.7 7.7 0 0 0 3.409 1.265c1.43 0 2.694-1.209 5.114-1.1 1.65 0 2.585.935 2.585 2.75 0 .825-.66 1.43-1.705 1.65-3.739-.495-5.554-.22-6.104.935-.362.775-.55 1.62-.551 2.475H19.74zm-11.713 3.189c.385-10.173 7.424-8.084 5.499-4.509-1.87.715-3.904 2.97-4.949 4.949zm20.897-43.444s2.42-3.079 4.234-5.004c.605.11.881.715.881 1.484v21.502h15.893c.439 0 1.21 1.595 1.21 2.97v.715H34.041v21.887l-1.596.439V383.37h-6.544l.605-5.719c.77.11 1.319.66 1.484 2.035h4.454v-15.233zm19.798 44.929c-2.97-5.719-8.909-13.143-12.429-16.168l2.86-4.564c.604.275.935 1.044.77 2.475a67.94 67.94 0 0 1 9.624 17.763zM37.34 376.936c3.74-20.402 12.539-20.788 11.329-16.058-3.465 3.245-8.194 11.108-10.614 16.498zm-24.527-76.063a3.49 3.49 0 0 1 .935 2.31c18.258.77 31.236 2.75 34.535 5.774a8.37 8.37 0 0 1 2.64 6.709 2.92 2.92 0 0 0-2.64 1.1c-.659.88-1.319 3.52-1.649 5.884l-1.045-.055c.33-2.695.771-7.149.771-8.414.083-.947-.236-1.886-.881-2.585-2.199-2.475-15.178-4.179-32.226-5.004v3.575c14.354 2.419 26.672 8.304 34.976 20.567l-.715.604c-8.799-10.173-21.007-15.508-34.261-17.212v4.125a44.08 44.08 0 0 1 24.802 16.772l-.715.605A46.2 46.2 0 0 0 13.253 322.1v4.894a31.78 31.78 0 0 1 9.569 8.414l-.605.77a38.72 38.72 0 0 0-8.358-5.555c.357.319.541.789.495 1.265v6.819h12.428l-2.694-7.864.825-.275 4.234 8.139h20.567c.494 0 1.319 1.485 1.319 2.805v.715H30.961l3.08 6.27c.617.141 1.129.571 1.374 1.155l-4.619 2.089c-.439-1.925-1.484-5.389-2.859-9.514H14.354v4.399a35.25 35.25 0 0 1 9.129 4.399l-.495.825a72.44 72.44 0 0 0-18.973-4.015l.989-5.224a1.87 1.87 0 0 1 1.32 1.924 63.69 63.69 0 0 1 6.379 1.595v-3.905H.605l.659-5.444c.771.165 1.32.605 1.54 1.925h9.898v-1.43l-3.189-2.475s2.31-2.695 3.96-4.345h.055a56.75 56.75 0 0 0-12.923-4.399l1.649-5.609c.715.275 1.154.935 1.154 2.145a45.45 45.45 0 0 1 8.305 3.519V307.14l-2.42-2.035z"/></g><g><path d="M39.43 249.833c.385.44.495.99.11 1.98a36.4 36.4 0 0 1 2.529 6.434 27.68 27.68 0 0 0 5.005-11.988l.604.055a3.72 3.72 0 0 0 2.97 2.805c-2.529 7.919-7.314 13.253-14.903 16.278v5.554h10.834l-3.08-8.524.77-.33 6.049 9.898a3.11 3.11 0 0 1 1.375 1.265l-3.904 1.924c-.605-.99-.88-1.1-1.65-1.1H35.745v3.794c5.279.33 11.219 1.705 15.453 7.314l-.66.715c-5.444-4.454-12.099-4.894-18.312-4.894h-9.898l.495-1.1H5.06l1.54-3.464v-5.335H.715l.605-4.894c.715.055 1.209.604 1.374 1.87H6.6v-5.444H.715l.605-4.895c.715.055 1.209.605 1.374 1.87H6.6v-4.674l-2.035-1.924 3.244-4.125a3.93 3.93 0 0 1 1.045 2.31h12.318c.056 0 .165.11.275.22.55-.77 2.035-2.804 3.3-4.289.604.165.88.66.88 1.43v29.201h3.52v-20.732l-2.695-2.365s1.925-2.75 3.465-4.454c.605.11.88.66.88 1.43v26.122h3.3v-24.252l-2.695-2.365c1.07-1.567 2.226-3.072 3.465-4.509.605.11.88.66.88 1.43v16.003a24.68 24.68 0 0 0 5.279-4.344 58.95 58.95 0 0 0-5.114-6.104zM1.1 292.782c1.705-11.878 9.624-9.679 7.424-5.664-2.529.88-5.334 3.794-6.874 6.214zm7.149-33.161h4.345v-5.224H8.249zm0 8.469h4.345v-5.444H8.249zm0 8.634h4.345v-5.609H8.249zm2.64 5.554l21.997 6.434a25.1 25.1 0 0 0 4.839.715c2.53-.055 5.06-1.65 9.569-1.43 2.364.11 3.739 1.155 3.739 3.024 0 .99-.935 1.65-2.694 1.76-5.499-.77-9.899-.44-10.724.715a4.56 4.56 0 0 0-.771 2.64h-1.209v-2.365c0-.605-.056-.825-1.21-1.32-1.87-.88-1.87-.88-23.757-9.129zm2.914 14.133c1.21-11.274 8.909-9.019 6.71-5.115-2.255.825-4.84 3.355-6.215 5.609zm5.005-36.791v-5.224h-4.619v5.224zm0 8.469v-5.444h-4.619v5.444zm0 8.634v-5.609h-4.619v5.609zm3.244 0c.63.653 1.001 1.513 1.045 2.419l.88-2.035v-22.932l-2.09-1.815a3.68 3.68 0 0 1 .33 1.54v.495h-1.76v22.327zM0 219.305c1.925-10.999 9.349-8.359 7.039-4.509a19.31 19.31 0 0 0-6.599 5.06zm21.667 13.418c9.129 0 21.228.55 29.586 8.524l-.604.88c-8.469-5.279-19.083-5.83-28.926-5.83H6.049l1.815-4.234v-32.996l-3.41-2.694s2.365-3.025 4.125-4.839c.605.11.88.66.88 1.375v39.815zm7.754-25.021h-2.419v11.823h1.924c.386 0 1.101 1.54 1.101 2.805v.66h-11.33v7.974l-1.595.44v-8.414h-6.049l.55-5.444c.77.11 1.265.605 1.484 1.98h4.015v-11.823h-6.049l.55-5.5c.77.11 1.265.605 1.484 1.98h4.015v-4.51l-3.244-2.419s2.31-2.805 3.959-4.399c.605.055.88.605.88 1.375v9.954h9.569c.385 0 1.154 1.54 1.154 2.804zm-4.069 0h-6.654v11.823h6.654zm7.919-9.074c.44.495.605 1.1.66 2.53 3.578 2.536 6.623 5.75 8.964 9.459 2.31-5.5 3.629-12.264 4.234-19.797l.66.055a3.93 3.93 0 0 0 3.189 3.08c-1.155 7.974-3.08 14.518-6.27 19.688 3.135 6.049 5.225 13.473 6.27 22.217l-.88.385c-1.268-7.064-3.664-13.879-7.095-20.183a27.05 27.05 0 0 1-9.568 7.699v4.344l-1.649.495v-23.482l-2.145-2.64zm.165 23.757a23.28 23.28 0 0 0 7.974-8.799c-2.075-3.228-4.789-5.998-7.974-8.139z"/></g></g></g></svg>