<svg xmlns="http://www.w3.org/2000/svg" xmlns:xlink="http://www.w3.org/1999/xlink" viewBox="0 0 2765.534 1636.129" xmlns:v="https://vecta.io/nano"><style><![CDATA[.H{isolation:isolate}.J{clip-path:url(#B)}.K{fill:none}.L{stroke:#000}.M{stroke-linejoin:round}.N{stroke-width:3.438}.O{clip-path:url(#A)}.P{stroke-width:6.875}.Q{stroke-miterlimit:8}]]></style><defs><clipPath id="A" transform="translate(-43.82 -71.725)"><path d="M0 0h2892v1711H0z" class="K"/></clipPath><clipPath id="B" transform="translate(-43.82 -71.725)"><path d="M0 0h2891v1710H0z" class="K"/></clipPath><clipPath id="C" transform="translate(-43.82 -71.725)"><path d="M212 88h2571v1466H212z" class="K"/></clipPath><path id="D" d="M2720.81 95.408a6.5 6.5 0 1 1-13 0 6.5 6.5 0 0 1 11.096-4.596 6.5 6.5 0 0 1 1.904 4.596z"/><path id="E" d="M133.465 1477.883c0 10.947-4.428 14.966-9.061 14.966-4.674 0-9.144-4.019-9.144-14.966 0-10.987 4.469-15.088 9.144-15.088 4.633 0 9.061 4.101 9.061 15.088zm-9.061 13.325c2.87 0 5.658-2.951 5.658-13.325 0-10.496-2.788-13.406-5.658-13.406-2.952 0-5.699 2.87-5.699 13.406 0 10.415 2.747 13.325 5.699 13.325z"/><path id="F" d="M102.528 1331.883c0 10.947-4.429 14.966-9.062 14.966-4.674 0-9.144-4.019-9.144-14.966 0-10.987 4.47-15.088 9.144-15.088 4.633 0 9.062 4.101 9.062 15.088zm-9.062 13.325c2.87 0 5.658-2.951 5.658-13.325 0-10.496-2.788-13.406-5.658-13.406-2.952 0-5.699 2.87-5.699 13.406 0 10.415 2.747 13.325 5.699 13.325z"/><path id="G" d="M108.432 1344.102c-.029-.986.48-1.91 1.329-2.412s1.904-.502 2.754 0 1.359 1.426 1.329 2.412c.002.968-.514 1.863-1.352 2.348s-1.871.485-2.709 0-1.353-1.38-1.352-2.348z"/><path id="H" d="M124.667 1028.347c-.41 1.681-.902 2.419-2.215 2.419-.904.047-1.713-.556-1.927-1.436.902-3.771 4.306-5.535 8.2-5.535 5.043 0 8.241 2.87 8.241 7.012 0 3.361-2.214 6.026-6.109 7.257 4.715.819 7.053 3.566 7.053 7.38 0 4.879-3.978 8.405-9.759 8.405-4.223 0-7.462-1.805-8.364-5.986a2.08 2.08 0 0 1 1.928-1.271c1.229 0 1.681.819 2.214 2.624l.779 2.542a9.6 9.6 0 0 0 2.951.45c4.552 0 6.93-2.542 6.93-6.642 0-4.141-2.378-6.602-7.216-6.602h-2.092v-1.763h1.764c4.1 0 6.724-2.296 6.724-6.313 0-3.403-2.05-5.412-5.658-5.412a10.78 10.78 0 0 0-2.665.327z"/><path id="I" d="M108.432 759.102c-.029-.986.48-1.91 1.329-2.412s1.904-.502 2.754 0 1.359 1.426 1.329 2.412c-.003 1.492-1.214 2.701-2.706 2.701s-2.703-1.208-2.706-2.701z"/><path id="J" d="M580.882 1526.883c0 10.947-4.428 14.966-9.061 14.966-4.675 0-9.144-4.019-9.144-14.966 0-10.987 4.469-15.088 9.144-15.088 4.633 0 9.061 4.101 9.061 15.088zm-9.061 13.325c2.869 0 5.657-2.951 5.657-13.325 0-10.496-2.788-13.406-5.657-13.406-2.952 0-5.699 2.87-5.699 13.406 0 10.415 2.747 13.325 5.699 13.325z"/><path id="K" d="M586.785 1539.102c-.029-.986.48-1.91 1.329-2.412s1.904-.502 2.754 0 1.359 1.426 1.329 2.412c0 1.495-1.212 2.706-2.706 2.706s-2.706-1.212-2.706-2.706z"/><path id="L" d="M624.217 1523.932a15.64 15.64 0 0 1 4.634-.697c5.658 0 9.512 3.239 9.512 9.02 0 5.658-4.018 9.595-10.209 9.595-4.346 0-7.257-1.968-8.2-5.904a1.93 1.93 0 0 1 1.927-1.353c1.148 0 1.641.573 2.174 2.501l.819 2.665c.985.292 2.007.444 3.034.45 4.633 0 7.175-2.951 7.175-7.544 0-4.756-2.829-7.298-7.175-7.298a13.76 13.76 0 0 0-4.469.697l-1.148-.246.943-13.407h14.391v3.075h-12.792z"/></defs><g class="O"><g class="J K L M N"><path d="M168.68 1479.775v-1463"/></g><g class="J K L M N"><path d="M168.68 1479.775h13m-13-146.94h13m-13-146.01h13m-13-146h13m-13-146.01h13m-13-147h13m-13-146.01h13m-13-146h13m-13-147.005h13m-13-146.005h13m-13-146.02h13"/></g><g class="J K L M N"><path d="M168.68 1479.775h2567"/></g><g class="J K L M N"><path d="M168.68 1467.775v12m428.05-12v12m428.01-12v12m428.01-12v12m427.02-12v12m428.01-12v12m427.9-12v12"/></g><g clip-path="url(#C)" class="K L M P"><path d="M2714.68 95.775c-160.98 170.052-357.16 392.402-482.95 510.15-122.39 114.58-179.79 135.8-271.8 196.37-94.55 62.24-192.53 121.6-295.54 177.11-103.02 55.5-209.89 107.8-322.56 155.93-112.66 48.13-262.9 100.97-353.43 132.83s-124.89 39.4-189.72 58.33l-199.26 55.25c-41.1 11.12-58.21 14.98-82.53 20.99q-41.7 10.29-84.23 20.21l-85.98 19.83" stroke-linecap="round"/></g><g fill="#4472c4" class="J L M N"><use xlink:href="#D"/><path d="M2237.81 605.405a6.5 6.5 0 1 1-1.904-4.596 6.5 6.5 0 0 1 1.904 4.596zm-272 196a6.5 6.5 0 1 1-1.904-4.596 6.5 6.5 0 0 1 1.904 4.596zm-295 177a6.5 6.5 0 1 1-1.904-4.596 6.5 6.5 0 0 1 1.904 4.596zm-323 156a6.5 6.5 0 1 1-1.904-4.596 6.5 6.5 0 0 1 1.904 4.596zm-353 133a6.5 6.5 0 1 1-1.904-4.596 6.5 6.5 0 0 1 1.904 4.596zm-190 58a6.5 6.5 0 1 1-1.904-4.596 6.5 6.5 0 0 1 1.904 4.596zm-199 56a6.5 6.5 0 1 1-1.904-4.596 6.5 6.5 0 0 1 1.904 4.596zm-83 21a6.5 6.5 0 1 1-1.904-4.596 6.5 6.5 0 0 1 1.904 4.596zm-84 20a6.5 6.5 0 1 1-1.904-4.596 6.5 6.5 0 0 1 1.904 4.596zm-86 20a6.5 6.5 0 1 1-1.904-4.596 6.5 6.5 0 0 1 1.904 4.596z"/></g><g class="J H"><g><use xlink:href="#E"/></g></g><g class="J H"><g><use xlink:href="#F"/><use xlink:href="#G"/><path d="M137.418 1344.962v1.313h-16.195v-1.312l6.478-.778.082-7.298v-16.811l-6.149.697v-1.477l8.855-2.296.615.492-.164 6.355v13.038l.082 7.298z"/></g></g><g class="J H"><g><path d="M102.528 1185.883c0 10.947-4.429 14.966-9.062 14.966-4.674 0-9.144-4.019-9.144-14.966 0-10.987 4.47-15.088 9.144-15.088 4.633 0 9.062 4.101 9.062 15.088zm-9.062 13.325c2.87 0 5.658-2.951 5.658-13.325 0-10.496-2.788-13.406-5.658-13.406-2.952 0-5.699 2.87-5.699 13.406 0 10.415 2.747 13.325 5.699 13.325zm14.966-1.106a2.71 2.71 0 0 1 1.329-2.412c.849-.502 1.904-.502 2.754 0s1.359 1.426 1.329 2.412c.002.968-.514 1.863-1.352 2.348s-1.871.485-2.709 0a2.71 2.71 0 0 1-1.352-2.348zm29.642-.902v3.075h-18.082v-2.46l7.053-7.462c4.51-4.879 6.313-8.241 6.313-11.686 0-3.689-2.132-6.19-5.658-6.19-.915-.005-1.825.119-2.705.368l-1.025 3.157c-.492 1.764-1.107 2.542-2.173 2.542-.846-.011-1.61-.504-1.969-1.271.697-4.306 4.511-6.479 8.774-6.479 5.535 0 8.118 3.075 8.118 7.585 0 3.772-1.968 6.725-8.528 13.284-1.147 1.23-3.238 3.321-5.494 5.535z"/></g></g><g class="J H"><g><path d="M102.528 1038.883c0 10.947-4.429 14.966-9.062 14.966-4.674 0-9.144-4.019-9.144-14.966 0-10.987 4.47-15.088 9.144-15.088 4.633 0 9.062 4.101 9.062 15.088zm-9.062 13.325c2.87 0 5.658-2.951 5.658-13.325 0-10.496-2.788-13.406-5.658-13.406-2.952 0-5.699 2.87-5.699 13.406 0 10.415 2.747 13.325 5.699 13.325zm14.966-1.106a2.71 2.71 0 0 1 1.329-2.412c.849-.502 1.904-.502 2.754 0s1.359 1.426 1.329 2.412c.002.968-.514 1.863-1.352 2.348s-1.871.485-2.709 0a2.71 2.71 0 0 1-1.352-2.348z"/><use xlink:href="#H"/></g></g><g class="J H"><g><path d="M102.528 892.883c0 10.947-4.429 14.966-9.062 14.966-4.674 0-9.144-4.019-9.144-14.966 0-10.987 4.47-15.088 9.144-15.088 4.633 0 9.062 4.101 9.062 15.088zm-9.062 13.325c2.87 0 5.658-2.951 5.658-13.325 0-10.496-2.788-13.406-5.658-13.406-2.952 0-5.699 2.87-5.699 13.406 0 10.415 2.747 13.325 5.699 13.325zm14.966-1.106a2.71 2.71 0 0 1 1.329-2.412c.849-.502 1.904-.502 2.754 0s1.359 1.426 1.329 2.412c.002.968-.514 1.863-1.352 2.348s-1.871.485-2.709 0a2.71 2.71 0 0 1-1.352-2.348zm30.831-6.848h-4.838v9.021h-3.075v-9.021h-12.341v-1.886l13.284-18.327h2.132v17.917h4.838zm-7.913-2.296v-14.062l-10.127 14.063z"/></g></g><g class="J H"><g><path d="M102.528 746.883c0 10.947-4.429 14.966-9.062 14.966-4.674 0-9.144-4.019-9.144-14.966 0-10.987 4.47-15.088 9.144-15.088 4.633 0 9.062 4.101 9.062 15.088zm-9.062 13.325c2.87 0 5.658-2.951 5.658-13.325 0-10.496-2.788-13.406-5.658-13.406-2.952 0-5.699 2.87-5.699 13.406 0 10.415 2.747 13.325 5.699 13.325z"/><use xlink:href="#I"/><path d="M123.765 743.932c1.5-.464 3.062-.699 4.633-.697 5.658 0 9.513 3.239 9.513 9.02 0 5.658-4.019 9.595-10.21 9.595-4.346 0-7.257-1.968-8.199-5.904a1.93 1.93 0 0 1 1.927-1.353c1.147 0 1.64.573 2.173 2.501l.82 2.665a10.9 10.9 0 0 0 3.034.45c4.633 0 7.175-2.951 7.175-7.544 0-4.756-2.829-7.298-7.175-7.298-1.518-.016-3.028.22-4.47.697l-1.147-.246.942-13.407h14.392v3.075H124.38z"/></g></g><g class="J H"><g><path d="M102.528 600.883c0 10.947-4.429 14.966-9.062 14.966-4.674 0-9.144-4.019-9.144-14.966 0-10.987 4.47-15.088 9.144-15.088 4.633 0 9.062 4.101 9.062 15.088zm-9.062 13.325c2.87 0 5.658-2.951 5.658-13.325 0-10.496-2.788-13.406-5.658-13.406-2.952 0-5.699 2.87-5.699 13.406 0 10.415 2.747 13.325 5.699 13.325zm14.966-1.106a2.71 2.71 0 0 1 1.329-2.412c.849-.502 1.904-.502 2.754 0s1.359 1.426 1.329 2.412a2.71 2.71 0 0 1-2.706 2.701c-1.492 0-2.703-1.208-2.706-2.701zm28.494-26.2c-8.651 1.968-12.997 6.724-13.735 13.817a9.37 9.37 0 0 1 6.807-3.075c4.797 0 8.077 3.361 8.077 8.732 0 5.986-3.772 9.472-8.938 9.472-5.822 0-9.389-4.633-9.389-12.383 0-8.773 6.067-16.358 16.974-17.671zm-13.858 16.072c0 7.339 2.296 11.233 6.15 11.233 3.28 0 5.535-2.542 5.535-7.421 0-4.797-2.214-6.97-5.535-6.97a8.49 8.49 0 0 0-6.15 2.46z"/></g></g><g class="J H"><g><path d="M102.528 453.883c0 10.947-4.429 14.966-9.062 14.966-4.674 0-9.144-4.019-9.144-14.966 0-10.987 4.47-15.088 9.144-15.088 4.633 0 9.062 4.101 9.062 15.088zm-9.062 13.325c2.87 0 5.658-2.951 5.658-13.325 0-10.496-2.788-13.406-5.658-13.406-2.952 0-5.699 2.87-5.699 13.406 0 10.415 2.747 13.325 5.699 13.325zm14.966-1.106a2.71 2.71 0 0 1 1.329-2.412c.849-.502 1.904-.502 2.754 0s1.359 1.426 1.329 2.412a2.71 2.71 0 0 1-2.706 2.701c-1.492 0-2.703-1.208-2.706-2.701zm29.478-26.692v1.886l-10.66 26.979h-2.993l-.41-.41 11.726-25.379h-15.58v-3.075z"/></g></g><g class="J H"><g><path d="M102.528 307.883c0 10.947-4.429 14.966-9.062 14.966-4.674 0-9.144-4.019-9.144-14.966 0-10.987 4.47-15.088 9.144-15.088 4.633 0 9.062 4.101 9.062 15.088zm-9.062 13.325c2.87 0 5.658-2.951 5.658-13.325 0-10.496-2.788-13.406-5.658-13.406-2.952 0-5.699 2.87-5.699 13.406 0 10.415 2.747 13.325 5.699 13.325zm14.966-1.106a2.71 2.71 0 0 1 1.329-2.412c.849-.502 1.904-.502 2.754 0s1.359 1.426 1.329 2.412a2.71 2.71 0 0 1-2.706 2.701c-1.492 0-2.703-1.208-2.706-2.701zm29.437-4.715c0 4.428-3.813 7.462-8.979 7.462-5.412 0-9.021-2.542-9.021-7.135 0-3.402 2.256-5.616 6.561-7.749-3.937-2.091-5.576-4.756-5.576-7.831 0-4.551 3.608-7.339 8.118-7.339 4.592 0 7.503 2.829 7.503 6.889 0 2.255-1.312 4.879-5.453 7.216 4.756 2.255 6.848 4.633 6.848 8.487zm-3.116.287c0-2.706-1.682-4.593-6.971-7.053-3.238 1.927-4.838 3.69-4.838 6.766 0 3.484 2.378 5.862 6.027 5.862 1.527.104 3.026-.442 4.128-1.505s1.702-2.541 1.653-4.071zm-5.084-9.39c2.911-2.009 4.059-3.854 4.059-6.519 0-2.911-1.722-5.289-4.838-5.289a4.83 4.83 0 0 0-3.585 1.323c-.962.915-1.504 2.187-1.499 3.515 0 2.501 1.23 4.797 5.863 6.97z"/></g></g><g class="J H"><g><path d="M102.528 161.883c0 10.947-4.429 14.966-9.062 14.966-4.674 0-9.144-4.019-9.144-14.966 0-10.987 4.47-15.088 9.144-15.088 4.633 0 9.062 4.101 9.062 15.088zm-9.062 13.325c2.87 0 5.658-2.951 5.658-13.325 0-10.496-2.788-13.406-5.658-13.406-2.952 0-5.699 2.87-5.699 13.406 0 10.415 2.747 13.325 5.699 13.325zm14.966-1.106a2.71 2.71 0 0 1 1.329-2.412c.849-.502 1.904-.502 2.754 0s1.359 1.426 1.329 2.412a2.71 2.71 0 0 1-2.706 2.701c-1.492 0-2.703-1.208-2.706-2.701zm12.873 1.68c8.036-2.706 11.849-7.175 12.792-13.53a8.28 8.28 0 0 1-6.15 2.46c-4.838 0-8.65-3.361-8.609-8.814 0-5.412 3.813-9.103 9.225-9.103 5.576 0 9.103 4.47 9.103 11.645 0 8.446-4.797 15.826-16.031 18.655zm12.956-15.375c.041-.451.041-.902.041-1.394 0-7.176-2.46-10.537-5.904-10.537-3.116 0-5.781 2.419-5.781 7.093 0 4.756 2.747 7.011 6.355 7.011a7.18 7.18 0 0 0 5.289-2.173z"/></g></g><g class="J H"><g><path d="M132.891 27.962v1.313h-16.195v-1.312l6.478-.778.082-7.298V3.075l-6.15.697V2.296L125.961 0l.615.492-.164 6.355v13.038l.082 7.298z"/></g></g><g class="J H"><g><path d="M178.867 1526.883c0 10.947-4.428 14.966-9.061 14.966-4.674 0-9.144-4.019-9.144-14.966 0-10.987 4.469-15.088 9.144-15.088 4.633 0 9.061 4.101 9.061 15.088zm-9.061 13.325c2.87 0 5.658-2.951 5.658-13.325 0-10.496-2.788-13.406-5.658-13.406-2.952 0-5.699 2.87-5.699 13.406 0 10.415 2.747 13.325 5.699 13.325z"/></g></g><g class="J H"><g><use xlink:href="#J"/><use xlink:href="#K"/><path d="M616.346 1526.883c0 10.947-4.428 14.966-9.061 14.966-4.675 0-9.144-4.019-9.144-14.966 0-10.987 4.469-15.088 9.144-15.088 4.633 0 9.061 4.101 9.061 15.088zm-9.061 13.325c2.869 0 5.657-2.951 5.657-13.325 0-10.496-2.788-13.406-5.657-13.406-2.952 0-5.699 2.87-5.699 13.406 0 10.415 2.747 13.325 5.699 13.325z"/><use xlink:href="#L"/></g></g><g class="J H"><g><path d="M1018.982 1526.883c0 10.947-4.428 14.966-9.061 14.966-4.674 0-9.144-4.019-9.144-14.966 0-10.987 4.469-15.088 9.144-15.088 4.633 0 9.061 4.101 9.061 15.088zm-9.061 13.325c2.87 0 5.658-2.951 5.658-13.325 0-10.496-2.788-13.406-5.658-13.406-2.952 0-5.699 2.87-5.699 13.406 0 10.415 2.747 13.325 5.699 13.325zm14.964-1.106a2.71 2.71 0 0 1 1.329-2.412c.849-.502 1.904-.502 2.754 0s1.359 1.426 1.329 2.412c0 1.495-1.212 2.706-2.706 2.706s-2.706-1.212-2.706-2.706zm28.987.86v1.313h-16.195v-1.312l6.478-.778.082-7.298v-16.811l-6.15.697v-1.477l8.856-2.296.615.492-.164 6.355v13.038l.082 7.298z"/></g></g><g class="J H"><g><path d="M1436.462 1526.883c0 10.947-4.428 14.966-9.061 14.966-4.675 0-9.144-4.019-9.144-14.966 0-10.987 4.469-15.088 9.144-15.088 4.633 0 9.061 4.101 9.061 15.088zm-9.061 13.325c2.869 0 5.657-2.951 5.657-13.325 0-10.496-2.788-13.406-5.657-13.406-2.952 0-5.699 2.87-5.699 13.406 0 10.415 2.747 13.325 5.699 13.325zm14.964-1.106a2.71 2.71 0 0 1 1.329-2.412c.849-.502 1.904-.502 2.754 0s1.359 1.426 1.329 2.412c0 1.495-1.212 2.706-2.706 2.706s-2.706-1.212-2.706-2.706zm28.987.86v1.313h-16.195v-1.312l6.479-.778.082-7.298v-16.811l-6.15.697v-1.477l8.856-2.296.615.492-.164 6.355v13.038l.082 7.298zm8.445-16.03a15.64 15.64 0 0 1 4.634-.697c5.658 0 9.512 3.239 9.512 9.02 0 5.658-4.018 9.595-10.209 9.595-4.346 0-7.257-1.968-8.2-5.904a1.93 1.93 0 0 1 1.927-1.353c1.148 0 1.641.573 2.174 2.501l.819 2.665c.985.292 2.007.444 3.034.45 4.633 0 7.175-2.951 7.175-7.544 0-4.756-2.829-7.298-7.175-7.298a13.76 13.76 0 0 0-4.469.697l-1.148-.246.943-13.407h14.391v3.075h-12.792z"/></g></g><g class="J H"><g><path d="M1874.563 1526.883c0 10.947-4.429 14.966-9.062 14.966-4.675 0-9.144-4.019-9.144-14.966 0-10.987 4.469-15.088 9.144-15.088 4.633 0 9.062 4.101 9.062 15.088zm-9.062 13.325c2.87 0 5.657-2.951 5.657-13.325 0-10.496-2.787-13.406-5.657-13.406-2.952 0-5.699 2.87-5.699 13.406 0 10.415 2.747 13.325 5.699 13.325zm14.964-1.106a2.71 2.71 0 0 1 1.329-2.412c.849-.502 1.904-.502 2.754 0s1.359 1.426 1.329 2.412c.002.968-.514 1.863-1.352 2.348s-1.871.485-2.709 0a2.71 2.71 0 0 1-1.352-2.348zm29.642-.902v3.075h-18.081v-2.46l7.052-7.462c4.511-4.879 6.314-8.241 6.314-11.686 0-3.689-2.132-6.19-5.658-6.19a9.71 9.71 0 0 0-2.705.368l-1.025 3.157c-.492 1.764-1.107 2.542-2.174 2.542-.845-.011-1.61-.505-1.968-1.271.697-4.306 4.511-6.479 8.774-6.479 5.535 0 8.118 3.075 8.118 7.585 0 3.772-1.968 6.725-8.528 13.284-1.148 1.23-3.238 3.321-5.494 5.535z"/></g></g><g class="J H"><g><path d="M2292.042 1526.883c0 10.947-4.429 14.966-9.062 14.966-4.674 0-9.143-4.019-9.143-14.966 0-10.987 4.469-15.088 9.143-15.088 4.633 0 9.062 4.101 9.062 15.088zm-9.062 13.325c2.87 0 5.658-2.951 5.658-13.325 0-10.496-2.788-13.406-5.658-13.406-2.951 0-5.699 2.87-5.699 13.406 0 10.415 2.748 13.325 5.699 13.325zm14.965-1.106a2.71 2.71 0 0 1 1.329-2.412c.849-.502 1.904-.502 2.754 0s1.359 1.426 1.329 2.412c0 1.495-1.212 2.706-2.706 2.706s-2.706-1.212-2.706-2.706zm29.643-.902v3.075h-18.082v-2.46l7.053-7.462c4.51-4.879 6.314-8.241 6.314-11.686 0-3.689-2.133-6.19-5.658-6.19-.915-.005-1.826.119-2.706.368l-1.025 3.157c-.491 1.764-1.106 2.542-2.173 2.542-.846-.011-1.61-.504-1.969-1.271.697-4.306 4.511-6.479 8.775-6.479 5.535 0 8.117 3.075 8.117 7.585 0 3.772-1.968 6.725-8.527 13.284-1.148 1.23-3.239 3.321-5.494 5.535zm7.789-14.268a15.64 15.64 0 0 1 4.633-.697c5.658 0 9.513 3.239 9.513 9.02 0 5.658-4.019 9.595-10.21 9.595-4.346 0-7.256-1.968-8.199-5.904a1.93 1.93 0 0 1 1.927-1.353c1.147 0 1.64.573 2.173 2.501l.82 2.665c.985.292 2.007.444 3.034.45 4.633 0 7.175-2.951 7.175-7.544 0-4.756-2.829-7.298-7.175-7.298a13.77 13.77 0 0 0-4.47.697l-1.147-.246.942-13.407h14.392v3.075h-12.792z"/></g></g><g class="J H"><g><path d="M2730.152 1526.883c0 10.947-4.429 14.966-9.062 14.966-4.674 0-9.144-4.019-9.144-14.966 0-10.987 4.47-15.088 9.144-15.088 4.633 0 9.062 4.101 9.062 15.088zm-9.062 13.325c2.87 0 5.658-2.951 5.658-13.325 0-10.496-2.788-13.406-5.658-13.406-2.952 0-5.699 2.87-5.699 13.406 0 10.415 2.747 13.325 5.699 13.325zm14.966-1.106a2.71 2.71 0 0 1 1.329-2.412c.849-.502 1.904-.502 2.754 0s1.359 1.426 1.329 2.412c0 1.495-1.212 2.706-2.706 2.706s-2.706-1.212-2.706-2.706zm16.235-22.755c-.41 1.681-.902 2.419-2.215 2.419-.904.047-1.713-.556-1.927-1.436.902-3.771 4.306-5.535 8.2-5.535 5.043 0 8.241 2.87 8.241 7.012 0 3.361-2.214 6.026-6.109 7.257 4.715.819 7.053 3.566 7.053 7.38 0 4.879-3.978 8.405-9.759 8.405-4.223 0-7.462-1.805-8.364-5.986a2.08 2.08 0 0 1 1.928-1.271c1.229 0 1.681.819 2.214 2.624l.779 2.542a9.6 9.6 0 0 0 2.951.45c4.552 0 6.93-2.542 6.93-6.642 0-4.141-2.378-6.602-7.216-6.602h-2.092v-1.763h1.764c4.1 0 6.724-2.296 6.724-6.313 0-3.403-2.05-5.412-5.658-5.412a10.78 10.78 0 0 0-2.665.327z"/></g></g><g class="J H"><g><path d="M2.853 730.641l.827 5.98 50.046 18.859c15.363 5.795 20.423 13.247 20.423 19.503 0 4.875-2.76 9.475-6.624 9.567-3.495-.551-5.151-3.863-5.151-7.083 0-3.404 1.748-5.704 4.508-8.096l1.472-1.288c-3.22-3.956-8.096-6.715-14.903-9.475L3.404 779.214l-.552 5.428H0v-26.127h2.853l.827 7.544 35.419-12.972-35.326-11.959-.92 8.648H0v-19.135z"/></g></g><g class="J H"><g><path d="M54.746 727.293c9.334-.244 13.422-4.88 13.422-10.798.138-3.661-1.643-7.129-4.698-9.15l.854-1.22c5.002 2.44 7.87 7.077 7.87 13.116 0 9.578-6.223 16.532-17.326 16.532-10.98 0-17.264-8.053-17.264-16.593 0-8.358 5.673-13.421 13.359-13.421 1.275-.042 2.549.102 3.782.427zm-2.257-10.432c0-2.806-1.403-3.477-4.515-3.477-4.941 0-8.113 2.623-8.113 6.344 0 3.843 3.722 7.199 12.628 7.564z"/></g></g><g class="J H"><g><path d="M1466.773 1610.332v2.943h-22.907l-.092-2.943 7.728-1.104-11.132-16.007-11.959 15.915 7.819 1.196v2.943h-19.411v-2.943l6.532-1.104 14.995-18.859-13.983-20.238-6.808-.92v-3.22h21.343v3.22l-6.716 1.012 10.672 15.271 11.591-15.18-7.083-1.104v-3.22h18.398v3.22l-5.979.92-14.812 18.398 14.72 20.699z"/></g></g><g class="J H"><g><path d="M1469.782 1619.231c.062 9.028 4.819 13.481 11.286 13.481 3.772.047 7.336-1.724 9.577-4.758l1.281.976c-2.442 4.541-7.229 7.324-12.384 7.199-8.541 0-14.702-5.918-14.702-16.35 0-10.187 6.894-16.716 14.946-16.716 7.076 0 12.201 4.82 12.201 12.445.05 1.275-.095 2.55-.428 3.782zm14.336-2.318c2.685 0 3.295-1.342 3.295-3.294a7.95 7.95 0 0 0-7.931-8.114c-4.454 0-8.907 3.66-9.639 11.408z"/></g></g><g class="O K P Q"><path d="M163.68 1117.775h1208.77" stroke="#4472c4"/></g><g class="O K P Q"><path d="M1370.68 1120.775v364.37" stroke="#4472c4"/></g><g class="H"><g><path d="M317.742 1030.19l-5.062.995-15.271 40.418c-5.726 15.188-11.37 21.329-18.092 21.329-4.066 0-7.635-2.075-7.718-5.229.498-2.241 2.822-3.32 5.229-3.32 2.324 0 4.067.996 6.225 3.071l.664.664c4.232-2.988 7.137-8.051 9.212-13.777l.747-1.908-16.433-41.497-5.312-.746v-2.573h20.582v2.656l-7.967.912 12.2 33.031 11.785-32.948-8.133-1.078v-2.573h17.346z"/></g><g><path d="M324.068 1065.803c2.915-3.245 6.159-4.564 9.349-4.564 6.544 0 11.438 5.555 11.438 14.573 0 9.073-5.004 15.232-12.153 15.232a10.66 10.66 0 0 1-8.579-4.344l-.44 4.124-8.469-.55v-1.76l4.729-.715.11-10.063v-27.332l-5.004-.494v-1.705l8.414-2.31.825.495-.22 8.469zm.165 18.917c1.974 2.15 4.727 3.418 7.644 3.52 4.564 0 8.524-3.574 8.524-12.098 0-7.975-3.409-12.153-8.249-12.153-2.09 0-4.51.55-7.919 3.685z"/></g><g><path d="M343.584 1033.343v-4.066h42.077v4.066zm0 18.093v-4.067h42.077v4.067zm85.735-10.292c0 22.159-8.963 30.293-18.341 30.293-9.461 0-18.507-8.134-18.507-30.293 0-22.241 9.046-30.541 18.507-30.541 9.378 0 18.341 8.3 18.341 30.541zm-18.341 26.973c5.809 0 11.453-5.975 11.453-26.973 0-21.246-5.644-27.138-11.453-27.138-5.976 0-11.536 5.81-11.536 27.138 0 21.081 5.561 26.973 11.536 26.973zm30.295-2.241a5.48 5.48 0 1 1 10.955 0 5.48 5.48 0 0 1-5.478 5.478 5.48 5.48 0 0 1-5.478-5.478zm60.005-1.826v6.225h-36.6v-4.979l14.275-15.104c9.129-9.876 12.781-16.682 12.781-23.653 0-7.469-4.315-12.531-11.453-12.531a19.65 19.65 0 0 0-5.477.746l-2.075 6.391c-.996 3.569-2.241 5.146-4.398 5.146a4.46 4.46 0 0 1-3.984-2.572c1.411-8.715 9.129-13.113 17.761-13.113 11.204 0 16.433 6.225 16.433 15.354 0 7.636-3.984 13.611-17.263 26.89-2.324 2.49-6.556 6.723-11.121 11.204zm15.771-28.881c3.038-.939 6.199-1.414 9.378-1.411 11.453 0 19.254 6.557 19.254 18.258 0 11.453-8.133 19.421-20.666 19.421-8.797 0-14.689-3.983-16.598-11.951.528-1.692 2.13-2.816 3.9-2.738 2.324 0 3.32 1.161 4.399 5.063l1.66 5.395c1.994.592 4.062.899 6.142.912 9.378 0 14.523-5.975 14.523-15.271 0-9.627-5.727-14.772-14.523-14.772a27.86 27.86 0 0 0-9.046 1.411l-2.324-.498 1.909-27.139h29.13v6.225h-25.894z"/></g></g></g></svg>