<svg xmlns="http://www.w3.org/2000/svg" xmlns:xlink="http://www.w3.org/1999/xlink" viewBox="0 0 262.026 254.974" xmlns:v="https://vecta.io/nano"><defs><clipPath id="A" transform="translate(-1.044)"><path d="M101.171 131.334l-15.842-15.794C67.799 97.081 52.542 74.432 49.152 25.556H12.593v218.667h134.963c0-25.778-22.708-89.371-46.385-112.889z" fill="none"/></clipPath><path id="B" d="M11.548 30.889h139.097"/><path id="C" d="M169.1 23.957l-.168.136a5.71 5.71 0 0 1 0-8.275l.168.144c-1.801 2.361-1.801 5.635 0 7.996z"/><path id="D" d="M225.549 15.961l.168-.144a5.71 5.71 0 0 1 0 8.275l-.168-.136a6.59 6.59 0 0 0 0-7.996z"/><path id="E" d="M187.868 63.997c.72.768 1.607.912 3.079.912l2.559-.04v.104a.52.52 0 0 0-.416.463h-2.311c-1.527 0-2.287-.264-3.022-1.215-.112-.12-.185-.104-.264.008l-.855 1.183c.031.063.014.139-.04.184l-.48-.616c.456-.41.948-.777 1.472-1.095h.048a13.53 13.53 0 0 0 4.166-3.358h-5.189l-.072-.232h5.325l.392-.335.584.543c-.072.08-.152.096-.359.096a12.21 12.21 0 0 1-4.646 3.374zm.872-5.597c1.895.704 1.471 2.015.888 1.583-.169-.591-.508-1.119-.976-1.519z"/></defs><g clip-path="url(#A)" fill="none" stroke="#231815" stroke-miterlimit="10" stroke-width=".75"><use xlink:href="#B"/><path d="M11.548 36.222h139.097M11.548 41.556h139.097M11.548 46.889h139.097M11.548 52.222h139.097M11.548 57.556h139.097M11.548 62.889h139.097M11.548 68.222h139.097M11.548 73.556h139.097M11.548 78.889h139.097M11.548 84.222h139.097M11.548 89.556h139.097M11.548 94.889h139.097m-139.097 5.333h139.097m-139.097 5.334h139.097m-139.097 5.333h139.097m-139.097 5.333h139.097m-139.097 5.334h139.097m-139.097 5.333h139.097m-139.097 5.333h139.097m-139.097 5.334h139.097m-139.097 5.333h139.097m-139.097 5.333h139.097m-139.097 5.334h139.097m-139.097 5.333h139.097m-139.097 5.333h139.097m-139.097 5.334h139.097m-139.097 5.333h139.097m-139.097 5.333h139.097m-139.097 5.334h139.097m-139.097 5.333h139.097m-139.097 5.333h139.097m-139.097 5.334h139.097m-139.097 5.333h139.097m-139.097 5.333h139.097m-139.097 5.334h139.097m-139.097 5.333h139.097m-139.097 5.333h139.097m-139.097 5.334h139.097m-139.097 5.333h139.097m-139.097 5.333h139.097"/><path d="M144.882 25.556v218.667m-5.334-218.667v218.667m-5.333-218.667v218.667m-5.333-218.667v218.667m-5.334-218.667v218.667m-5.333-218.667v218.667m-5.333-218.667v218.667m-5.334-218.667v218.667m-5.333-218.667v218.667M96.882 25.556v218.667M91.548 25.556v218.667M86.215 25.556v218.667M80.882 25.556v218.667M75.548 25.556v218.667M70.215 25.556v218.667M64.882 25.556v218.667M59.548 25.556v218.667M54.215 25.556v218.667M48.882 25.556v218.667M43.548 25.556v218.667M38.215 25.556v218.667M32.882 25.556v218.667M27.548 25.556v218.667M22.215 25.556v218.667M16.882 25.556v218.667M11.548 25.556v218.667"/></g><path d="M256.026 241.222l6 3.001-6 2.999v-6h0z" fill="#040000" fill-rule="evenodd"/><path d="M11.548 244.222h246.074" fill="none" stroke="#231815" stroke-miterlimit="8" stroke-width="1.25"/><path d="M8.548 6l3.001-6 2.999 6h-6 0z" fill="#040000" fill-rule="evenodd"/><g fill="none"><g stroke="#231815"><path d="M11.548 244.222V6" stroke-miterlimit="8" stroke-width="1.25"/><g stroke-miterlimit="10"><path d="M11.548 25.556h218.667v218.667H11.548z" stroke-width=".25"/><path d="M48.1 25.556c4.387 63.29 28.678 82.585 52.027 105.777 23.677 23.518 46.385 87.111 46.385 112.889"/><path d="M48.1 25.556c0 43.999 52.293 71.103 83.412 102.222 25.759 25.759 49.198 76.148 50.679 116.444"/><path d="M48.1 25.556c0 32.888 73.227 48.148 106.412 81.333 32.002 32.002 57.675 96.517 65.333 137.333m10.37 0s-3.704-113.778-45.037-155.111-136.79-47.556-136.79-63.556"/></g></g><path d="M11.548 25.556h218.667v218.666" stroke-miterlimit="10" stroke-width=".75" stroke="#006934"/></g><g fill="#006934"><path d="M164.299 22.086v.288h-2.311v-.288l.88-.088-.528-1.591h-2.055l-.52 1.575.84.104v.288h-1.92v-.288l.72-.096 1.848-5.501h.447l1.879 5.517zm-2.07-2.007l-.92-2.766-.911 2.766z"/><use xlink:href="#C"/><path d="M172.452 20.687l-2.462 1.295c-.023.088-.085.161-.168.2l-.256-.656c.231-.056.631-.192 1.127-.352v-2.271h-.943l-.056-.224h.999v-1.943h-.968l-.056-.224h1.735l.367-.472a8.35 8.35 0 0 1 .68.576c-.016.088-.096.12-.208.12h-1.039v1.943h.224l.32-.464.592.56c-.017.088-.088.128-.2.128h-.936v2.095l1.199-.423zm4.014 1.287l.704.608c-.024.08-.096.12-.208.12h-5.205l-.064-.224h2.551v-1.407h-1.694l-.064-.24h1.759v-1.224h-1.215v.328c0 .064-.208.176-.424.176h-.088v-4.126l.552.256h2.902l.296-.32.64.496a.66.66 0 0 1-.344.16v3.19c-.114.116-.269.185-.432.192h-.08v-.352h-1.296v1.224h1.023l.376-.472.664.584c-.017.088-.097.128-.208.128h-1.855v1.407h1.327zm-3.437-5.501V17.8h1.215v-1.327zm1.215 2.902V18.04h-1.215v1.335zm.512-2.902V17.8h1.296v-1.327zm1.296 2.902V18.04h-1.296v1.335zm4.08-2.606l.615.52c-.023.088-.096.128-.208.128h-2.854l-.063-.231h2.183zm-.624 1.423l.304-.368.56.479c-.023.088-.096.128-.207.128h-2.167l-.064-.24zm.313.647l.56.48c-.024.088-.097.128-.208.128h-2.175l-.064-.232h1.583zm.008 1.087l.607.464a.62.62 0 0 1-.328.152v1.935c-.11.105-.255.165-.407.168h-.072v-.352h-1.096v.456c0 .048-.208.167-.407.167h-.072V19.99l.52.232h.976zm-1.384-4.166c1.535.44 1.111 1.471.576 1.119a3.1 3.1 0 0 0-.664-1.063zm1.184 6.3v-1.607h-1.096v1.607zm3.398-6.132c-.032.088-.112.136-.32.144a5.44 5.44 0 0 0 2.383 2.103l-.016.096c-.215.022-.398.165-.472.368a5.84 5.84 0 0 1-2.007-2.367 7.5 7.5 0 0 1-2.191 2.462l-.088-.088c.866-.846 1.535-1.872 1.959-3.006zm1.023 2.886l.623.464a.54.54 0 0 1-.319.152v2.902c0 .384-.064.592-.624.656a.52.52 0 0 0-.104-.328.68.68 0 0 0-.392-.152v-.128l.52.032c.096 0 .12-.04.12-.136v-1.367h-.632v1.312a.41.41 0 0 1-.344.144h-.064v-1.456h-.615v1.503c-.085.099-.214.15-.344.136h-.057v-1.639h-.68v1.895c0 .056-.199.168-.399.168h-.08V18.87l.52.24h2.615zm-2.231 1.855v-1.327h-.68v1.327zm1.264-3.014l.647.543c-.026.086-.111.141-.2.128h-2.206l-.064-.232h1.48zm-.248 3.014v-1.327h-.615v1.327zm1.04 0v-1.327h-.632v1.327zm8.367-4.891l.744.624c-.017.088-.088.128-.2.128h-1.056v5.637c0 .424-.104.744-.959.824a.46.46 0 0 0-.225-.384 2.36 2.36 0 0 0-.896-.224v-.12l1.328.08c.176 0 .231-.064.231-.208V16.53h-5.485l-.063-.24h6.164zm-2.326 2.303a.66.66 0 0 1-.336.16v2.703a.72.72 0 0 1-.448.176h-.071v-.616h-1.959v.751c0 .048-.2.168-.416.168h-.088v-3.758l.544.248h1.847l.279-.32zm-.855 2.183v-2.119h-1.959v2.119zm5.376.103v1c0 .064-.168.192-.392.192h-.088v-5.333l.52.256h.976l.279-.328.624.496a.57.57 0 0 1-.336.152v4.094a.57.57 0 0 1-.407.192h-.08v-.72zm0-3.654v3.414h1.096v-3.414zm6.461 1.967c-.064.064-.145.088-.336.096-.277.914-.749 1.757-1.384 2.471a5.8 5.8 0 0 0 2.055 1.263l-.023.088a.6.6 0 0 0-.52.392c-.707-.335-1.334-.817-1.839-1.415a6.7 6.7 0 0 1-2.583 1.423l-.08-.128a6.52 6.52 0 0 0 2.423-1.607c-.52-.77-.877-1.638-1.048-2.551h-.08c-.14 1.718-1.051 3.279-2.479 4.246l-.119-.136c2.143-1.775 2.198-4.11 2.223-6.404h-.888l-.072-.24h3.087l.256-.28.551.464c-.075.066-.172.1-.271.096l-.312 2.015h.535l.336-.32zm-3.278-2.263l-.105 2.055h1.415l.336-2.055zm.111 2.294a5.62 5.62 0 0 0 1.16 2.223 6.11 6.11 0 0 0 1.127-2.223zm6.609-2.342c-.064.072-.176.088-.36.096-.311.633-.655 1.25-1.031 1.847a2.41 2.41 0 0 1 1.031 1.871c.008.744-.256 1.096-.991 1.127a.81.81 0 0 0-.088-.416.86.86 0 0 0-.384-.12v-.12h.527c.07.006.14-.011.2-.048.128-.072.2-.24.2-.543-.008-.643-.256-1.259-.696-1.727.192-.488.472-1.392.64-2.015h-.927v6.508c-.097.13-.255.2-.416.184h-.08v-7.18l.592.256h.808l.336-.336zm1.694-.408c-.04.096-.104.136-.312.128a10.33 10.33 0 0 1-.871 1.871l.487.184c-.032.072-.104.12-.248.144v4.501a.49.49 0 0 1-.399.192h-.088v-4.646c-.203.302-.436.583-.695.839l-.104-.088c.673-1.039 1.147-2.194 1.399-3.406zm2.551 1.248a6.66 6.66 0 0 1 .56.56.18.18 0 0 1-.199.128h-.88v4.27c0 .464-.08.744-.831.832a.65.65 0 0 0-.168-.432 1.26 1.26 0 0 0-.672-.224v-.128l.976.063c.151 0 .184-.048.184-.167v-4.214h-1.991l-.063-.24h2.055v-1.863l.808.096c-.024.12-.096.184-.296.208v1.559h.216zm-2.838 1.535c1.639.991 1.191 2.111.68 1.671a4.63 4.63 0 0 0-.776-1.615zm3.955-1.167c1.639.176 1.312 1.295.743.976a2.1 2.1 0 0 0-.815-.904zm2.055-.424l-.936 3.198a3.67 3.67 0 0 0-.104.704c.11.457.18.922.207 1.391-.016.344-.167.544-.439.544-.144 0-.239-.136-.256-.392.112-.8.064-1.439-.104-1.56a.67.67 0 0 0-.384-.112v-.176h.344c.088 0 .12-.008.191-.176.128-.272.128-.272 1.327-3.454zm-1.527-1.423c1.728.248 1.407 1.399.824 1.08a2.36 2.36 0 0 0-.904-1zm6.245 5.573c-.064.056-.145.072-.288.016-.3.152-.613.275-.936.368a4.02 4.02 0 0 0 1.743.728l-.008.088a.54.54 0 0 0-.408.432c-1.089-.304-1.968-1.108-2.366-2.166h-.808v1.575l1.239-.448.048.112-1.439.879a.45.45 0 0 1-.184.2l-.28-.567c.145-.088.16-.128.16-.24v-1.511h-.552a2.85 2.85 0 0 1-1.063 2.247l-.104-.096a3.99 3.99 0 0 0 .711-2.662v-1.439l.16.072v-2.583l.504.224h.775v-.855l.712.088c-.008.104-.088.176-.272.2v.568h.792v-.855l.712.088c-.009.104-.088.176-.272.2v.568h.68l.28-.296.6.472a.57.57 0 0 1-.336.152v1.791c0 .008-.016.024-.032.04l.624.48c-.024.088-.096.128-.208.128h-4.246v.512h3.015l.344-.392a8.07 8.07 0 0 1 .647.504c-.016.088-.096.128-.208.128h-3.798v.479h3.526l.344-.392a7.27 7.27 0 0 1 .656.504c-.017.088-.097.128-.208.128h-2.327a3.59 3.59 0 0 0 .632.768c.312-.228.609-.476.888-.744zm-3.91-2.527a.54.54 0 0 1-.352.152l.296.128h3.334l.264-.304a.54.54 0 0 1-.224.048h-.072v-.256h-3.246zm0-2.007v.632h.815v-.632zm0 1.535h.815v-.671h-.815zm1.255-1.535v.632h.792v-.632zm0 1.535h.792v-.671h-.792zm1.231-1.535v.632h.76v-.632zm0 1.535h.76v-.671h-.76zm3.913.416c.153 1.54-.29 3.079-1.239 4.301l-.128-.088a7.9 7.9 0 0 0 .848-4.206v-2.279l.616.264h4.797l.392-.496.704.6c-.016.088-.096.128-.2.128h-5.789zm4.958 1.687c-.072.064-.16.088-.368.096-.368.52-.836.963-1.375 1.303a9.51 9.51 0 0 0 2.878.616l-.008.096a.57.57 0 0 0-.447.464 7.46 7.46 0 0 1-2.863-.912 9.46 9.46 0 0 1-3.229.912l-.057-.128c1.027-.184 2.018-.533 2.935-1.032a3.93 3.93 0 0 1-1.119-1.391h-.632l-.071-.24h3.414l.384-.312zm-1.319-.56v-.352h-1.72v.28c0 .056-.224.16-.407.16h-.096v-1.647h-1.16l-.063-.232h1.224v-.879l.791.08c-.016.112-.088.184-.288.216v.584h1.72v-.879l.8.08c-.017.112-.089.184-.288.216v.584h.655l.352-.472.64.576c-.008.088-.088.128-.199.128h-1.447v1.392c0 .056-.224.167-.408.167zm-2.135.584a3.38 3.38 0 0 0 1.279 1.159c.469-.302.872-.696 1.183-1.159zm.447-4.861c1.6.28 1.216 1.359.656 1.023a2.8 2.8 0 0 0-.736-.959zm1.688 3.686v-.968h-1.72v.968z"/><use xlink:href="#D"/></g><g fill="#231815"><path d="M146.759 49.656c1.216 0 1.879.567 1.879 1.407 0 .624-.399 1.175-1.367 1.383 1.168.152 1.663.728 1.663 1.456 0 .808-.647 1.583-2.23 1.583h-2.351v-.288l.831-.088.024-2.327v-.439l-.024-2.319-.831-.088v-.28zm-.863.328l-.024 2.319h.504c1.088 0 1.592-.4 1.592-1.215 0-.776-.448-1.104-1.424-1.104zm.647 5.173c1.111 0 1.68-.448 1.68-1.255 0-.832-.544-1.279-1.791-1.279h-.561l.024 2.535z"/><use xlink:href="#C" x="-15.037" y="33.111"/><path d="M162.004 49.776c-.056.064-.144.08-.296.088a4.08 4.08 0 0 1-.647.696l-.104-.056a6.75 6.75 0 0 0 .185-.728H155.6c.03.325-.109.642-.368.84-.184.12-.439.128-.52-.048-.064-.16.04-.304.191-.392a1.01 1.01 0 0 0 .448-.959l.144-.008c.037.106.064.216.08.328h5.518l.327-.32zm-.704.848l.632.488c-.016.088-.096.128-.208.128h-1.223l-.048.848a.82.82 0 0 1-.496.056l.016-.16h-3.454l-.216.232-.567-.4a1.13 1.13 0 0 1 .296-.152l.056-.424h-1.312l-.071-.24h1.407l.08-.992.615.256h3.166l.248-.288.624.479a.55.55 0 0 1-.328.136l-.016.408h.455zm-3.926 4.278l.608.456c-.064.072-.185.088-.368.024a9.01 9.01 0 0 1-2.782.728l-.04-.144a7.5 7.5 0 0 0 2.534-1.063h-1.016v.08c0 .056-.224.176-.432.176h-.08v-2.951l.561.248h3.829l.272-.28.575.439a.41.41 0 0 1-.271.128v2.143c-.12.104-.273.164-.432.168h-.08v-.152zm-1.063-2.207v.488h3.942v-.488zm3.942.72h-3.942v.504h3.942zm-3.942 1.247h3.942v-.512h-3.942zm1.655-2.918l.048-.504h-1.455l-.071.504zm-1.327-1.248l-.056.504h1.447l.032-.504zm1.312-1.783c1.175.208.624 1.12.16.72a.9.9 0 0 0-.248-.664zm2.039 3.031l.031-.504h-1.526l-.049.504zm-1.439-1.248l-.032.504h1.503l.017-.504zm.24 4.558c3.798.224 2.942 1.359 2.318.983a7.34 7.34 0 0 0-2.351-.848zm6.648-5.518c-.064.072-.176.088-.352.088l-.976 1.911a2.5 2.5 0 0 1 .999 1.919c.008.768-.248 1.104-.968 1.135a.66.66 0 0 0-.088-.4.92.92 0 0 0-.375-.128v-.12h.527a.28.28 0 0 0 .184-.048c.12-.072.185-.248.185-.552a2.69 2.69 0 0 0-.664-1.783l.592-2.063h-1.071v6.429a.47.47 0 0 1-.408.176h-.088V49l.592.264h.943l.344-.328zm4.462.192a.49.49 0 0 1-.312.08 5.62 5.62 0 0 1-1.007 1.247 3.68 3.68 0 0 0 1.383 1.127l-.016.088c-.194.028-.352.17-.4.36a4.36 4.36 0 0 1-1.767-2.791.71.71 0 0 1-.224.032c-.355 1.29-1.198 2.391-2.352 3.07l-.088-.128a5.29 5.29 0 0 0 1.968-2.982h-1.048l-.176.32c1.151.264.903.983.504.751-.141-.255-.341-.472-.584-.632a4.42 4.42 0 0 1-.815.976l-.112-.08a6.3 6.3 0 0 0 1.088-2.391l.695.264c-.04.08-.104.104-.296.064a3.71 3.71 0 0 1-.191.488h.911l.296-.28.496.439.063-.024a3.88 3.88 0 0 0 .56 1.191 9.02 9.02 0 0 0 .576-1.184h-1.016l-.072-.24h1.071l.313-.312zm-3.599 1.391a6.52 6.52 0 0 1-.823.608c.003.078-.041.151-.112.184l-.352-.456a7.11 7.11 0 0 0 1.239-.456zm-1.263 4.51c.483-.475.873-1.037 1.15-1.655l.688.328c-.04.08-.128.088-.265.063a5.05 5.05 0 0 1-1.486 1.368zm2.75-1.927v2.263c-.113.108-.268.16-.424.144h-.08v-2.407h-1.734l-.064-.232h3.286l.344-.439.632.543c-.016.088-.096.128-.2.128zm.536-1.887l.575.512c-.016.088-.088.128-.191.128h-2.352l-.056-.24h1.711zm-.04 2.255c1.975.751 1.646 1.967 1.079 1.599a4.15 4.15 0 0 0-1.167-1.535zm3.195-3.678c.052.34-.082.682-.352.895-.192.12-.44.12-.52-.064-.071-.16.04-.312.2-.4a1 1 0 0 0 .408-.983l.144-.008a3.08 3.08 0 0 1 .096.328h2.519v-.647H171.6l-.064-.232h4.518l.376-.448.688.552c-.016.088-.096.128-.216.128h-2.415v.647h2.559l.328-.344.616.592a.53.53 0 0 1-.305.088 5.05 5.05 0 0 1-.655.791l-.104-.056.176-.84h-2.615v1.759a.54.54 0 0 1-.432.144h-.08v-1.903zm5.613 1.783l.663.527c-.023.088-.104.128-.216.128h-3.15a6.75 6.75 0 0 1-.527.712h2.639l.256-.312.64.48a.59.59 0 0 1-.312.16v1.503c0 .399-.071.624-.703.695a.58.58 0 0 0-.12-.359.86.86 0 0 0-.48-.176v-.128l.655.04c.112 0 .145-.04.145-.136v-1.535h-1.184v1.687c-.111.107-.263.159-.416.144h-.08v-1.831h-1.207v1.895a.5.5 0 0 1-.408.144h-.08v-2.039h-1.223v2.135c0 .048-.224.168-.424.168h-.072v-2.791l.544.256h1.487l.264-.712h-2.751l-.071-.231h5.78zm-5.478-.344l2.047-.256.016.12-1.623.536c-.022.087-.089.154-.176.176zm.224-1.12c1.783-.112 1.871.744 1.392.688a5 5 0 0 0-1.439-.56zm2.991.855c2.015-.032 2.07.816 1.591.751a8.87 8.87 0 0 0-1.647-.615zm1.799-.552a.21.21 0 0 1-.208-.04l-1.583.392-.04-.112a13.75 13.75 0 0 0 1.479-.784zm4.186 1.161c-.023.072-.104.12-.239.144v3.614a.64.64 0 0 1-.424.168h-.104v-3.454a6.64 6.64 0 0 1-1.391 1.071l-.088-.104a8.03 8.03 0 0 0 2.398-3.054h-2.087l-.064-.24h2.263c.223-.501.402-1.02.536-1.551l.871.248c-.04.104-.111.152-.327.144a8.72 8.72 0 0 1-.472 1.16h3.014l.393-.488.719.6c-.023.088-.096.128-.207.128h-4.046c-.275.542-.611 1.052-1 1.519zm4.414 2.782l.711.592a.19.19 0 0 1-.207.128h-4.861l-.064-.24h2.119v-2.439h-1.615l-.064-.231h1.68v-1.839l.775.08c-.008.104-.072.176-.256.208v1.551h.903l.368-.456.672.56c-.024.088-.097.128-.208.128h-1.735v2.439h1.399zm3.811-2.255a.43.43 0 0 1-.32.096 4.3 4.3 0 0 1-.855 1.719c.064.015.123.048.168.096.703.696 1.615.8 3.19.8l2.742-.048v.112c-.211.029-.375.196-.399.408h-2.495c-1.639 0-2.415-.216-3.143-1.056-.096-.104-.176-.088-.239.008l-.68 1.015c.029.056.012.124-.04.16l-.448-.536c.288-.216.736-.632 1.008-.84.35-.572.583-1.208.688-1.871h-.791l-.216.176-.456-.4a1.77 1.77 0 0 1 .319-.128 17.25 17.25 0 0 0 .848-1.399h-1.199l-.072-.24h1.304l.288-.288.592.52a.69.69 0 0 1-.433.128l-.871 1.391h.647l.32-.304zm-2.016-3.846c1.655.504 1.256 1.623.72 1.255-.158-.46-.437-.868-.808-1.183zm3.862 1.751v-.768h-1.735l-.063-.24h1.799v-.839l.743.08c-.016.096-.071.16-.231.184v.576h1.007l.336-.416.64.527c-.023.088-.096.128-.208.128H191.4v.768h1.519l.336-.424.664.536c-.024.088-.104.128-.216.128h-1.591l.719.224c-.04.096-.136.152-.304.144a4.29 4.29 0 0 1-.64.624h.744l.344-.416.632.52c-.024.088-.105.128-.216.128H191.4v.72h1.056l.335-.408.608.512c-.017.088-.097.128-.208.128H191.4v.743h1.439l.344-.424c.225.167.441.346.647.536-.017.088-.096.128-.2.128h-2.23v1.103c-.111.117-.271.176-.432.16h-.08v-1.263h-2.071l-.063-.24h2.135v-.743h-1.703l-.064-.232h1.768v-.72h-1.919l-.064-.232h2.743a9.59 9.59 0 0 0 .407-.991h-3.326l-.063-.24zm-1.088.248c1.288.368.8 1.263.36.896a1.83 1.83 0 0 0-.448-.84zm5.714-.168c-.252.319-.536.611-.848.872l-.104-.08a8.11 8.11 0 0 0 1.399-2.758l.84.224c-.024.096-.096.144-.304.16 1.99.855 1.327 1.887.888 1.495a3.43 3.43 0 0 0-.936-1.399 7.9 7.9 0 0 1-.824 1.343h.84l.288-.36.544.472c-.022.085-.105.141-.192.128h-1.567zm1.111 3.23c1.487.887 1.063 1.943.592 1.543a2.18 2.18 0 0 0-.216-.68l-1.592 1.007a.46.46 0 0 1-.191.184l-.28-.584c.216-.112.248-.167.248-.312v-3.91l.52.232h1.256l.264-.28.552.44a.41.41 0 0 1-.264.128v1.879c-.009.064-.24.176-.408.176h-.072v-.232h-1.367v1.631l1.264-.512a5 5 0 0 0-.408-.664zm.407-1.615v-.68h-1.367v.68zm0 .967v-.728h-1.367v.728zm4.693 2.039c.192.064.24.12.24.216 0 .248-.296.328-1.775.328h-1.047c-.696 0-.872-.136-.872-.583v-3.974a5.02 5.02 0 0 1-.592.856l-.104-.088a10.34 10.34 0 0 0 1.079-3.286l.832.216c-.032.096-.096.136-.296.144l-.296.864h2.071l.295-.312.584.488a.46.46 0 0 1-.319.12c-.04 2.311-.168 3.486-.472 3.83a1.03 1.03 0 0 1-.792.24c.013-.104-.033-.206-.12-.264a1.74 1.74 0 0 0-.655-.184l.008-.144.928.072c.144 0 .2-.016.264-.096.224-.216.312-1.423.359-3.51h-2.254l-.312.68.36.16h.879l.264-.28.568.44a.56.56 0 0 1-.304.152v1.831a.58.58 0 0 1-.384.16h-.072v-.264h-1.048v2.047c0 .176.057.24.464.24h.983l.96-.024c.082.007.157-.047.176-.128.118-.434.208-.874.271-1.319h.112zm-2.982-3.99v1.559h1.048v-1.559zm7.009-.463l.672.584c-.024.088-.096.128-.216.128h-1.455v.496c1.823.744 1.463 1.767.951 1.423-.238-.47-.561-.893-.951-1.247v3.702c-.11.12-.269.182-.432.168h-.08v-3.51a6.6 6.6 0 0 1-1.56 2.199l-.104-.104a8.14 8.14 0 0 0 1.439-3.126h-1.328l-.063-.232h1.615v-1.559l-1.64.264-.031-.136a15.22 15.22 0 0 0 3.038-1.087l.632.544c-.072.08-.208.072-.4.008l-1.087.288v1.679h.632zm4.03-.64c-.099.099-.229.161-.368.176v5.021a.79.79 0 0 1-.439.144h-.08v-.808h-1.799v.76c0 .064-.2.192-.424.192h-.096v-5.925l.56.256h1.671l.304-.344zm-.888 4.302v-4.246h-1.799v4.246zm-40.091 4.867l.728.607c-.023.088-.096.128-.208.128h-7.076l-.071-.24h4.27a10.16 10.16 0 0 0 .76-1.495l.848.248a.29.29 0 0 1-.312.152 8.82 8.82 0 0 1-1.056 1.096h1.712zm-3.574 1.231l.664.504c-.097.083-.217.136-.344.152v3.71c0 .408-.08.648-.72.711a.56.56 0 0 0-.136-.352.91.91 0 0 0-.52-.176v-.128l.719.048c.12 0 .152-.048.152-.152v-1.295h-1.56a3.06 3.06 0 0 1-.959 2.199l-.104-.096a5.07 5.07 0 0 0 .583-2.895v-2.167l.6.256h1.359zm-.184 2.783v-1.016h-1.535v.464l-.008.552zm-1.535-2.223v.967h1.535v-.967zm.359-2.775c1.688.488 1.256 1.679.696 1.288a2.55 2.55 0 0 0-.775-1.223zm3.167 5.829c0 .048-.216.16-.4.16h-.096v-3.558l.792.088c-.017.112-.088.192-.296.224zm1.047-3.582l.792.088c-.024.112-.096.184-.288.208v4.014c0 .424-.088.672-.823.735-.01-.136-.077-.261-.185-.344a1.51 1.51 0 0 0-.687-.192v-.128l1 .064c.151 0 .191-.048.191-.168zm4.627-1.991c-.032.088-.128.16-.312.152a12.08 12.08 0 0 1-.76 1.695l.288.112c-.024.072-.104.128-.24.144v4.766a.64.64 0 0 1-.424.176h-.096v-4.414c-.275.419-.594.808-.951 1.159l-.112-.08c.809-1.22 1.411-2.565 1.783-3.981zm4.966 3.678c-.057.056-.145.064-.305.08l-.615.488-.112-.048.16-.527h-3.966a.95.95 0 0 1-.264.671c-.136.12-.416.152-.504-.032-.08-.152.016-.32.176-.424a1.05 1.05 0 0 0 .36-.855h.144a2.13 2.13 0 0 1 .08.408h3.95l.312-.32zm-5.254-2.959h3.998l.384-.464.695.576c-.023.088-.096.128-.207.128h-4.806zm3.982 3.311a8.34 8.34 0 0 0 .655.496c-.023.088-.104.128-.216.128h-1.688v1.631c0 .424-.104.712-.847.784.001-.146-.06-.286-.168-.384-.219-.128-.466-.199-.72-.208v-.12l1.031.064c.144 0 .184-.04.184-.152V63.31h-1.847l-.063-.232h3.342zm-.264-1.016v-.232h-2.535v.184a.68.68 0 0 1-.439.144h-.08v-1.879l.56.248h2.423l.279-.288.616.456a.57.57 0 0 1-.304.144v1.048c-.008.056-.264.176-.44.176zm0-.464v-.832h-2.535v.832zm-1.775-2.895c1.335.32.855 1.295.384.928a1.51 1.51 0 0 0-.464-.872zm10.398 6.31l.752.624c-.024.088-.088.128-.208.128h-7.061l-.063-.232h1.367v-4.806l.831.088c-.016.112-.096.192-.287.224v4.494h1.655v-6.628l.823.088c-.024.12-.088.192-.288.224v2.615h1.56l.407-.512.752.616c-.03.087-.117.14-.208.128h-2.511v3.47h2.063z"/><use xlink:href="#E"/><path d="M197.028 61.759l-1.151.607v2.575c0 .432-.08.688-.768.76-.002-.142-.059-.277-.16-.376a1.05 1.05 0 0 0-.592-.192v-.136l.848.056c.136 0 .176-.04.176-.16v-2.279l-.903.44c-.015.092-.08.169-.168.2l-.248-.68a21.14 21.14 0 0 0 1.319-.399v-1.728h-1.144l-.056-.24h1.199v-1.823l.792.088c-.017.112-.097.192-.296.216v1.519h.264l.328-.439.607.551c-.024.088-.104.128-.216.128h-.983v1.567l1.111-.376zm-.832 3.822a5.61 5.61 0 0 0 2.071-1.295l.695.432c-.064.064-.128.088-.288.048a6.11 6.11 0 0 1-2.406.936zm1.552-1.367c0 .056-.208.176-.416.176h-.088v-3.718l.543.248h2.719l.28-.296.607.463a.56.56 0 0 1-.304.144v2.911c-.008.064-.271.176-.432.176h-.08v-.312h-2.83zm.239-3.83c0 .048-.231.167-.439.167h-.064v-2.047l.544.248h2.287l.279-.296.607.456a.56.56 0 0 1-.304.144v1.263a.68.68 0 0 1-.432.168h-.08v-.271h-2.399zm-.239.775v.711h2.83v-.711zm2.83 1.663v-.728h-2.83v.728zm0 .943v-.704h-2.83v.704zm-2.591-4.789v1.007h2.398v-1.007zm1.615 5.381c2.263.392 2.127 1.543 1.495 1.327a7.92 7.92 0 0 0-1.567-1.247zm6.608-2.119c.32 1.056 1.184 2.183 3.383 2.935l-.024.104c-.279.04-.472.128-.527.432-1.536-.553-2.671-1.869-2.99-3.47h-.097c-.327 1.56-1.23 2.687-3.718 3.462l-.08-.152c2.127-.8 2.942-1.863 3.255-3.311h-3.079l-.071-.231h3.198a11.15 11.15 0 0 0 .144-1.711h-1.767c-.27.536-.642 1.014-1.096 1.407l-.12-.08c.627-.909 1.043-1.948 1.216-3.039l.831.208c-.032.104-.12.176-.296.176a7.52 7.52 0 0 1-.424 1.104h1.655v-1.655l.848.096c-.024.112-.096.192-.288.224l-.016 1.335h1.511l.408-.504.735.6c-.016.088-.096.128-.208.128h-2.446c-.008.573-.056 1.145-.144 1.711h2.374l.416-.504.735.607c-.023.088-.096.128-.208.128zm3.859-3.566l.168-.144a5.71 5.71 0 0 1 0 8.276l-.168-.136a6.59 6.59 0 0 0 0-7.996zm-68.62 25.349l-.023 1.263a3.41 3.41 0 0 1-1.735.432 2.85 2.85 0 0 1-2.927-3.046 2.9 2.9 0 0 1 .803-2.158 2.89 2.89 0 0 1 2.124-.889 3.17 3.17 0 0 1 1.655.432l.031 1.255h-.439l-.191-1.079a2.01 2.01 0 0 0-.968-.248c-1.271 0-2.23.976-2.23 2.687 0 1.727.903 2.687 2.175 2.687a2.49 2.49 0 0 0 1.104-.248l.191-1.087z"/><use xlink:href="#C" x="-22.53" y="63.214"/><path d="M147.907 83.581v1c0 .064-.168.192-.392.192h-.088V79.44l.52.256h.976l.279-.328.624.496a.57.57 0 0 1-.336.152v4.094a.57.57 0 0 1-.407.192h-.08v-.72zm0-3.654v3.414h1.096v-3.414zm6.461 1.967c-.064.064-.145.088-.336.096-.277.914-.749 1.757-1.384 2.471a5.8 5.8 0 0 0 2.055 1.263l-.023.088a.6.6 0 0 0-.52.392c-.707-.335-1.334-.817-1.839-1.415a6.7 6.7 0 0 1-2.583 1.423l-.08-.128a6.52 6.52 0 0 0 2.423-1.607c-.52-.77-.877-1.638-1.048-2.551h-.08c-.14 1.718-1.051 3.279-2.479 4.246l-.119-.136c2.143-1.775 2.198-4.11 2.223-6.404h-.888l-.072-.24h3.087l.256-.28.551.464c-.075.066-.172.1-.271.096l-.312 2.015h.535l.336-.32zm-3.278-2.263l-.104 2.055h1.415l.336-2.055zm.111 2.294a5.62 5.62 0 0 0 1.16 2.223 6.11 6.11 0 0 0 1.127-2.223zm6.609-2.342c-.064.072-.176.088-.36.096a20.17 20.17 0 0 1-1.031 1.847 2.41 2.41 0 0 1 1.031 1.871c.008.744-.256 1.096-.991 1.127a.81.81 0 0 0-.088-.416.86.86 0 0 0-.384-.12v-.12h.527c.07.006.14-.011.2-.048.128-.072.2-.24.2-.543-.008-.643-.256-1.259-.696-1.727.192-.488.472-1.392.64-2.015h-.927v6.508c-.097.13-.255.2-.416.184h-.08v-7.18l.592.256h.808l.336-.336zm1.694-.408c-.04.096-.104.136-.312.128a10.33 10.33 0 0 1-.871 1.871l.487.184c-.032.072-.104.12-.248.144v4.501a.49.49 0 0 1-.399.192h-.088V81.55c-.203.302-.436.583-.695.839l-.104-.088c.673-1.039 1.147-2.194 1.399-3.406zm2.551 1.248a6.66 6.66 0 0 1 .56.56.18.18 0 0 1-.199.128h-.88v4.27c0 .464-.08.744-.831.832a.65.65 0 0 0-.168-.432 1.26 1.26 0 0 0-.672-.224v-.128l.976.063c.151 0 .184-.048.184-.167V81.11h-1.991l-.063-.24h2.055v-1.863l.808.096c-.024.12-.096.184-.296.208v1.559h.216zm-2.838 1.535c1.639.991 1.191 2.111.68 1.671a4.63 4.63 0 0 0-.776-1.615zm3.914.144c.564-.171.977-.655 1.056-1.24h-.96l-.063-.232h1.566v-.759h-1.23l-.064-.24h1.295v-.76l.704.08c-.017.096-.08.16-.24.184v.496h.576l.312-.36.592.472c-.016.088-.096.128-.208.128h-1.271v.759h.792l.328-.384.6.488c-.022.085-.105.141-.192.128h-.903v.608c0 .08.016.104.111.104h.232a1.56 1.56 0 0 0 .224-.008h.096c.042-.003.082-.014.12-.032h.072l.032.016c.144.04.208.072.208.168 0 .176-.168.24-.792.24h-.328c-.384 0-.447-.112-.447-.4v-.696h-.6a1.83 1.83 0 0 1-1.503 1.359zm3.702 1.439a22.81 22.81 0 0 1-3.158.76.3.3 0 0 1-.192.176l-.271-.64 1.527-.136v-.879h-1.216l-.063-.232h1.279v-.759l.671.072c-.016.08-.063.136-.199.16v.527h.64l.296-.352c.201.139.393.291.575.456-.016.088-.088.128-.191.128h-1.319v.816l1.599-.224zm-2.359.768c.143.657-.099 1.338-.623 1.759-.216.152-.512.184-.607 0-.08-.152.023-.32.184-.424a1.85 1.85 0 0 0 .903-1.343zm1.111.144c1.24.983.624 2.055.177 1.559a3.42 3.42 0 0 0-.288-1.519zm4.822-.568c.093.111.128.259.096.4-.136.208-.464.072-.664-.128-.687-.728-.8-2.023-.815-3.718h-.703a8.32 8.32 0 0 1-.177 1.511c1.063.872.776 1.695.305 1.383a2.83 2.83 0 0 0-.456-.863c-.285.796-.847 1.463-1.583 1.879l-.112-.128a3.55 3.55 0 0 0 1.359-2.159 5.75 5.75 0 0 0-.752-.728l.088-.072a5.8 5.8 0 0 1 .744.392c.06-.402.094-.808.104-1.215h-.976l-.071-.24h1.056l.008-1.247.76.08c-.017.104-.089.184-.265.208l-.023.959h.607l.264-.336.6.472a.44.44 0 0 1-.288.12 5.91 5.91 0 0 0 .536 3.207c.056.08.096.072.136-.032.084-.208.153-.422.208-.64l.096.016zm-3.23.536c1.527.864 1.047 2.015.552 1.567-.078-.554-.305-1.076-.656-1.511zm1.767-.048c1.871.863 1.367 2.279.784 1.799a3.12 3.12 0 0 0-.88-1.735zm-19.142 8.048c-.049.064-.137.08-.312.088a4.18 4.18 0 0 1-1.007 1.743.38.38 0 0 1 .119.088c.704.704 1.607.815 3.183.815l2.719-.048v.104a.46.46 0 0 0-.4.416h-2.479c-1.623 0-2.398-.224-3.126-1.063-.096-.112-.176-.096-.24 0l-.647 1.023c.028.058.011.128-.04.168l-.447-.536 1.023-.888a5.01 5.01 0 0 0 .823-1.847h-.888l-.224.184-.448-.416a1.84 1.84 0 0 1 .32-.12l.871-1.391h-1.343l-.072-.232h1.52l.296-.296.607.536c-.154.099-.338.141-.52.12l-.903 1.375h.759l.313-.296zm-2.184-3.862c1.711.464 1.336 1.615.784 1.263-.181-.465-.479-.875-.864-1.191zm2.967 1.431c-.206.398-.477.76-.8 1.071l-.12-.072a7.15 7.15 0 0 0 .832-2.319l.791.232c-.046.114-.166.181-.287.16l-.288.688h.951v-1.263l.8.08c-.016.112-.096.191-.288.224v.959h.68l.368-.456.68.567c-.017.088-.097.128-.208.128h-1.52v1.231h1.119l.368-.479.688.591c-.023.088-.096.128-.216.128h-4.525l-.063-.24h2.118v-1.231zm2.534 4.669v-.496h-2.494v.384c0 .048-.224.168-.44.168h-.071v-2.743l.552.248h2.383l.279-.304.607.48c-.086.079-.195.129-.312.144v1.935a.62.62 0 0 1-.424.184zm0-.728V92.46h-2.494v1.471zm9.121 1.209c.239.296.264.399.191.488-.168.24-.655.04-1.039-.224-.511-.332-.94-.775-1.256-1.295a6.42 6.42 0 0 1-2.398 1.655l-.08-.104a6.32 6.32 0 0 0 2.255-1.943 9.39 9.39 0 0 1-.84-3.39h-2.614v1.319h1.375l.288-.304.592.472a.45.45 0 0 1-.304.12c-.048 1.599-.176 2.343-.456 2.607a1.01 1.01 0 0 1-.695.24c.014-.133-.027-.265-.112-.368-.162-.093-.342-.15-.527-.168v-.136l.76.048c.128 0 .184-.008.239-.064a5.17 5.17 0 0 0 .288-2.215h-1.447c.135 1.444-.333 2.88-1.295 3.966l-.112-.096a6.79 6.79 0 0 0 .88-3.926v-1.999l.615.272h2.511l-.056-1.591.815.088c-.017.104-.08.2-.28.224l.032 1.279h1.791l.384-.479.695.591c-.016.08-.096.12-.208.12h-2.646c.048.997.267 1.979.647 2.902a7.61 7.61 0 0 0 .872-2.151l.84.256c-.032.096-.104.144-.32.136a7.51 7.51 0 0 1-1.151 2.23c.287.489.691.898 1.176 1.191.144.104.199.104.271-.056a7.25 7.25 0 0 0 .352-.896l.104.016zm-2.096-6.46c1.68.136 1.504 1.191.96.951a2.61 2.61 0 0 0-1.031-.872zm4.674 5.421c.72.768 1.607.912 3.079.912l2.559-.04v.104a.52.52 0 0 0-.416.463h-2.311c-1.527 0-2.287-.264-3.022-1.215-.112-.12-.184-.104-.264.008l-.855 1.183c.031.063.014.139-.04.184l-.48-.616a9.83 9.83 0 0 1 1.472-1.095h.048a13.53 13.53 0 0 0 4.166-3.358h-5.189l-.072-.232h5.325l.392-.335.584.543c-.072.08-.151.096-.359.096a12.22 12.22 0 0 1-4.646 3.374zm.872-5.597c1.895.704 1.471 2.015.888 1.584a3.13 3.13 0 0 0-.976-1.519zm-7.908 12.958l-1.151.608v2.574c0 .432-.08.688-.768.76-.002-.142-.059-.277-.16-.376a1.05 1.05 0 0 0-.592-.192v-.136l.848.056c.136 0 .176-.04.176-.16v-2.279l-.903.44c-.016.092-.08.169-.168.2l-.248-.68c.264-.064.735-.208 1.319-.4v-1.727h-1.144l-.056-.24h1.199v-1.823l.792.088c-.017.112-.097.192-.296.216v1.519h.264l.328-.439.607.552c-.024.088-.105.128-.216.128h-.983v1.567l1.111-.376zm-.832 3.822c.777-.274 1.484-.717 2.071-1.295l.695.432c-.064.064-.128.088-.288.048a6.11 6.11 0 0 1-2.406.936zm1.552-1.367c0 .056-.208.176-.416.176h-.088v-3.718l.543.248h2.719l.28-.296.607.464a.57.57 0 0 1-.304.144v2.911c-.008.064-.271.176-.432.176h-.08v-.312h-2.83zm.239-3.83c0 .048-.231.168-.439.168h-.065v-2.047l.544.248h2.287l.279-.296.607.456a.56.56 0 0 1-.304.144v1.264c-.12.104-.273.163-.432.167h-.08v-.271h-2.398zm-.239.776v.711h2.83v-.711zm2.83 1.663v-.728h-2.83v.728zm0 .943v-.704h-2.83v.704zm-2.591-4.79v1.008h2.398v-1.008zm1.615 5.381c2.263.392 2.127 1.543 1.495 1.327a7.92 7.92 0 0 0-1.567-1.247zm6.608-2.118c.32 1.055 1.184 2.183 3.383 2.934l-.024.104c-.279.04-.472.128-.527.432-1.536-.553-2.671-1.869-2.99-3.47h-.097c-.327 1.559-1.23 2.687-3.718 3.462l-.08-.152c2.127-.8 2.942-1.863 3.255-3.31h-3.079l-.071-.232h3.198a11.15 11.15 0 0 0 .144-1.711h-1.767c-.27.536-.642 1.014-1.096 1.407l-.12-.08c.627-.909 1.043-1.948 1.216-3.039l.831.208c-.032.104-.12.176-.296.176a7.54 7.54 0 0 1-.424 1.104h1.655V98.12l.848.096c-.024.112-.096.192-.288.224l-.016 1.335h1.511l.408-.504.735.6c-.016.088-.096.128-.208.128h-2.446c-.008.573-.056 1.145-.144 1.711h2.374l.416-.504.735.608c-.023.088-.096.128-.208.128z"/><use xlink:href="#D" x="-54.726" y="82.414"/><path d="M135.257 122.085a2.64 2.64 0 0 1 2.814 2.918 2.74 2.74 0 0 1-2.958 2.911h-2.343v-.288l.831-.088.024-2.455v-.288l-.024-2.343-.831-.088v-.28zm-.216 5.501c1.479 0 2.263-.968 2.263-2.583 0-1.687-.783-2.59-2.175-2.59h-.815l-.024 2.383v.288l.024 2.503z"/><use xlink:href="#C" x="-25.844" y="105.54"/><path d="M148.12 121.389c-.017.096-.12.136-.32.152a8.62 8.62 0 0 0 3.471 2.351l-.009.12a.61.61 0 0 0-.495.416 7.28 7.28 0 0 1-3.11-2.791 10.56 10.56 0 0 1-3.838 3.086l-.064-.12a8.97 8.97 0 0 0 3.423-3.438zm1.287 4.214l.647.496a.6.6 0 0 1-.344.168v2.055c-.008.056-.264.168-.439.168h-.08v-.456h-3.398v.32c0 .056-.224.176-.439.176h-.072v-2.862l.56.256h1.991a5.76 5.76 0 0 0 .903-1.375h-3.446l-.071-.232h3.582l.352-.28.535.456c-.063.072-.144.088-.319.088a4.81 4.81 0 0 1-1.255 1.343h.999zm-.216 2.19v-1.631h-3.398v1.631zm-.895-4.813a6.86 6.86 0 0 1 .632.496c-.028.085-.112.138-.2.128h-2.494l-.057-.24h1.783zm6.576.688c-.056.072-.136.096-.312.104a6.2 6.2 0 0 1-2.742 4.038l-.088-.104a6.76 6.76 0 0 0 2.27-3.998h-2.055l-.072-.232h2.087l.336-.328zm4.055-.536c-.049.08-.12.104-.305.064a12.37 12.37 0 0 1-1.942 1.543c.618 1.051 1.511 1.913 2.582 2.495l-.031.08a.63.63 0 0 0-.504.448 7.53 7.53 0 0 1-2.982-5.005v4.989c0 .44-.088.72-.896.8-.005-.156-.082-.301-.208-.392a1.66 1.66 0 0 0-.768-.216v-.128l1.136.072c.151 0 .199-.048.199-.184v-6.468l.816.088c-.024.112-.089.184-.28.216v.6a8.14 8.14 0 0 0 .855 2.462 12.93 12.93 0 0 0 1.599-1.911zm7.463 2.823l.752.608c-.017.088-.105.128-.216.128h-3.19v1.655c0 .064-.232.176-.424.176h-.104v-1.831h-3.317l-.072-.24h3.39v-.832l.792.08c-.016.104-.08.176-.264.2v.552h2.246zm-4.086-1.639l-1.823 1.367c-.007.084-.047.162-.111.216l-.424-.551c.392-.168 1.343-.64 2.303-1.144zm-2.278-2.119h3.39l-.023-.016a1.88 1.88 0 0 0-.592-.983l.088-.056c1.031.264 1.104.856.896 1.056h2.015l.408-.496.743.607a.19.19 0 0 1-.208.128h-3.406l.504.264a.27.27 0 0 1-.312.104 7 7 0 0 1-1.048.808l1.359-.008.536-.616.607.384c-.04.072-.144.128-.32.088a12.39 12.39 0 0 1-2.254 1.711l1.99-.184c-.123-.214-.27-.412-.439-.592l.08-.056c1.631.648 1.151 1.783.623 1.359a1.89 1.89 0 0 0-.176-.536l-2.27.479c-.028.034-.064.061-.104.08l-.296-.567a.93.93 0 0 0 .208-.056 8.69 8.69 0 0 0 1.591-1.271l-1.279.184a.3.3 0 0 1-.12.136l-.288-.552.152-.04a4.18 4.18 0 0 0 1.071-1.12h-3.055zm.392.616c1.695.583 1.287 1.711.743 1.327-.16-.488-.447-.924-.831-1.263zm4.485 1.407c2.295.479 2.191 1.719 1.575 1.463a5.04 5.04 0 0 0-1.647-1.375zm1.791-1.096c-.082.093-.215.122-.328.072a7.18 7.18 0 0 1-1.271.848l-.104-.104a8.42 8.42 0 0 0 1.016-1.271zm-20.205 11.623c-.048.064-.136.08-.312.088a4.18 4.18 0 0 1-1.007 1.743.38.38 0 0 1 .119.088c.704.704 1.607.815 3.183.815l2.719-.048v.104a.46.46 0 0 0-.4.416h-2.479c-1.623 0-2.398-.224-3.126-1.063-.096-.112-.176-.096-.24 0l-.647 1.023c.028.058.012.129-.04.168l-.447-.536 1.023-.888a5.01 5.01 0 0 0 .823-1.847h-.888l-.224.184-.448-.416a1.84 1.84 0 0 1 .32-.12l.871-1.391h-1.343l-.072-.232h1.52l.296-.296.607.536a.8.8 0 0 1-.52.12l-.903 1.375h.759l.313-.296zm-2.183-3.862c1.711.464 1.336 1.615.784 1.263-.181-.465-.479-.875-.864-1.191zm2.967 1.431c-.206.398-.477.76-.8 1.071l-.12-.072a7.15 7.15 0 0 0 .832-2.319l.791.232c-.046.114-.166.181-.287.16l-.288.688h.951v-1.263l.8.08c-.016.112-.096.191-.288.224v.959h.68l.368-.456.68.567c-.017.088-.097.128-.208.128h-1.519v1.231h1.119l.368-.48.688.591c-.023.088-.096.128-.216.128h-4.525l-.064-.24h2.119v-1.231zm2.534 4.669v-.496h-2.494v.384c0 .048-.224.168-.439.168h-.072v-2.743l.552.248h2.383l.279-.304.607.479a.56.56 0 0 1-.312.144v1.935a.62.62 0 0 1-.424.184zm0-.728v-1.471h-2.494v1.471zm9.12 1.209c.239.296.264.399.191.488-.168.24-.655.04-1.039-.224-.511-.332-.94-.775-1.256-1.295a6.42 6.42 0 0 1-2.398 1.655l-.08-.104a6.32 6.32 0 0 0 2.255-1.943 9.39 9.39 0 0 1-.84-3.39h-2.614v1.319h1.375l.288-.304.592.472a.45.45 0 0 1-.304.12c-.048 1.599-.176 2.343-.456 2.607a1.01 1.01 0 0 1-.695.24c.014-.133-.027-.265-.112-.368-.162-.093-.342-.15-.527-.168v-.136l.76.048c.128 0 .184-.008.239-.064a5.17 5.17 0 0 0 .288-2.215h-1.447c.135 1.444-.333 2.88-1.295 3.966l-.112-.096a6.79 6.79 0 0 0 .88-3.926v-1.999l.615.272h2.511l-.056-1.591.815.088c-.017.104-.08.2-.28.224l.032 1.279h1.791l.384-.48.695.591c-.016.08-.096.12-.208.12h-2.646a8.69 8.69 0 0 0 .648 2.902 7.66 7.66 0 0 0 .871-2.151l.84.256c-.032.096-.104.144-.32.136a7.51 7.51 0 0 1-1.151 2.23c.287.489.691.898 1.176 1.191.144.104.199.104.271-.056.137-.29.254-.59.352-.895l.104.016zm-2.096-6.46c1.68.136 1.504 1.191.96.951a2.61 2.61 0 0 0-1.031-.872z"/><use xlink:href="#E" x="-26.363" y="72.429"/><path d="M154.465 143.788l-1.151.607v2.574c0 .432-.08.688-.768.76-.002-.142-.059-.277-.16-.376a1.05 1.05 0 0 0-.592-.191v-.136l.848.056c.136 0 .176-.04.176-.16v-2.278l-.903.439c-.016.092-.08.169-.168.2l-.248-.68c.264-.064.735-.208 1.319-.4v-1.727h-1.144l-.056-.24h1.199v-1.823l.792.088c-.017.112-.097.192-.296.216v1.519h.264l.327-.439.608.552c-.024.088-.104.128-.216.128h-.983v1.567l1.111-.376zm-.832 3.821a5.6 5.6 0 0 0 2.071-1.295l.695.432c-.063.064-.128.088-.288.048a6.11 6.11 0 0 1-2.406.936zm1.551-1.367c0 .057-.207.176-.415.176h-.088V142.7l.543.248h2.719l.28-.296.607.464a.56.56 0 0 1-.304.144v2.911c-.008.063-.272.176-.432.176h-.08v-.312h-2.831zm.24-3.83c0 .049-.231.168-.439.168h-.064v-2.047l.544.248h2.287l.279-.296.608.456a.57.57 0 0 1-.305.144v1.264c-.12.104-.273.164-.432.168h-.08v-.271h-2.398zm-.24.776v.711h2.831v-.711zm2.831 1.663v-.727h-2.831v.728zm0 .943v-.704h-2.831v.704zm-2.591-4.79v1.008h2.398v-1.008zm1.615 5.382c2.263.392 2.127 1.543 1.495 1.327a7.93 7.93 0 0 0-1.567-1.247zm6.609-2.118c.32 1.056 1.184 2.183 3.383 2.935l-.024.104c-.279.04-.472.128-.527.432-1.536-.552-2.671-1.869-2.99-3.47h-.097c-.327 1.56-1.231 2.687-3.718 3.462l-.08-.151c2.127-.8 2.942-1.863 3.255-3.311h-3.079l-.071-.231h3.198a11.12 11.12 0 0 0 .144-1.712h-1.767a4.59 4.59 0 0 1-1.096 1.407l-.12-.079a7.39 7.39 0 0 0 1.216-3.039l.831.208c-.032.104-.12.176-.296.176a7.57 7.57 0 0 1-.424 1.104h1.655v-1.655l.848.096c-.024.112-.096.192-.288.224l-.016 1.335h1.511l.408-.504.735.6c-.016.088-.096.128-.208.128h-2.446a12.14 12.14 0 0 1-.145 1.712h2.375l.416-.504.735.607c-.023.088-.096.128-.208.128z"/><use xlink:href="#D" x="-58.043" y="124.74"/><path d="M138.432 188.547l-.056 1.512h-4.437v-.288l.831-.088.024-2.318v-.44l-.024-2.326-.831-.088v-.28h4.277l.056 1.503h-.392l-.216-1.151h-2.183l-.024 2.351h1.399l.12-.863h.328v2.023h-.328l-.112-.84h-1.407l.024 2.446h2.343l.208-1.151z"/><use xlink:href="#C" x="-25.61" y="167.685"/><path d="M150.816 187.771l.647.576c-.017.08-.097.119-.2.119h-.983v1.424c0 .424-.088.695-.92.783a.5.5 0 0 0-.199-.392 1.98 1.98 0 0 0-.808-.224v-.128l1.191.08c.168 0 .216-.057.216-.192v-1.352h-4.094v2.023c0 .056-.176.191-.44.191h-.079v-2.215h-1.08l-.063-.231h1.144v-3.206l.615.264h1.647v-1.039h-3.11l-.072-.24h5.893l.392-.487.736.6c-.024.088-.105.128-.216.128h-3.095v1.039h1.727l.296-.359.736.552c-.116.105-.261.172-.416.191v2.559h.191zm-5.149-2.238v1.215h1.743v-1.215zm0 2.702h1.743v-1.255h-1.743zm2.271-2.702v1.215h1.823v-1.215zm1.823 2.702v-1.255h-1.823v1.255zm8.878 1.36l.76.624c-.023.088-.096.128-.208.128h-7.067l-.064-.24h3.358v-2.327h-2.398l-.064-.224h2.463v-2.031h-1.799a7.07 7.07 0 0 1-1.504 1.855l-.104-.08a10.43 10.43 0 0 0 1.775-3.662l.839.264c-.032.097-.136.168-.312.16a9.41 9.41 0 0 1-.56 1.231h1.663v-1.927l.831.096c-.023.112-.088.192-.279.224v1.607h1.807l.408-.496a9.05 9.05 0 0 1 .743.6c-.023.089-.104.128-.216.128h-2.742v2.031h1.511l.416-.504.743.608c-.016.079-.096.119-.208.119h-2.462v2.327h2.255zm4.611-3.966a.42.42 0 0 1-.304.112c-.256 1.839-.8 3.749-2.583 4.94l-.104-.104a7.28 7.28 0 0 0 2.15-4.917h-1.063c-.12.339-.262.67-.424.991 1.479.407 1.136 1.471.6 1.119a2.18 2.18 0 0 0-.695-.943 6.35 6.35 0 0 1-.695 1.008l-.112-.097a10.32 10.32 0 0 0 1.159-3.542h-1.007l-.064-.239h2.287l.367-.456a8.7 8.7 0 0 1 .688.567c-.017.088-.097.128-.208.128h-1.504c-.077.417-.181.828-.312 1.231h.936l.312-.327zm3.894 4.541c.232.192.256.272.208.368-.112.248-.544.144-.928-.032-.485-.201-.932-.485-1.319-.839-.899.456-1.861.777-2.854.951l-.048-.136a9.62 9.62 0 0 0 2.606-1.111 3.73 3.73 0 0 1-.703-1.184l-1.48.151-.088-.224 1.487-.151a4.91 4.91 0 0 1-.216-1.199l.768.071c-.008.088-.072.168-.224.2a3.15 3.15 0 0 0 .176.88l1.927-.2.304-.448.647.456c-.011.088-.087.154-.176.152l-2.614.264a3.18 3.18 0 0 0 .607.959 5.27 5.27 0 0 0 .991-.919l.64.415c-.063.072-.136.097-.304.04a4.88 4.88 0 0 1-.999.776 3.6 3.6 0 0 0 1.056.623c.128.064.191.064.247-.048a4.06 4.06 0 0 0 .272-.687l.096.016zm-2.886-5.517a5.24 5.24 0 0 1-.2-1.207l.751.063c-.008.096-.071.176-.224.208a3.54 3.54 0 0 0 .168.888l1.64-.168.295-.448.656.448c-.011.09-.093.155-.184.144l-2.327.232a2.66 2.66 0 0 0 .456.743 3.99 3.99 0 0 0 .951-.775l.592.376c-.056.072-.128.096-.288.04a4.61 4.61 0 0 1-.976.64 3.08 3.08 0 0 0 .983.552c.128.048.185.048.232-.057.098-.213.18-.431.248-.655l.096.016-.064.8c.225.184.248.248.2.352-.112.232-.512.16-.871.009a3.74 3.74 0 0 1-1.296-.792c-.631.27-1.291.468-1.967.592l-.056-.128c.622-.171 1.223-.413 1.791-.72-.23-.279-.412-.596-.536-.936l-1.375.136-.08-.216zm.735 2.135c1.471.048 1.223 1.071.711.815-.176-.323-.45-.58-.783-.735zm.128-3.318c1.399 0 1.167.968.68.736a1.62 1.62 0 0 0-.744-.656zm-18.735 10.872c1.566 1.047 1.111 2.19.615 1.751-.021-.189-.067-.375-.136-.552l-1.791 1.055c-.044.075-.107.136-.184.177l-.288-.6c.191-.089.224-.137.224-.265v-2.406l.624.072c.503-.177.994-.386 1.471-.624l.584.536c-.08.071-.216.063-.392-.009a17.59 17.59 0 0 1-1.791.336v2.191l1.487-.616a5.8 5.8 0 0 0-.536-.991zm3.565 2.263l.64.495c-.09.091-.209.148-.336.16v2.807c-.008.056-.264.176-.439.176h-.08v-.456h-4.062v.32c0 .056-.224.184-.439.184h-.088v-3.622l.575.256h3.934zm-4.277.552v1.063h1.799v-1.063zm0 2.391h1.799v-1.088h-1.799zm5.541-5.837a.61.61 0 0 1-.312.12c-.08 1.398-.265 2.215-.584 2.479a1.13 1.13 0 0 1-.76.248c.015-.133-.032-.266-.128-.36-.191-.102-.4-.164-.615-.184l.008-.136.896.056a.38.38 0 0 0 .271-.072 4.5 4.5 0 0 0 .408-2.095h-1.264a3.13 3.13 0 0 1-2.079 2.998l-.104-.119a3.06 3.06 0 0 0 1.615-2.879h-.895l-.072-.24h2.734l.28-.304zm-3.23 3.446v1.063h1.751v-1.063zm1.751 2.391v-1.088h-1.751v1.088zm5.369-4.135c-.056.071-.136.096-.312.104a6.2 6.2 0 0 1-2.742 4.038l-.088-.104a6.76 6.76 0 0 0 2.27-3.997h-2.055l-.072-.232h2.087l.336-.327zm4.055-.536c-.049.08-.12.104-.305.064a12.4 12.4 0 0 1-1.942 1.543 6.71 6.71 0 0 0 2.582 2.494l-.031.08c-.24.04-.436.214-.504.448a7.53 7.53 0 0 1-2.982-5.006v4.989c0 .44-.088.72-.896.8-.005-.156-.082-.3-.208-.392a1.66 1.66 0 0 0-.768-.216v-.128l1.136.072c.151 0 .199-.049.199-.185v-6.468l.816.088c-.024.111-.089.184-.28.216v.6a8.13 8.13 0 0 0 .855 2.462 12.92 12.92 0 0 0 1.599-1.91zm3.937-1.159c-.04.088-.111.128-.304.112a6.67 6.67 0 0 1-2.67 2.814l-.08-.097a6.93 6.93 0 0 0 2.246-3.158zm2.391 2.127l.608.512a.51.51 0 0 1-.32.12c-.08 1.822-.264 3.11-.64 3.454-.243.218-.562.33-.888.312.014-.146-.046-.29-.159-.384a2.55 2.55 0 0 0-.848-.231l.008-.145 1.207.096c.114.015.23-.016.32-.088a7.82 7.82 0 0 0 .479-3.086h-1.959a4.38 4.38 0 0 1-2.935 3.87l-.096-.136a4.25 4.25 0 0 0 2.455-3.734h-1.319l-.072-.231h3.846zm-.096-2.383c-.152.113-.338.172-.527.168.495 1.088 1.401 1.936 2.519 2.358l-.017.096c-.217.046-.395.2-.472.408a5 5 0 0 1-2.263-2.902h-.903l-.072-.24h.784l.256-.359zm-18.67 13.03c-.049.063-.137.08-.312.088a4.18 4.18 0 0 1-1.007 1.743.37.37 0 0 1 .119.088c.704.703 1.607.815 3.183.815l2.719-.048v.104a.46.46 0 0 0-.4.416h-2.479c-1.623 0-2.398-.224-3.126-1.063-.096-.111-.176-.096-.24 0l-.647 1.023c.028.058.011.129-.04.168l-.447-.535 1.023-.888c.397-.553.677-1.182.823-1.848h-.888l-.224.185-.448-.416a1.82 1.82 0 0 1 .32-.12l.871-1.391h-1.343l-.072-.232h1.52l.296-.296.607.536c-.154.099-.338.141-.52.12l-.903 1.375h.759l.313-.296zm-2.184-3.862c1.711.464 1.336 1.615.784 1.264-.181-.465-.479-.875-.864-1.191zm2.967 1.432a4.12 4.12 0 0 1-.8 1.071l-.12-.072c.409-.719.691-1.503.832-2.318l.791.231c-.046.114-.166.181-.287.16l-.288.688h.951v-1.263l.8.08c-.016.111-.096.191-.288.224v.959h.68l.368-.455.68.567c-.017.088-.097.128-.208.128h-1.52v1.231h1.119l.368-.479.688.591c-.023.088-.096.128-.216.128h-4.525l-.063-.239h2.118v-1.231zm2.534 4.669v-.495h-2.494v.384c0 .048-.224.168-.44.168h-.071v-2.743l.552.248h2.383l.279-.304.607.479a.57.57 0 0 1-.312.145v1.935a.62.62 0 0 1-.424.184zm0-.728v-1.471h-2.494v1.471zm9.121 1.208c.239.296.264.399.191.487-.168.24-.655.04-1.039-.224a4.05 4.05 0 0 1-1.256-1.296 6.41 6.41 0 0 1-2.398 1.655l-.08-.104c.895-.459 1.669-1.125 2.255-1.943a9.39 9.39 0 0 1-.84-3.39h-2.614v1.319h1.375l.288-.304.592.472a.45.45 0 0 1-.304.119c-.048 1.6-.176 2.343-.456 2.607a1.01 1.01 0 0 1-.695.239c.014-.133-.027-.265-.112-.367a1.3 1.3 0 0 0-.527-.168v-.137l.76.049c.128 0 .184-.009.239-.064.256-.708.355-1.464.288-2.215h-1.447c.135 1.444-.333 2.88-1.295 3.966l-.112-.096a6.79 6.79 0 0 0 .88-3.926v-1.999l.615.271h2.511l-.056-1.591.815.088c-.017.105-.08.2-.28.224l.032 1.279h1.791l.384-.479.695.592c-.016.08-.096.12-.208.12h-2.646c.048.997.267 1.979.647 2.902a7.61 7.61 0 0 0 .872-2.151l.84.256c-.032.097-.105.145-.32.137a7.52 7.52 0 0 1-1.151 2.23 3.42 3.42 0 0 0 1.176 1.191c.144.104.199.104.271-.056a7.28 7.28 0 0 0 .352-.896l.105.016zm-2.096-6.461c1.68.136 1.504 1.191.96.951a2.6 2.6 0 0 0-1.031-.871zm4.674 5.421c.72.768 1.607.912 3.079.912l2.559-.04v.104a.52.52 0 0 0-.416.464h-2.311c-1.527 0-2.287-.264-3.022-1.215-.112-.12-.184-.104-.264.008l-.855 1.183c.031.063.014.14-.04.185l-.48-.616c.456-.41.948-.776 1.472-1.095h.048a13.54 13.54 0 0 0 4.166-3.358h-5.189l-.072-.232h5.325l.392-.335.584.543c-.072.08-.151.097-.359.097a12.22 12.22 0 0 1-4.646 3.374zm.872-5.597c1.895.704 1.471 2.015.888 1.583a3.13 3.13 0 0 0-.976-1.519zm-8.489 12.958l-1.151.607v2.574c0 .433-.08.688-.768.76-.002-.142-.059-.277-.16-.376a1.05 1.05 0 0 0-.592-.191v-.136l.848.056c.136 0 .176-.04.176-.16v-2.278l-.903.439c-.016.092-.08.169-.168.2l-.248-.68a21.14 21.14 0 0 0 1.319-.399v-1.728h-1.144l-.056-.24h1.199v-1.822l.792.088c-.017.111-.097.191-.296.216v1.519h.264l.328-.439.607.552c-.024.088-.104.128-.216.128h-.983v1.567l1.111-.376zm-.832 3.821a5.6 5.6 0 0 0 2.071-1.295l.695.432c-.064.064-.128.088-.288.048a6.11 6.11 0 0 1-2.406.936zm1.552-1.367c0 .057-.208.176-.416.176h-.088v-3.718l.543.248h2.719l.28-.296.607.464a.56.56 0 0 1-.304.144v2.911c-.008.063-.271.176-.432.176h-.08v-.312h-2.83zm.239-3.829c0 .048-.231.167-.439.167h-.064v-2.047l.544.248h2.287l.279-.296.607.456a.56.56 0 0 1-.304.144v1.264c-.12.104-.273.164-.432.168h-.08v-.271h-2.398zm-.239.775v.711h2.83v-.711zm2.83 1.663v-.728h-2.83v.728zm0 .943v-.704h-2.83v.704zm-2.591-4.789v1.007h2.398v-1.007zm1.615 5.381c2.263.392 2.127 1.543 1.495 1.327a7.9 7.9 0 0 0-1.567-1.247zm6.608-2.118c.32 1.056 1.184 2.183 3.383 2.935l-.024.104c-.279.04-.472.128-.527.432-1.536-.552-2.671-1.869-2.99-3.47h-.097c-.327 1.56-1.23 2.687-3.718 3.462l-.08-.151c2.127-.8 2.942-1.863 3.255-3.311h-3.079l-.071-.231h3.198a11.12 11.12 0 0 0 .144-1.712h-1.767a4.59 4.59 0 0 1-1.096 1.407l-.12-.079c.627-.909 1.043-1.948 1.216-3.039l.831.208c-.032.104-.12.176-.296.176a7.5 7.5 0 0 1-.424 1.104h1.655v-1.655l.848.097c-.024.111-.096.191-.288.224l-.016 1.335h1.511l.408-.504.735.6c-.016.089-.096.128-.208.128h-2.446a12.28 12.28 0 0 1-.144 1.712h2.374l.416-.504.735.607c-.023.088-.096.128-.208.128z"/><use xlink:href="#D" x="-58.387" y="196.484"/></g><path d="M31.506 155.019h71.306v15.111H31.506z" fill="#dcdddd"/><path d="M50.875 159.998c-.056.063-.144.08-.296.088a4.1 4.1 0 0 1-.647.695l-.105-.056a6.79 6.79 0 0 0 .185-.728h-5.541c.03.325-.109.642-.368.84-.184.119-.439.128-.52-.049-.064-.159.04-.304.191-.392a1.01 1.01 0 0 0 .448-.959l.144-.008c.037.106.064.216.08.327h5.518l.327-.319zm-.704.848l.632.487c-.016.088-.096.128-.208.128h-1.223l-.048.848a.82.82 0 0 1-.496.056l.016-.159H45.39l-.216.231-.567-.399a1.12 1.12 0 0 1 .296-.152l.056-.424h-1.312l-.071-.239h1.407l.08-.992.615.256h3.166l.248-.287.624.479a.55.55 0 0 1-.328.136l-.016.408h.455zm-3.926 4.277l.608.456c-.064.071-.185.088-.368.023a8.98 8.98 0 0 1-2.782.728l-.04-.144a7.49 7.49 0 0 0 2.534-1.063h-1.016v.08c0 .056-.224.176-.432.176h-.08v-2.95l.561.248h3.829l.272-.28.575.439c-.071.076-.168.121-.271.128v2.144c-.12.104-.273.164-.432.168h-.08v-.152zm-1.063-2.207v.488h3.942v-.488zm3.942.72h-3.942v.504h3.942zm-3.942 1.247h3.942v-.512h-3.942zm1.655-2.918l.048-.504H45.43l-.071.504zm-1.327-1.247l-.056.504h1.447l.031-.504zm1.312-1.783c1.175.208.623 1.119.16.72a.9.9 0 0 0-.248-.664zm2.039 3.03l.031-.504h-1.526l-.048.504zm-1.439-1.247l-.032.504h1.503l.017-.504zm.24 4.558c3.798.224 2.942 1.358 2.318.983a7.33 7.33 0 0 0-2.351-.848zm6.648-5.518c-.064.072-.176.088-.352.088l-.976 1.911a2.5 2.5 0 0 1 .999 1.919c.008.768-.248 1.104-.967 1.136a.65.65 0 0 0-.089-.4.92.92 0 0 0-.375-.128v-.119h.527c.065.006.13-.011.184-.049.12-.071.185-.247.185-.552.004-.655-.233-1.289-.664-1.782l.592-2.063h-1.071v6.429a.47.47 0 0 1-.408.176h-.088v-7.1l.592.264h.943l.344-.328zm4.461.192a.49.49 0 0 1-.312.08 5.63 5.63 0 0 1-1.007 1.247c.362.483.837.87 1.383 1.127l-.016.088c-.194.028-.352.17-.4.36a4.36 4.36 0 0 1-1.767-2.791.68.68 0 0 1-.224.032c-.355 1.29-1.198 2.392-2.352 3.07l-.088-.128a5.28 5.28 0 0 0 1.967-2.982H54.91l-.176.32c1.151.264.903.983.504.751-.141-.255-.341-.472-.584-.632a4.45 4.45 0 0 1-.815.976l-.112-.08a6.29 6.29 0 0 0 1.088-2.391l.695.265c-.04.079-.104.104-.296.063a3.5 3.5 0 0 1-.191.488h.911l.296-.28.495.439.064-.023c.118.426.307.829.56 1.191a9.05 9.05 0 0 0 .576-1.184h-1.016l-.072-.24h1.071l.313-.312zm-3.598 1.391a6.53 6.53 0 0 1-.823.608c.003.078-.041.151-.112.184l-.352-.456c.426-.113.841-.265 1.239-.455zm-1.264 4.51a5.44 5.44 0 0 0 1.152-1.655l.688.328c-.04.08-.128.088-.265.063a5.06 5.06 0 0 1-1.486 1.368zm2.751-1.927v2.263a.53.53 0 0 1-.424.144h-.08v-2.406h-1.735l-.063-.232h3.286l.344-.439.632.544c-.016.088-.096.128-.2.128zm.536-1.887c.201.16.393.331.575.512-.016.088-.088.128-.191.128h-2.352l-.056-.24h1.711zm-.04 2.255c1.975.751 1.646 1.967 1.079 1.599a4.15 4.15 0 0 0-1.167-1.535zm3.115-.592v.999c0 .064-.168.192-.392.192h-.088v-5.333l.52.256h.976l.279-.328.624.495a.57.57 0 0 1-.336.152v4.094a.57.57 0 0 1-.407.192h-.08v-.72zm0-3.654v3.414h1.096v-3.414zm6.461 1.967c-.064.064-.145.088-.336.096a6.6 6.6 0 0 1-1.384 2.471c.589.56 1.289.991 2.055 1.264l-.023.088a.6.6 0 0 0-.52.392c-.707-.335-1.334-.817-1.839-1.415a6.71 6.71 0 0 1-2.583 1.423l-.08-.128a6.52 6.52 0 0 0 2.423-1.606c-.52-.769-.877-1.638-1.048-2.551h-.079a5.69 5.69 0 0 1-2.48 4.245l-.119-.136c2.143-1.774 2.198-4.109 2.223-6.404h-.888l-.072-.24h3.087l.256-.279.552.464a.4.4 0 0 1-.272.096l-.312 2.015h.535l.336-.319zm-3.278-2.263l-.104 2.055h1.415l.336-2.055zm.111 2.295a5.63 5.63 0 0 0 1.159 2.223 6.08 6.08 0 0 0 1.128-2.223zm6.609-2.343c-.064.072-.176.088-.36.096a20.11 20.11 0 0 1-1.031 1.847c.616.429.997 1.121 1.031 1.871.008.744-.256 1.096-.991 1.128a.81.81 0 0 0-.088-.416.88.88 0 0 0-.384-.12v-.12h.527c.07.006.14-.011.2-.048.128-.071.2-.239.2-.543a2.57 2.57 0 0 0-.696-1.728c.192-.487.472-1.392.64-2.015h-.927v6.508a.46.46 0 0 1-.416.185h-.08v-7.181l.592.256h.808l.336-.336zm1.694-.408c-.039.097-.104.137-.312.128a10.33 10.33 0 0 1-.871 1.871l.487.185c-.032.071-.104.119-.248.144v4.501a.49.49 0 0 1-.399.192h-.088v-4.646a5.49 5.49 0 0 1-.695.84l-.104-.088a10.03 10.03 0 0 0 1.399-3.406zm2.551 1.248a6.58 6.58 0 0 1 .56.56.18.18 0 0 1-.199.128h-.88v4.27c0 .464-.08.743-.831.831a.65.65 0 0 0-.168-.432c-.198-.137-.431-.215-.672-.224v-.128l.976.063c.151 0 .184-.048.184-.167v-4.214h-1.991l-.063-.24h2.055v-1.863l.808.097c-.024.119-.096.184-.296.208v1.559h.216zm-2.838 1.535c1.639.991 1.191 2.11.68 1.671a4.63 4.63 0 0 0-.776-1.615zm10.639 3.43c.279.048.352.112.352.231 0 .296-.479.353-3.087.345H77.51c-1.119 0-1.503-.145-1.503-.856v-5.461h-.32l-.063-.239h5.757l.359-.464.68.575c-.023.088-.096.128-.208.128h-5.725v5.397c0 .352.152.487.976.487h2.071l1.919-.04a2.91 2.91 0 0 0 .344-.031 2.6 2.6 0 0 0 .296-.08h.096zm-3.486-.368v-.359h-1.159v.344c0 .048-.2.16-.393.16h-.071V162.7l.504.224h1.055l.256-.256.552.416c-.074.071-.17.116-.271.128v1.775a.61.61 0 0 1-.399.151zm0-.6v-1.375h-1.159v1.375zm1.919-2.422h-2.135v.247c0 .048-.224.16-.432.16h-.072v-2.303l.544.24h2.022l.28-.296.607.464a.57.57 0 0 1-.312.144v1.487c-.009.056-.256.168-.424.168h-.08zm0-.24v-1.184h-2.135v1.184zm.8 3.23v-.328h-1.176v.24c0 .048-.208.151-.399.151h-.072v-2.47l.512.224h1.063l.264-.279.576.447c-.083.074-.186.121-.296.137v1.719a.61.61 0 0 1-.4.16zm0-.568v-1.375h-1.176v1.375zm4.553-.695l-2.095 1.383c-.011.091-.069.17-.152.208l-.352-.663c.208-.064.584-.208 1.031-.392v-2.854h-.903l-.056-.225h.959v-2.158l.808.088c-.024.111-.088.191-.296.216v1.855h.168l.344-.463.615.56c-.023.088-.096.128-.207.128h-.92v2.639l1.008-.433zm2.398.32l-2.614 1.087a.28.28 0 0 1-.168.184l-.296-.6c.52-.104 1.759-.439 3.038-.799zm2.351 1.551c.152.231.192.424.104.504-.192.191-.561-.024-.856-.36a4.13 4.13 0 0 1-.871-1.399 6.13 6.13 0 0 1-2.574 1.76l-.072-.145a6.13 6.13 0 0 0 2.471-2.087 13.35 13.35 0 0 1-.512-3.294h-2.639l-.063-.239h2.694l-.032-1.359.792.096c-.017.104-.088.191-.288.216v1.048h1.023l.344-.433.632.544c-.026.086-.111.14-.2.128h-1.791c.024.928.148 1.85.368 2.751.345-.667.608-1.373.783-2.104l.76.248c-.04.096-.104.136-.32.128a8.29 8.29 0 0 1-1.047 2.303 3.17 3.17 0 0 0 .815 1.327c.096.097.16.112.224-.023.12-.282.216-.574.288-.872l.096.024zm-3.198-1.871v-.416h-1.031v.464c0 .04-.144.152-.368.152h-.063v-2.679l.52.224h.88l.247-.248.521.4a.45.45 0 0 1-.248.12v1.822c-.103.099-.24.156-.384.16zm0-.64v-1.383h-1.031v1.383zm1.728-3.87c1.279.264.879 1.159.432.84a1.48 1.48 0 0 0-.52-.768zm14.287 92.922v.999c0 .064-.168.192-.392.192h-.088v-5.333l.52.256h.976l.279-.328.624.495a.57.57 0 0 1-.336.152v4.094a.57.57 0 0 1-.407.192h-.08v-.72zm0-3.654v3.414h1.096v-3.414zm6.461 1.967c-.064.064-.145.088-.336.096a6.6 6.6 0 0 1-1.384 2.471c.589.56 1.289.991 2.055 1.264l-.023.088a.6.6 0 0 0-.52.392c-.707-.335-1.334-.817-1.839-1.415a6.71 6.71 0 0 1-2.583 1.423l-.08-.128a6.52 6.52 0 0 0 2.423-1.606c-.52-.769-.877-1.638-1.048-2.551h-.079a5.69 5.69 0 0 1-2.479 4.245l-.119-.136c2.143-1.774 2.198-4.109 2.223-6.404h-.888l-.072-.24h3.087l.256-.279.552.464a.4.4 0 0 1-.272.096l-.312 2.015h.535l.336-.319zm-3.278-2.263l-.104 2.055h1.415l.336-2.055zm.111 2.295a5.63 5.63 0 0 0 1.159 2.223 6.08 6.08 0 0 0 1.128-2.223zm6.609-2.343c-.064.072-.176.088-.36.096-.311.633-.655 1.25-1.031 1.847.616.429.997 1.121 1.031 1.871.008.744-.256 1.096-.991 1.128a.81.81 0 0 0-.088-.416.88.88 0 0 0-.384-.12v-.12h.527c.07.006.14-.011.2-.048.128-.071.2-.239.2-.543a2.57 2.57 0 0 0-.696-1.728c.192-.487.472-1.392.64-2.015h-.927v6.508a.46.46 0 0 1-.416.185h-.08v-7.181l.592.256h.808l.336-.336zm1.694-.408c-.039.097-.104.137-.312.128a10.33 10.33 0 0 1-.871 1.871l.487.185c-.032.071-.104.119-.248.144v4.501a.49.49 0 0 1-.399.192h-.088v-4.646a5.49 5.49 0 0 1-.695.84l-.104-.088a10.03 10.03 0 0 0 1.399-3.406zm2.551 1.248a6.58 6.58 0 0 1 .56.56.18.18 0 0 1-.199.128h-.88v4.27c0 .464-.08.743-.831.831a.65.65 0 0 0-.168-.432c-.198-.137-.431-.215-.672-.224v-.128l.976.063c.151 0 .184-.048.184-.167v-4.214h-1.991l-.063-.24h2.055v-1.863l.808.097c-.024.119-.096.184-.296.208v1.559h.216zm-2.838 1.535c1.639.991 1.191 2.11.68 1.671a4.63 4.63 0 0 0-.776-1.615zm3.819.807c.436-.505.679-1.148.688-1.815h-.44l-.071-.224h1.263l.225-.256.512.399a.44.44 0 0 1-.288.112c-.048 1.007-.072 1.399-.256 1.575a.48.48 0 0 1-.336.119c0-.086-.038-.168-.104-.224a.56.56 0 0 0-.288-.104v-.136l.392.016c.032.002.063-.013.08-.04.107-.404.153-.822.136-1.239h-.447c-.018.752-.359 1.46-.936 1.943zm3.886-.009l.783.088c-.016.112-.088.185-.288.216v2.975c0 .064-.216.168-.399.168h-.096v-1.471h-2.503a2.35 2.35 0 0 1-1.224 1.487l-.104-.105a2.69 2.69 0 0 0 .943-2.27v-1.079l.768.079c-.024.104-.08.177-.271.2v.352h2.391zm.527-3.494l.655.552c-.023.088-.104.128-.216.128h-4.685l-.064-.231h3.966zm-.527 5.237v-.871h-2.391v.224a3.02 3.02 0 0 1-.064.647zm-1.991-4.453c1.016.336.688 1.039.336.768a1.6 1.6 0 0 0-.424-.712zm.28-1.256c1.311.265.943 1.136.495.832-.117-.304-.316-.57-.575-.768zm1.511 1.416c-.057.112-.18.174-.304.151a7.02 7.02 0 0 1-.52.68l.208.024c-.017.111-.097.176-.272.199v1.592c0 .056-.168.144-.304.144h-.08v-2.007l.232.023.415-.983zm.408.959c1.319.672.927 1.647.527 1.279a1.26 1.26 0 0 0-.056-.288l-1 .576c-.034.07-.09.126-.159.16l-.217-.456c.168-.088.192-.128.192-.224v-1.552l.472.057.624-.424.472.392c-.04.056-.104.071-.248.023l-.943.24v1.304l.743-.265a2.66 2.66 0 0 0-.495-.768zm1.711 3.183c0 .063-.2.168-.368.168h-.096v-4.758l.751.088c-.023.112-.088.184-.287.216zm1.519-5.222c-.016.12-.096.192-.287.224v6.102c0 .432-.08.688-.784.759a.51.51 0 0 0-.16-.375 1.28 1.28 0 0 0-.631-.192v-.128l.903.056c.136 0 .176-.04.176-.168v-6.364zm7.8 3.911c-.064.072-.128.104-.296.056-.524.403-1.093.744-1.695 1.016a4.85 4.85 0 0 0 2.351 1.279l-.008.096a.67.67 0 0 0-.487.528 4.88 4.88 0 0 1-3.07-3.687h-.097a5.91 5.91 0 0 1-1.144 1.08v2.086l1.983-.671.048.12-2.326 1.183c-.026.069-.07.13-.129.176l-.423-.56c.279-.184.327-.239.327-.352v-1.639a9.84 9.84 0 0 1-2.03.919l-.072-.136a7.99 7.99 0 0 0 3.006-2.207h-2.782l-.072-.231h3.287v-.92h-2.415l-.064-.239h2.479v-.872h-2.775l-.071-.231h2.847v-.983l.823.088c-.017.111-.104.191-.296.224v.672h1.999l.367-.48.68.584c-.016.088-.088.128-.199.128h-2.847v.872h1.671l.352-.44.648.552c-.024.088-.104.128-.216.128h-2.455v.92h2.255l.376-.488.688.592c-.017.088-.096.128-.208.128h-3.03a4.76 4.76 0 0 0 .911 1.655 7.8 7.8 0 0 0 1.384-1.399zm7.568-4.03l.743.608c-.024.088-.096.128-.208.128h-3.222l-.664 1.175h2.918l.28-.336.615.48a.47.47 0 0 1-.327.144v4.758a.57.57 0 0 1-.448.176H141v-.584h-5.1v.464c0 .048-.168.168-.432.168h-.08v-5.525l.607.256h1.799l.216-1.175h-3.11l-.063-.24h6.148zm-5.493 6.317h1.295v-4.166H135.9zm3.286-4.166h-1.495v1.207h1.495zm0 1.431h-1.495v1.248h1.495zm-1.495 2.735h1.495v-1.264h-1.495zm1.99-4.166v4.166H141v-4.166zm3.155-.368c1.639.176 1.312 1.296.743.976a2.1 2.1 0 0 0-.815-.903zm2.055-.424l-.936 3.198a3.67 3.67 0 0 0-.104.704 7.95 7.95 0 0 1 .208 1.391c-.017.344-.168.544-.44.544-.144 0-.239-.136-.256-.392.112-.8.064-1.439-.104-1.56a.67.67 0 0 0-.384-.111v-.176h.344c.088 0 .12-.009.191-.176.128-.272.128-.272 1.327-3.454zm-1.527-1.423c1.728.248 1.407 1.399.823 1.079a2.34 2.34 0 0 0-.903-.999zm6.245 5.573c-.064.056-.145.071-.288.016a5.34 5.34 0 0 1-.936.368 4.03 4.03 0 0 0 1.743.728l-.008.088a.54.54 0 0 0-.408.432c-1.089-.304-1.968-1.109-2.366-2.167h-.808v1.575l1.239-.448.048.112-1.439.88a.45.45 0 0 1-.184.199l-.28-.567c.145-.088.16-.128.16-.24v-1.511h-.552a2.85 2.85 0 0 1-1.063 2.247l-.104-.097a3.99 3.99 0 0 0 .711-2.662v-1.439l.16.072v-2.583l.504.225h.775v-.855l.712.088c-.008.104-.088.176-.272.199v.568h.792v-.855l.712.088c-.009.104-.088.176-.272.199v.568h.68l.28-.296.6.472a.57.57 0 0 1-.336.151v1.791c0 .009-.016.024-.032.04l.624.48c-.024.088-.096.128-.208.128h-4.246v.512h3.015l.344-.393.647.504c-.016.088-.096.128-.208.128h-3.798v.479h3.526l.344-.392a7.48 7.48 0 0 1 .655.504c-.016.088-.096.128-.207.128h-2.327c.174.284.386.542.632.768.312-.228.609-.476.888-.743zm-3.91-2.527a.54.54 0 0 1-.352.152l.296.128h3.334l.264-.304a.53.53 0 0 1-.224.048h-.072v-.256h-3.246zm0-2.007v.632h.815v-.632zm0 1.535h.815v-.671h-.815zm1.255-1.535v.632h.792v-.632zm0 1.535h.792v-.671h-.792zm1.231-1.535v.632h.76v-.632zm0 1.535h.76v-.671h-.76zm3.914.416a6.04 6.04 0 0 1-1.239 4.302l-.128-.088a7.9 7.9 0 0 0 .848-4.206v-2.278l.616.264h4.797l.392-.496.704.6c-.017.088-.096.128-.2.128H152.1zm4.958 1.688c-.107.076-.238.11-.368.096a4.86 4.86 0 0 1-1.375 1.303 9.51 9.51 0 0 0 2.878.616l-.008.096a.57.57 0 0 0-.447.464 7.46 7.46 0 0 1-2.862-.911 9.48 9.48 0 0 1-3.23.911l-.057-.128a9.73 9.73 0 0 0 2.935-1.031c-.475-.372-.858-.848-1.119-1.392h-.632l-.072-.239h3.415l.384-.312zm-1.319-.561v-.352h-1.72v.28c0 .056-.224.16-.407.16h-.096v-1.647h-1.16l-.063-.232h1.224v-.879l.791.08c-.016.111-.088.184-.288.216v.583h1.72v-.879l.799.08c-.016.111-.088.184-.287.216v.583h.655l.352-.472.64.576c-.008.088-.088.128-.199.128h-1.447v1.392c0 .056-.225.167-.408.167zm-2.135.584a3.37 3.37 0 0 0 1.279 1.159c.469-.302.872-.696 1.183-1.159zm.447-4.861c1.6.28 1.216 1.359.656 1.023a2.81 2.81 0 0 0-.736-.959zm1.688 3.687v-.968h-1.72v.968zM.863 103.656v1c0 .064-.168.192-.392.192H.384v-5.333l.52.256h.976l.279-.328.624.496a.57.57 0 0 1-.336.152v4.094a.57.57 0 0 1-.407.192h-.08v-.72zm0-3.654v3.414h1.096v-3.414zm6.461 1.967c-.064.064-.145.088-.336.096-.277.914-.749 1.757-1.384 2.471a5.8 5.8 0 0 0 2.055 1.263l-.023.088a.6.6 0 0 0-.52.392c-.707-.335-1.334-.817-1.839-1.415a6.71 6.71 0 0 1-2.583 1.423l-.08-.128c.918-.346 1.747-.896 2.423-1.607a6.77 6.77 0 0 1-1.048-2.551H3.91a5.69 5.69 0 0 1-2.48 4.246l-.119-.136c2.143-1.775 2.198-4.11 2.223-6.404h-.888l-.072-.24h3.087l.256-.28.552.464c-.075.065-.173.1-.272.096l-.312 2.015h.535l.336-.32zm-3.278-2.263l-.104 2.055h1.415l.336-2.055zM4.157 102a5.63 5.63 0 0 0 1.159 2.223A6.08 6.08 0 0 0 6.444 102zm-1.39 7.258c-.064.072-.176.088-.36.096a20.25 20.25 0 0 1-1.031 1.847 2.41 2.41 0 0 1 1.031 1.871c.008.744-.256 1.096-.991 1.127a.81.81 0 0 0-.088-.416.86.86 0 0 0-.384-.12v-.12h.527c.07.006.14-.011.2-.048.128-.072.2-.24.2-.543-.008-.643-.256-1.259-.696-1.727a23.13 23.13 0 0 0 .64-2.015H.888v6.508c-.097.13-.255.2-.416.184h-.08v-7.18l.592.256h.808l.336-.335zm1.694-.408c-.039.096-.104.136-.312.128a10.33 10.33 0 0 1-.871 1.871l.487.184c-.032.072-.104.12-.248.144v4.502c-.096.123-.244.194-.399.191H3.03v-4.645c-.203.302-.436.583-.695.839l-.104-.088c.673-1.039 1.147-2.194 1.399-3.406zm2.551 1.248a6.66 6.66 0 0 1 .56.56.18.18 0 0 1-.199.128h-.88v4.27c0 .464-.08.744-.831.832a.65.65 0 0 0-.168-.432c-.198-.137-.431-.215-.672-.224v-.128l.976.064c.151 0 .184-.048.184-.168v-4.214H3.989l-.063-.24H5.98v-1.863l.808.096c-.024.12-.096.184-.296.208v1.559h.216zm-2.838 1.535c1.639.991 1.191 2.111.68 1.671a4.63 4.63 0 0 0-.776-1.615zm-2.822 9.712c.151 1.494-.292 2.987-1.231 4.158l-.12-.08a7.48 7.48 0 0 0 .831-4.07v-2.215l.624.272H6.34l.393-.496.711.6c-.016.088-.104.128-.216.128H1.352zm3.317.192a6.88 6.88 0 0 0 2.854 2.807l-.016.08a.6.6 0 0 0-.496.432 6.93 6.93 0 0 1-2.454-3.134v3.582c0 .08-.216.192-.408.192h-.104v-3.278a6.87 6.87 0 0 1-2.807 2.846l-.096-.12a7.21 7.21 0 0 0 2.59-3.406H1.767l-.063-.232h2.118v-.008h.225v-1.439l.815.096c-.024.112-.096.192-.304.224v1.127h1.694l.36-.472.672.576c-.024.088-.097.128-.208.128zm-1.367-3.406c1.72.416 1.327 1.543.752 1.184-.196-.427-.48-.808-.832-1.12zm3.294 10.079l.752.616a.19.19 0 0 1-.208.128H.271l-.072-.24H3.75a2.29 2.29 0 0 0-.872-.967l.072-.072c1.255.16 1.399.839 1.151 1.039H6.18zm-.031 3.086l.672.504a.6.6 0 0 1-.336.152v2.415c0 .408-.097.656-.824.728a.49.49 0 0 0-.159-.36 1.49 1.49 0 0 0-.656-.192v-.12l.936.056c.144 0 .184-.056.184-.168v-2.463H1.263v3.055c0 .056-.224.176-.432.176H.743v-3.718l.576.256H6.3zm-1.415-.016v-.312H2.423v.2a.61.61 0 0 1-.433.168h-.071v-2.015l.544.248h2.606l.287-.312.656.488a.66.66 0 0 1-.344.16v1.215a.72.72 0 0 1-.44.16zm.335 1.367a.51.51 0 0 1-.295.144v1.311a.66.66 0 0 1-.424.168h-.08v-.376H2.83v.32c0 .048-.224.16-.416.16h-.079v-2.135l.535.24h1.743l.28-.288zm-.335-1.911v-.927H2.423v.927zm-.464 2.918v-.936H2.83v.936zm-3.295 6.755a6.04 6.04 0 0 1-1.239 4.301l-.128-.088a7.9 7.9 0 0 0 .848-4.206v-2.279l.616.264h4.797l.392-.496.704.6c-.017.088-.096.128-.2.128h-5.79zm4.958 1.687c-.107.076-.238.11-.368.096a4.86 4.86 0 0 1-1.375 1.303 9.51 9.51 0 0 0 2.878.616l-.008.096a.57.57 0 0 0-.447.464 7.44 7.44 0 0 1-2.862-.911 9.48 9.48 0 0 1-3.23.911l-.057-.128a9.73 9.73 0 0 0 2.935-1.031 3.94 3.94 0 0 1-1.119-1.392h-.632l-.072-.239h3.415l.384-.312zm-1.319-.56v-.353H3.31v.28c0 .056-.224.16-.407.16h-.096v-1.647h-1.16l-.063-.231h1.224v-.88l.791.08c-.016.112-.088.184-.288.216v.584h1.72v-.88l.799.08c-.016.112-.088.184-.287.216v.584h.655l.352-.472.64.576c-.008.088-.088.128-.199.128h-1.45v1.392c0 .056-.225.168-.408.168zm-2.135.583a3.37 3.37 0 0 0 1.279 1.159c.469-.302.872-.696 1.183-1.159zm.447-4.861c1.6.28 1.216 1.359.656 1.023a2.8 2.8 0 0 0-.736-.959zm1.688 3.686v-.968H3.31v.968z" fill="#231815"/></svg>