<svg xmlns="http://www.w3.org/2000/svg" xmlns:xlink="http://www.w3.org/1999/xlink" viewBox="0 0 1060.105 1617.343" xmlns:v="https://vecta.io/nano"><style><![CDATA[.B{isolation:isolate}.K{fill:none}.L{stroke-miterlimit:2}.M{stroke:#fff}.N{stroke-width:3}.O{stroke-width:1.5}.P{stroke-opacity:.9}]]></style><g class="K"><g stroke="#000" stroke-miterlimit="10" class="O P"><path d="M63.855 9.75v1600"/><path d="M.012 1549.75h1035.844"/></g><use xlink:href="#B" class="B L M N"/></g><use xlink:href="#B" class="B"/><path d="M307.855 1543.75v12m242-12v12m244-12v12m242-12v12m-978-248h12m-12-244h12m-12-242h12m-12-244h12m-12-242h12m-12-242h12" stroke="#000" class="K L O P"/><g class="B K L M N"><use xlink:href="#B" x="241.182"/><use xlink:href="#C"/><use xlink:href="#B" x="267.997"/><use xlink:href="#D"/></g><g class="B"><use xlink:href="#B" x="241.182"/><use xlink:href="#C"/><use xlink:href="#B" x="267.997"/><use xlink:href="#D"/><g class="K L M N"><use xlink:href="#B" x="491.825"/><use xlink:href="#C" x="250.643"/><use xlink:href="#E"/></g><use xlink:href="#B" x="491.825"/><use xlink:href="#C" x="250.643"/><use xlink:href="#E"/><g class="K L M N"><use xlink:href="#B" x="726.896"/><use xlink:href="#C" x="485.714"/><use xlink:href="#F"/><use xlink:href="#G"/></g><use xlink:href="#B" x="726.896"/><use xlink:href="#C" x="485.714"/><use xlink:href="#F"/><use xlink:href="#G"/><g class="K L M N"><use xlink:href="#B" x="977.539"/><use xlink:href="#H"/><use xlink:href="#I"/></g><use xlink:href="#B" x="977.539"/><use xlink:href="#H"/><use xlink:href="#I"/><g class="K L M N"><use xlink:href="#J"/><use xlink:href="#K"/><use xlink:href="#J" x="26.814"/><use xlink:href="#L"/></g><use xlink:href="#J"/><use xlink:href="#K"/><use xlink:href="#J" x="26.814"/><use xlink:href="#L"/><g class="K L M N"><use xlink:href="#J" x="15.572" y="-242.858"/><use xlink:href="#C" x="-264.533" y="-509.714"/><use xlink:href="#M"/></g><use xlink:href="#J" x="15.572" y="-242.858"/><use xlink:href="#C" x="-264.533" y="-509.714"/><use xlink:href="#M"/><g class="K L M N"><use xlink:href="#J" y="-485.715"/><use xlink:href="#K" y="-485.715"/><use xlink:href="#N"/><use xlink:href="#L" y="-485.715"/></g><use xlink:href="#J" y="-485.715"/><use xlink:href="#K" y="-485.715"/><use xlink:href="#N"/><use xlink:href="#L" y="-485.715"/><g class="K L M N"><use xlink:href="#J" x="15.572" y="-728.573"/><use xlink:href="#C" x="-264.533" y="-995.428"/><use xlink:href="#O"/></g><use xlink:href="#J" x="15.572" y="-728.573"/><use xlink:href="#C" x="-264.533" y="-995.428"/><use xlink:href="#O"/><g class="K L M N"><use xlink:href="#P"/><use xlink:href="#K" y="-971.429"/><use xlink:href="#Q"/><use xlink:href="#R"/></g><use xlink:href="#P"/><use xlink:href="#K" y="-971.429"/><use xlink:href="#Q"/><use xlink:href="#R"/><g class="K L M N"><use xlink:href="#P" x="15.572" y="-242.858"/><use xlink:href="#C" x="-264.533" y="-1481.142"/><use xlink:href="#S"/></g><use xlink:href="#P" x="15.572" y="-242.858"/><use xlink:href="#C" x="-264.533" y="-1481.142"/><use xlink:href="#S"/></g><g stroke-linecap="round" stroke-linejoin="round" class="K"><path d="M16.031 1609.75h0l40.613-117.187 41.171-115.104 41.525-112.5 42.051-110.417 42.564-108.333 43.062-106.25 43.544-104.167 44.008-102.083 44.451-100 45.113-98.437 45.524-96.354 46.165-94.792 46.535-92.708 47.147-91.146 47.751-89.583L710.569 9.75" stroke="#000" stroke-width="2.5"/><path d="M540.385 337.031l2.134 8.537m1.358 5.433l2.134 8.537m1.358 5.433l2.134 8.537m1.358 5.433l2.134 8.537m1.358 5.433l2.134 8.537m1.358 5.433l2.134 8.537m1.358 5.433l2.134 8.537m1.358 5.433l2.134 8.537m1.358 5.433l2.134 8.537m1.358 5.433l2.134 8.537m1.358 5.433l2.134 8.537m1.358 5.433l2.134 8.537m1.358 5.433l2.134 8.537m1.358 5.433l2.134 8.537m1.358 5.433l2.134 8.537m1.358 5.433l2.134 8.537m1.358 5.433l2.134 8.537m1.358 5.433l2.134 8.537m1.358 5.433l2.134 8.537m1.358 5.433l2.134 8.537m1.358 5.433l2.134 8.537m1.358 5.433l2.134 8.537m1.358 5.433l2.134 8.537m1.358 5.433l2.134 8.537m1.358 5.433l2.134 8.537m1.358 5.433l2.134 8.537m1.358 5.433l2.134 8.537m1.358 5.433l2.134 8.537m1.358 5.433l2.134 8.537m1.358 5.433l2.134 8.537m1.358 5.433l2.134 8.537m1.358 5.433l2.134 8.537m1.358 5.433l2.134 8.537m1.358 5.433l2.134 8.537m1.358 5.433l2.134 8.537m1.358 5.433l2.134 8.537m1.358 5.433l2.134 8.537m1.358 5.433l2.134 8.537m1.358 5.433l2.134 8.537m1.358 5.433l2.134 8.537m1.358 5.433l2.134 8.537m1.358 5.433l2.134 8.537m1.358 5.433l2.134 8.537m1.358 5.433l2.134 8.537m1.358 5.433l2.134 8.537m1.358 5.433l2.134 8.537m1.358 5.433l2.134 8.537m1.358 5.433l2.134 8.537m1.358 5.433l2.134 8.537m1.358 5.433l2.134 8.537m1.358 5.433l2.134 8.537m1.358 5.433l2.134 8.537m1.358 5.433l2.134 8.537m1.358 5.433l2.134 8.537m1.358 5.433l2.134 8.537m1.358 5.433l2.134 8.537m1.358 5.433l2.134 8.537m1.358 5.433l2.134 8.537m1.358 5.433l2.134 8.537m1.358 5.433l2.134 8.537m1.358 5.433l2.134 8.537m1.358 5.433l2.134 8.537m1.358 5.433l2.134 8.537m1.358 5.433l2.134 8.537m1.358 5.433l2.134 8.537m1.358 5.433l2.134 8.537m1.358 5.433l2.134 8.537m1.358 5.433l2.134 8.537m1.358 5.433l2.134 8.537m1.358 5.433l2.134 8.537m1.358 5.433l2.134 8.537m1.358 5.433l2.134 8.537m1.358 5.433l2.134 8.537m1.358 5.433l2.134 8.537m1.358 5.433l2.134 8.537m1.358 5.433l2.134 8.537m1.358 5.433l2.134 8.537m1.358 5.433l2.134 8.537m1.358 5.433l2.134 8.537m1.358 5.433l2.134 8.537m1.358 5.433l2.134 8.537m1.358 5.433l2.134 8.537m1.358 5.433l2.134 8.537m1.358 5.433l2.134 8.537m1.358 5.433l2.134 8.537m1.358 5.433l2.134 8.537m1.358 5.433l2.134 8.537m1.358 5.433l2.134 8.537m1.358 5.433l2.134 8.537m1.358 5.433l2.134 8.537m1.358 5.433l2.134 8.537m1.358 5.433l2.134 8.537M424.161 578.477l1.145 4.582m1.358 5.433l2.134 8.537m1.358 5.433l2.134 8.537m1.358 5.433l2.134 8.537m1.358 5.433l2.134 8.537m1.358 5.433l2.134 8.537m1.358 5.433l2.134 8.537m1.358 5.433l2.134 8.537m1.358 5.433l2.134 8.537m1.358 5.433l2.134 8.537m1.358 5.433l2.134 8.537m1.358 5.433l2.134 8.537m1.358 5.433l2.134 8.537m1.358 5.433l2.134 8.537m1.358 5.433l2.134 8.537m1.358 5.433l2.134 8.537m1.358 5.433l2.134 8.537m1.358 5.433l2.134 8.537m1.358 5.433l2.134 8.537m1.358 5.433l2.134 8.537m1.358 5.433l2.134 8.537m1.358 5.433l2.134 8.537m1.358 5.433l2.134 8.537m-184.256-64.416l2.134 8.537m1.358 5.433l2.134 8.537m1.358 5.433l2.134 8.537m1.358 5.433l2.134 8.537m1.358 5.433l2.134 8.537m1.358 5.433l2.134 8.537m1.358 5.433l2.134 8.537m1.358 5.433l2.134 8.537m1.358 5.433l2.134 8.537m1.358 5.433l2.134 8.537m1.358 5.433l2.134 8.537m1.358 5.433l2.134 8.537m1.358 5.433l2.134 8.537m1.358 5.433l2.134 8.537m1.358 5.433l2.134 8.537m1.358 5.433l2.134 8.537m1.358 5.433l2.134 8.537m1.358 5.433l2.134 8.537m1.358 5.433l2.134 8.537m1.358 5.433l1.8 7.2m-169.404-35.139l2.134 8.537m1.358 5.433l2.134 8.537m1.358 5.433l2.134 8.537m1.358 5.433l2.134 8.537m1.358 5.433l2.134 8.537m1.358 5.433l2.134 8.537m1.358 5.433l2.134 8.537m1.358 5.433l2.134 8.537m1.358 5.433l2.134 8.537m1.358 5.433l2.134 8.537m1.358 5.433l2.134 8.537m1.358 5.433l2.134 8.537m1.358 5.433l2.134 8.537m1.358 5.433l2.134 8.537m1.358 5.433l2.134 8.537m1.358 5.433l1.82 7.28m-147.166 26.745l.613 2.453m1.358 5.433l2.134 8.537m1.358 5.433l2.134 8.537m1.358 5.433l2.134 8.537m1.358 5.433l2.134 8.537m1.358 5.433l2.134 8.537m1.358 5.433l2.134 8.537m1.358 5.433l2.134 8.537m1.358 5.433l2.134 8.537m1.358 5.433l2.134 8.537m-91.168 35.017l1.723 6.894m1.358 5.433l2.134 8.537m1.358 5.433l2.134 8.537m1.358 5.433l2.134 8.537m1.358 5.433l2.134 8.537" stroke="#c74440"/><g stroke-width="2.5"><path d="M64.507 651.335h17.315m11.019 0h17.315m11.019 0h17.315m11.019 0h17.315m11.019 0h17.315m11.019 0h17.315m11.019 0h17.315m11.019 0h17.315m11.019 0h17.315m11.019 0h17.315m11.019 0h17.315m11.019 0h17.315m11.019 0h17.315m11.019 0h17.315m11.019 0h17.315m11.019 0h17.315m11.019 0h17.315m11.019 0H563.5m11.019 0h17.315m11.019 0h16.504M64.507 894.192h17.315m11.019 0h17.315m11.019 0h17.315m11.019 0h17.315m11.019 0h17.315m11.019 0h17.315m11.019 0h17.315m11.019 0h17.315m11.019 0h17.315m11.019 0h17.315m11.019 0h17.315m11.019 0h17.315m11.019 0h17.315m11.019 0h17.315m11.019 0h17.315m11.019 0h12.627M64.507 1098.677h17.315m11.019 0h17.315m11.019 0h17.315m11.019 0h17.315m11.019 0h17.315m11.019 0h17.315m11.019 0h17.315m11.019 0h17.315m11.019 0h17.315m11.019 0h17.315m11.019 0h17.315m11.019 0h10.186m-321.86 182.095h17.315m11.019 0h17.315m11.019 0h17.315m11.019 0h17.315m11.019 0h17.315m11.019 0h17.315m11.019 0h17.315m11.019 0h8.295M64.507 1437.657h17.315m11.019 0h17.315m11.019 0h17.315m11.019 0h6.661M64.507 1531.4h15.112" stroke="#2d70b3"/><path d="M62.947 335.62H540.56M62.947 578.477h361.836M62.947 821.335h251.958M62.947 1064.192h152.286M62.947 1307.049h60.251m-60.251 163.2h2.234" stroke="#c74440"/></g><g stroke="#388c46"><path d="M873.533.75h0L730.207 405.921 529.553 846.899l-107.708 193.647-113.124 183.421-46.858 69.662-47.82 67.105-48.812 65.827-100.724 123.346" class="O"/><path d="M730.007 405.721v.4h.4v-.4M529.353 846.699v.4h.4v-.4m-108.108 193.646v.4h.4v-.4m-113.524 183.421v.4h.4v-.4m-47.258 69.662v.4h.4v-.4m-48.22 67.105v.4h.4v-.4m-49.211 65.827v.4h.4v-.4M64.307 1549.706v.4h.4v-.4" stroke-width="7.5"/></g></g><path d="M790.979 1180.823c4.588 1.829 6.201 3.689 6.201 6.821 0 3.938-3.318 6.325-7.845 6.325a12.5 12.5 0 0 1-6.449-1.798l.155-4.651h1.581l.744 4.093a6.92 6.92 0 0 0 3.813.961c3.38 0 5.643-1.52 5.643-4.402 0-2.232-1.302-3.349-4.526-4.651l-1.271-.496c-3.473-1.396-5.674-3.349-5.674-6.604 0-3.875 3.225-6.076 7.317-6.076a8.77 8.77 0 0 1 5.457 1.767l-.155 4.341h-1.644l-.744-3.937a5.4 5.4 0 0 0-2.977-.775c-2.821 0-4.898 1.364-4.898 4.031 0 2.264 1.457 3.597 3.938 4.558zm16.523 11.658v.992h-8.155v-.992l2.884-.403.063-5.674v-15.441l-2.821-.248v-.961l4.806-1.302.465.278-.093 4.775v12.898l.062 5.674zm2.54-6.914c0-5.644 3.783-8.465 7.628-8.465 3.751 0 7.597 2.821 7.597 8.465 0 5.612-3.783 8.341-7.597 8.341-3.845 0-7.628-2.729-7.628-8.341zm12.619 0c0-4.62-1.891-7.225-4.991-7.225-3.132 0-4.992 2.604-4.992 7.225 0 4.65 1.86 7.101 4.992 7.101 3.101 0 4.991-2.45 4.991-7.101zm10.291-5.892a6.93 6.93 0 0 1 5.24-2.573c3.627 0 6.387 3.193 6.387 8.278 0 5.24-2.883 8.527-6.852 8.527-1.861.021-3.621-.842-4.744-2.326v2.884a182.85 182.85 0 0 0 .093 5.736l3.193.403v.992h-8.402v-.992l2.821-.403.063-5.675v-9.797c0-1.984-.031-3.287-.124-4.744l-2.791-.217v-.992l4.496-1.644.435.31zm.155 10.79c1.042 1.168 2.528 1.843 4.093 1.86 2.666 0 4.898-1.984 4.898-6.697 0-4.558-1.922-6.977-4.619-6.977-1.117 0-2.512.342-4.372 2.016zm17.142-5.146c.031 4.589 2.449 6.853 5.736 6.853a5.96 5.96 0 0 0 4.867-2.419l.651.496c-1.241 2.308-3.674 3.722-6.294 3.659-4.341 0-7.473-3.008-7.473-8.311 0-5.178 3.504-8.495 7.597-8.495a5.94 5.94 0 0 1 6.201 6.325 6.41 6.41 0 0 1-.217 1.922zm7.286-1.179c1.364 0 1.675-.682 1.675-1.674a4.04 4.04 0 0 0-4.031-4.124c-2.264 0-4.526 1.86-4.898 5.798zm14.723-4.465v-1.52h15.72v1.52zm0 6.76v-1.52h15.72v1.52zm26.101-2.295h7.813v1.799h-7.813zm25.362 2.512h-3.658v6.821h-2.325v-6.821h-9.333v-1.426l10.046-13.86h1.612v13.55h3.658zm-5.983-1.736v-10.635l-7.659 10.635z"/><defs ><path id="B" d="M54.19 1570.639c0 8.278-3.349 11.317-6.853 11.317-3.534 0-6.914-3.039-6.914-11.317 0-8.31 3.38-11.41 6.914-11.41 3.504 0 6.853 3.101 6.853 11.41zm-6.853 10.077c2.171 0 4.279-2.232 4.279-10.077 0-7.937-2.108-10.14-4.279-10.14-2.232 0-4.31 2.171-4.31 10.14 0 7.875 2.077 10.077 4.31 10.077z"/><path id="C" d="M299.834 1579.878c-.022-.746.363-1.444 1.005-1.824s1.44-.379 2.083 0 1.027 1.078 1.005 1.824c.002.732-.388 1.409-1.022 1.776s-1.415.367-2.049 0-1.024-1.044-1.022-1.776z"/><path id="D" d="M328.136 1568.407c1.135-.351 2.315-.528 3.503-.527 4.279 0 7.193 2.449 7.193 6.821 0 4.279-3.038 7.256-7.72 7.256-3.287 0-5.488-1.488-6.201-4.465a1.46 1.46 0 0 1 1.457-1.023c.868 0 1.24.434 1.644 1.891l.62 2.016c.745.222 1.517.337 2.294.342 3.504 0 5.426-2.232 5.426-5.705 0-3.598-2.139-5.52-5.426-5.52a10.41 10.41 0 0 0-3.379.527l-.869-.187.714-10.139h10.883v2.325h-9.674z"/><path id="E" d="M572.395 1580.53v.992h-12.247v-.992l4.899-.589.062-5.52v-12.712l-4.65.526v-1.115l6.697-1.736.465.371-.124 4.807v9.859l.063 5.52z"/><path id="F" d="M807.467 1580.53v.992h-12.248v-.992l4.899-.589.062-5.52v-12.712l-4.65.526v-1.115l6.697-1.736.465.371-.124 4.807v9.859l.062 5.52z"/><path id="G" d="M813.85 1568.407a11.83 11.83 0 0 1 3.504-.527c4.278 0 7.193 2.449 7.193 6.821 0 4.279-3.039 7.256-7.721 7.256-3.287 0-5.488-1.488-6.201-4.465a1.46 1.46 0 0 1 1.457-1.023c.868 0 1.24.434 1.644 1.891l.62 2.016a8.23 8.23 0 0 0 2.294.342c3.504 0 5.427-2.232 5.427-5.705 0-3.598-2.14-5.52-5.427-5.52-1.148-.012-2.29.166-3.38.527l-.867-.187.713-10.139h10.883v2.325h-9.674z"/><path id="H" d="M1036.191 1579.878c-.022-.746.363-1.444 1.005-1.824s1.44-.379 2.082 0 1.027 1.078 1.005 1.824c0 .731-.39 1.407-1.023 1.772s-1.413.366-2.046 0-1.023-1.041-1.023-1.772z"/><path id="I" d="M1058.605 1579.197v2.325h-13.673v-1.86l5.333-5.643c3.41-3.69 4.774-6.232 4.774-8.837 0-2.791-1.612-4.683-4.278-4.683a7.34 7.34 0 0 0-2.047.279l-.775 2.388c-.371 1.333-.837 1.923-1.643 1.923-.64-.008-1.218-.382-1.488-.962.527-3.255 3.41-4.898 6.635-4.898 4.186 0 6.14 2.325 6.14 5.735 0 2.854-1.488 5.086-6.449 10.047-.868.93-2.45 2.511-4.155 4.186z"/><path id="J" d="M15.267 1303.783c0 8.278-3.349 11.316-6.853 11.316-3.534 0-6.914-3.038-6.914-11.316 0-8.31 3.38-11.41 6.914-11.41 3.504 0 6.853 3.101 6.853 11.41zm-6.853 10.076c2.171 0 4.279-2.232 4.279-10.076 0-7.937-2.108-10.139-4.279-10.139-2.232 0-4.31 2.17-4.31 10.139 0 7.875 2.077 10.076 4.31 10.076z"/><path id="K" d="M19.729 1313.022c-.022-.746.363-1.444 1.005-1.824s1.44-.379 2.082 0 1.027 1.078 1.005 1.824c0 1.13-.916 2.046-2.046 2.046s-2.046-.916-2.046-2.046z"/><path id="L" d="M48.03 1301.55c1.134-.351 2.315-.529 3.503-.527 4.279 0 7.193 2.449 7.193 6.821 0 4.278-3.038 7.255-7.72 7.255-3.287 0-5.488-1.488-6.201-4.465a1.46 1.46 0 0 1 1.457-1.022c.868 0 1.24.434 1.644 1.892l.62 2.015a8.19 8.19 0 0 0 2.294.341c3.504 0 5.426-2.232 5.426-5.705 0-3.596-2.139-5.519-5.426-5.519a10.41 10.41 0 0 0-3.379.527l-.869-.187.714-10.139h10.883v2.325h-9.674z"/><path id="M" d="M57.219 1070.816v.992H44.972v-.992l4.899-.589.062-5.52v-12.712l-4.65.527v-1.117l6.697-1.736.465.373-.124 4.806v9.859l.063 5.52z"/><path id="N" d="M41.646 827.958v.992H29.399v-.992l4.899-.589.062-5.52v-12.712l-4.65.527v-1.117l6.697-1.736.465.373-.124 4.806v9.859l.063 5.52z"/><path id="O" d="M57.715 583.768v2.325H44.042v-1.86l5.333-5.644c3.41-3.689 4.774-6.231 4.774-8.836 0-2.791-1.612-4.682-4.278-4.682-.692-.004-1.381.089-2.047.278l-.775 2.388c-.371 1.333-.837 1.922-1.643 1.922-.64-.008-1.218-.381-1.488-.961.527-3.256 3.41-4.898 6.635-4.898 4.186 0 6.14 2.325 6.14 5.736 0 2.852-1.488 5.084-6.449 10.045-.868.931-2.45 2.512-4.155 4.187z"/><path id="P" d="M15.267 332.354c0 8.278-3.349 11.317-6.853 11.317-3.534 0-6.914-3.039-6.914-11.317 0-8.31 3.38-11.41 6.914-11.41 3.504 0 6.853 3.101 6.853 11.41zm-6.853 10.077c2.171 0 4.279-2.232 4.279-10.077 0-7.937-2.108-10.139-4.279-10.139-2.232 0-4.31 2.17-4.31 10.139 0 7.875 2.077 10.077 4.31 10.077z"/><path id="Q" d="M42.143 340.912v2.325H28.47v-1.86l5.333-5.643c3.41-3.69 4.774-6.232 4.774-8.836 0-2.791-1.612-4.682-4.278-4.682-.692-.004-1.381.09-2.047.279l-.775 2.388c-.371 1.333-.837 1.922-1.643 1.922-.64-.008-1.218-.382-1.488-.961.527-3.255 3.41-4.898 6.635-4.898 4.186 0 6.14 2.325 6.14 5.736 0 2.853-1.488 5.085-6.449 10.046-.868.93-2.45 2.511-4.155 4.186z"/><path id="R" d="M48.03 330.121a11.82 11.82 0 0 1 3.503-.527c4.279 0 7.193 2.449 7.193 6.821 0 4.279-3.038 7.255-7.72 7.255-3.287 0-5.488-1.488-6.201-4.465a1.46 1.46 0 0 1 1.457-1.023c.868 0 1.24.434 1.644 1.891l.62 2.015a8.21 8.21 0 0 0 2.294.341c3.504 0 5.426-2.232 5.426-5.705 0-3.597-2.139-5.519-5.426-5.519a10.41 10.41 0 0 0-3.379.527l-.869-.187.714-10.139h10.883v2.325h-9.674z"/><path id="S" d="M47.576 81.528c-.31 1.271-.682 1.829-1.674 1.829-.683.036-1.295-.42-1.457-1.085.682-2.853 3.255-4.186 6.201-4.186 3.813 0 6.231 2.17 6.231 5.302 0 2.542-1.674 4.558-4.62 5.488 3.566.62 5.334 2.697 5.334 5.581 0 3.689-3.008 6.356-7.38 6.356-3.193 0-5.644-1.364-6.325-4.527a1.57 1.57 0 0 1 1.457-.961c.931 0 1.271.62 1.675 1.984l.589 1.922a7.25 7.25 0 0 0 2.232.341c3.441 0 5.24-1.922 5.24-5.023 0-3.132-1.799-4.992-5.457-4.992h-1.582v-1.333h1.334c3.101 0 5.085-1.736 5.085-4.775 0-2.574-1.551-4.093-4.279-4.093a8.11 8.11 0 0 0-2.015.248z"/></defs></svg>