<svg width="1045" height="805" xmlns="http://www.w3.org/2000/svg" xmlns:xlink="http://www.w3.org/1999/xlink" overflow="hidden"><defs><clipPath id="clip0"><rect x="3000" y="724" width="1045" height="805"/></clipPath></defs><g clip-path="url(#clip0)" transform="translate(-3000 -724)"><text font-family="Times New Roman,Times New Roman_MSFontService,sans-serif" font-weight="400" font-size="32" transform="matrix(1 0 0 1 3315.03 1349)">Volume <tspan font-size="32" x="226.875" y="0">= V</tspan><tspan font-size="32" x="0" y="38">Substratc</tspan><tspan font-size="32" x="226.875" y="38">= S</tspan><tspan font-size="32" x="0" y="77">Active Biomass</tspan><tspan font-size="32" x="226.875" y="77">= </tspan><tspan font-size="32" x="253.229" y="77">X</tspan><tspan font-size="21" x="276.146" y="84">a</tspan><tspan font-size="32" x="0" y="115">Inert Biomass</tspan><tspan font-size="32" x="226.875" y="115">= X</tspan><tspan font-size="21" x="276.146" y="122">i</tspan><tspan font-size="28" x="-282.213" y="-582">Influent</tspan><tspan font-size="28" x="-282.213" y="-544">S</tspan><tspan font-size="18" x="-266.744" y="-552">0</tspan><tspan font-size="28" x="-257.577" y="-544">, Q</tspan><tspan font-size="28" x="531.164" y="-304">Effluent</tspan><tspan font-size="28" x="531.164" y="-266">Q, S, </tspan><tspan font-size="28" x="594.184" y="-266">X</tspan><tspan font-size="18" x="614.237" y="-260">a</tspan><tspan font-size="28" x="622.257" y="-266">, X</tspan><tspan font-size="18" x="656.059" y="-260">i</tspan></text><path d="M3089.5 965.5 3835.98 965.5" stroke="#000000" stroke-width="4.58333" stroke-miterlimit="8" fill="none" fill-rule="evenodd"/><path d="M3000.5 773.208 3298.8 773.208 3298.86 1016.85 3294.28 1016.85 3294.22 775.501 3296.51 777.792 3000.5 777.792ZM3310.26 1012.07 3296.89 1039.76 3282.76 1012.46Z"/><path d="M3825.22 836.5 3829.9 880.39C3834.13 933.455 3835.41 997.094 3835.5 1073.35 3835.98 1480.03 3794.1 1525.62 3462.5 1526.5 3126.32 1525.62 3089.02 1481.18 3089.5 1073.35 3089.84 997.309 3091.43 933.885 3095.99 881.012L3101.04 836.5" stroke="#000000" stroke-width="4.58333" stroke-miterlimit="8" fill="none" fill-rule="evenodd"/><path d="M3801.5 1051.21 3993.43 1051.21 3993.43 1055.79 3801.5 1055.79ZM3988.84 1039.75 4016.34 1053.5 3988.84 1067.25Z"/><path d="M0 0 4.20476 480.169" stroke="#000000" stroke-width="4.58333" stroke-miterlimit="8" fill="none" fill-rule="evenodd" transform="matrix(-1 0 0 1 3466.7 724.5)"/><path d="M3463.5 1201.5C3463.5 1175.54 3509.61 1154.5 3566.5 1154.5 3623.39 1154.5 3669.5 1175.54 3669.5 1201.5 3669.5 1227.46 3623.39 1248.5 3566.5 1248.5 3509.61 1248.5 3463.5 1227.46 3463.5 1201.5Z" stroke="#000000" stroke-width="4.58333" stroke-miterlimit="8" fill="none" fill-rule="evenodd"/><path d="M3255.5 1201.5C3255.5 1175.54 3301.61 1154.5 3358.5 1154.5 3415.39 1154.5 3461.5 1175.54 3461.5 1201.5 3461.5 1227.46 3415.39 1248.5 3358.5 1248.5 3301.61 1248.5 3255.5 1227.46 3255.5 1201.5Z" stroke="#000000" stroke-width="4.58333" stroke-miterlimit="8" fill="none" fill-rule="evenodd"/><path d="M3646.5 1005.5 3670 969.5 3693.5 1005.5Z" stroke="#000000" stroke-width="4.58333" stroke-miterlimit="8" fill="none" fill-rule="evenodd"/></g></svg>