<svg width="1454" height="1164" xmlns="http://www.w3.org/2000/svg" xmlns:xlink="http://www.w3.org/1999/xlink" xml:space="preserve" overflow="hidden"><defs><clipPath id="clip0"><rect x="1941" y="471" width="1454" height="1164"/></clipPath><clipPath id="clip1"><rect x="3277" y="199" width="118" height="694"/></clipPath><clipPath id="clip2"><rect x="3043" y="199" width="118" height="694"/></clipPath><clipPath id="clip3"><rect x="2809" y="199" width="118" height="694"/></clipPath><clipPath id="clip4"><rect x="3043" y="397" width="118" height="694"/></clipPath><clipPath id="clip5"><rect x="2809" y="397" width="118" height="694"/></clipPath><clipPath id="clip6"><rect x="2575" y="397" width="118" height="694"/></clipPath><clipPath id="clip7"><rect x="3277" y="595" width="118" height="694"/></clipPath><clipPath id="clip8"><rect x="3043" y="595" width="118" height="694"/></clipPath><clipPath id="clip9"><rect x="2809" y="595" width="118" height="694"/></clipPath><clipPath id="clip10"><rect x="3043" y="793" width="118" height="694"/></clipPath><clipPath id="clip11"><rect x="3043" y="991" width="118" height="694"/></clipPath><clipPath id="clip12"><rect x="2809" y="991" width="118" height="694"/></clipPath><clipPath id="clip13"><rect x="2575" y="991" width="118" height="694"/></clipPath><clipPath id="clip14"><rect x="2809" y="1189" width="118" height="694"/></clipPath></defs><g clip-path="url(#clip0)" transform="translate(-1941 -471)"><g><text font-family="Noto Sans CJK TC,Noto Sans CJK TC_MSFontService,sans-serif" font-weight="400" font-size="83" transform="matrix(1 0 0 1 3280.59 575)">{B}</text></g><g clip-path="url(#clip1)"><text font-family="Noto Sans CJK TC,Noto Sans CJK TC_MSFontService,sans-serif" font-weight="400" font-size="83" transform="matrix(1 0 0 1 3391.16 575)"> </text></g><g><text font-family="Noto Sans CJK TC,Noto Sans CJK TC_MSFontService,sans-serif" font-weight="400" font-size="83" transform="matrix(1 0 0 1 3196.03 575)">=</text></g><g><text font-family="Noto Sans CJK TC,Noto Sans CJK TC_MSFontService,sans-serif" font-weight="400" font-size="83" transform="matrix(1 0 0 1 3241.86 575)"> </text></g><g><text font-family="Noto Sans CJK TC,Noto Sans CJK TC_MSFontService,sans-serif" font-weight="400" font-size="83" transform="matrix(1 0 0 1 3050.16 575)">{X}</text></g><g clip-path="url(#clip2)"><text font-family="Noto Sans CJK TC,Noto Sans CJK TC_MSFontService,sans-serif" font-weight="400" font-size="83" transform="matrix(1 0 0 1 3153.86 575)"> </text></g><g><text font-family="Noto Sans CJK TC,Noto Sans CJK TC_MSFontService,sans-serif" font-weight="400" font-size="83" transform="matrix(1 0 0 1 2814.87 575)">[A]</text></g><g clip-path="url(#clip3)"><text font-family="Noto Sans CJK TC,Noto Sans CJK TC_MSFontService,sans-serif" font-weight="400" font-size="83" transform="matrix(1 0 0 1 2921.44 575)"> </text></g><g><text font-family="Noto Sans CJK TC,Noto Sans CJK TC_MSFontService,sans-serif" font-weight="400" font-size="83" transform="matrix(1 0 0 1 3048.73 773)">[A]</text></g><g clip-path="url(#clip4)"><text font-family="Noto Sans CJK TC,Noto Sans CJK TC_MSFontService,sans-serif" font-weight="400" font-size="83" transform="matrix(1 0 0 1 3155.29 773)"> </text></g><g><text font-family="Noto Sans CJK TC,Noto Sans CJK TC_MSFontService,sans-serif" font-weight="400" font-size="83" transform="matrix(1 0 0 1 2962.17 773)">=</text></g><g><text font-family="Noto Sans CJK TC,Noto Sans CJK TC_MSFontService,sans-serif" font-weight="400" font-size="83" transform="matrix(1 0 0 1 3008 773)"> </text></g><g><text font-family="Noto Sans CJK TC,Noto Sans CJK TC_MSFontService,sans-serif" font-weight="400" font-size="83" transform="matrix(1 0 0 1 2817.74 773)">[</text></g><g><text font-family="Noto Sans CJK TC,Noto Sans CJK TC_MSFontService,sans-serif" font-weight="400" font-size="83" transform="matrix(1 0 0 1 2845.81 773)">L</text></g><g><text font-family="Noto Sans CJK TC,Noto Sans CJK TC_MSFontService,sans-serif" font-weight="400" font-size="83" transform="matrix(1 0 0 1 2890.5 773)">]</text></g><g clip-path="url(#clip5)"><text font-family="Noto Sans CJK TC,Noto Sans CJK TC_MSFontService,sans-serif" font-weight="400" font-size="83" transform="matrix(1 0 0 1 2918.57 773)"> </text></g><g><text font-family="Noto Sans CJK TC,Noto Sans CJK TC_MSFontService,sans-serif" font-weight="400" font-size="83" transform="matrix(1 0 0 1 2576.43 773)">[U]</text></g><g clip-path="url(#clip6)"><text font-family="Noto Sans CJK TC,Noto Sans CJK TC_MSFontService,sans-serif" font-weight="400" font-size="83" transform="matrix(1 0 0 1 2692.16 773)"> </text></g><g><text font-family="Noto Sans CJK TC,Noto Sans CJK TC_MSFontService,sans-serif" font-weight="400" font-size="83" transform="matrix(1 0 0 1 3280.59 971)">{B}</text></g><g clip-path="url(#clip7)"><text font-family="Noto Sans CJK TC,Noto Sans CJK TC_MSFontService,sans-serif" font-weight="400" font-size="83" transform="matrix(1 0 0 1 3391.16 971)"> </text></g><g><text font-family="Noto Sans CJK TC,Noto Sans CJK TC_MSFontService,sans-serif" font-weight="400" font-size="83" transform="matrix(1 0 0 1 3196.03 971)">=</text></g><g><text font-family="Noto Sans CJK TC,Noto Sans CJK TC_MSFontService,sans-serif" font-weight="400" font-size="83" transform="matrix(1 0 0 1 3241.86 971)"> </text></g><g><text font-family="Noto Sans CJK TC,Noto Sans CJK TC_MSFontService,sans-serif" font-weight="400" font-size="83" transform="matrix(1 0 0 1 3045.58 971)">{</text></g><g><text font-family="Noto Sans CJK TC,Noto Sans CJK TC_MSFontService,sans-serif" font-weight="400" font-size="83" transform="matrix(1 0 0 1 3073.65 971)">D</text></g><g><text font-family="Noto Sans CJK TC,Noto Sans CJK TC_MSFontService,sans-serif" font-weight="400" font-size="83" transform="matrix(1 0 0 1 3130.37 971)">}</text></g><g clip-path="url(#clip8)"><text font-family="Noto Sans CJK TC,Noto Sans CJK TC_MSFontService,sans-serif" font-weight="400" font-size="83" transform="matrix(1 0 0 1 3158.45 971)"> </text></g><g><text font-family="Noto Sans CJK TC,Noto Sans CJK TC_MSFontService,sans-serif" font-weight="400" font-size="83" transform="matrix(1 0 0 1 2817.74 971)">[</text></g><g><text font-family="Noto Sans CJK TC,Noto Sans CJK TC_MSFontService,sans-serif" font-weight="400" font-size="83" transform="matrix(1 0 0 1 2845.81 971)">L</text></g><g><text font-family="Noto Sans CJK TC,Noto Sans CJK TC_MSFontService,sans-serif" font-weight="400" font-size="83" transform="matrix(1 0 0 1 2890.5 971)">]</text></g><g clip-path="url(#clip9)"><text font-family="Noto Sans CJK TC,Noto Sans CJK TC_MSFontService,sans-serif" font-weight="400" font-size="83" transform="matrix(1 0 0 1 2918.57 971)"> </text></g><g><text font-family="Noto Sans CJK TC,Noto Sans CJK TC_MSFontService,sans-serif" font-weight="400" font-size="83" transform="matrix(1 0 0 1 3045.58 1169)">{D}</text></g><g clip-path="url(#clip10)"><text font-family="Noto Sans CJK TC,Noto Sans CJK TC_MSFontService,sans-serif" font-weight="400" font-size="83" transform="matrix(1 0 0 1 3158.45 1169)"> </text></g><g><text font-family="Noto Sans CJK TC,Noto Sans CJK TC_MSFontService,sans-serif" font-weight="400" font-size="83" transform="matrix(1 0 0 1 3045.58 1367)">{D}</text></g><g clip-path="url(#clip11)"><text font-family="Noto Sans CJK TC,Noto Sans CJK TC_MSFontService,sans-serif" font-weight="400" font-size="83" transform="matrix(1 0 0 1 3158.45 1367)"> </text></g><g><text font-family="Noto Sans CJK TC,Noto Sans CJK TC_MSFontService,sans-serif" font-weight="400" font-size="83" transform="matrix(1 0 0 1 2962.17 1367)">=</text></g><g><text font-family="Noto Sans CJK TC,Noto Sans CJK TC_MSFontService,sans-serif" font-weight="400" font-size="83" transform="matrix(1 0 0 1 3008 1367)"> </text></g><g><text font-family="Noto Sans CJK TC,Noto Sans CJK TC_MSFontService,sans-serif" font-weight="400" font-size="83" transform="matrix(1 0 0 1 2816.31 1367)">{X}</text></g><g clip-path="url(#clip12)"><text font-family="Noto Sans CJK TC,Noto Sans CJK TC_MSFontService,sans-serif" font-weight="400" font-size="83" transform="matrix(1 0 0 1 2920 1367)"> </text></g><g><text font-family="Noto Sans CJK TC,Noto Sans CJK TC_MSFontService,sans-serif" font-weight="400" font-size="83" transform="matrix(1 0 0 1 2576.43 1367)">[U]</text></g><g clip-path="url(#clip13)"><text font-family="Noto Sans CJK TC,Noto Sans CJK TC_MSFontService,sans-serif" font-weight="400" font-size="83" transform="matrix(1 0 0 1 2692.16 1367)"> </text></g><g><text font-family="Noto Sans CJK TC,Noto Sans CJK TC_MSFontService,sans-serif" font-weight="400" font-size="83" transform="matrix(1 0 0 1 2816.31 1565)">{X}</text></g><g clip-path="url(#clip14)"><text font-family="Noto Sans CJK TC,Noto Sans CJK TC_MSFontService,sans-serif" font-weight="400" font-size="83" transform="matrix(1 0 0 1 2920 1565)"> </text></g><path d="M2873.94 605.5 2873.94 678.833 2867.06 678.833 2867.06 605.5ZM2884.25 674.25 2870.5 701.75 2856.75 674.25Z" fill="#156082"/><path d="M1.28988-3.18632 217.808 84.4645 215.228 90.8371-1.28988 3.18632ZM217.429 73.1857 237.76 96.25 207.11 98.6762Z" fill="#156082" transform="matrix(-1 0 0 1 2871.26 605.5)"/><path d="M2873.94 804.5 2873.94 877.833 2867.06 877.833 2867.06 804.5ZM2884.25 873.25 2870.5 900.75 2856.75 873.25Z" fill="#156082"/><path d="M3341.94 605.5 3341.94 878.208 3335.06 878.208 3335.06 605.5ZM3352.25 873.625 3338.5 901.125 3324.75 873.625Z" fill="#156082"/><path d="M3105.94 993.5 3105.94 1066.83 3099.06 1066.83 3099.06 993.5ZM3116.25 1062.25 3102.5 1089.75 3088.75 1062.25Z" fill="#156082"/><path d="M3105.94 1196.5 3105.94 1269.83 3099.06 1269.83 3099.06 1196.5ZM3116.25 1265.25 3102.5 1292.75 3088.75 1265.25Z" fill="#156082"/><path d="M2636.94 804.5 2636.94 1269.71 2630.06 1269.71 2630.06 804.5ZM2647.25 1265.12 2633.5 1292.62 2619.75 1265.12Z" fill="#156082"/><path d="M2873.94 1389.5 2873.94 1462.83 2867.06 1462.83 2867.06 1389.5ZM2884.25 1458.25 2870.5 1485.75 2856.75 1458.25Z" fill="#156082"/><text font-family="Noto Sans CJK TC,Noto Sans CJK TC_MSFontService,sans-serif" font-weight="400" font-size="55" transform="matrix(1 0 0 1 1980.74 652)">[A] </text><text font-family="Noto Sans CJK TC,Noto Sans CJK TC_MSFontService,sans-serif" font-weight="400" font-size="55" transform="matrix(1 0 0 1 2062.66 652)">前向消去得</text><text font-family="Noto Sans CJK TC,Noto Sans CJK TC_MSFontService,sans-serif" font-weight="400" font-size="55" transform="matrix(1 0 0 1 2337.66 652)"> </text><text font-family="Noto Sans CJK TC,Noto Sans CJK TC_MSFontService,sans-serif" font-weight="400" font-size="55" transform="matrix(1 0 0 1 2350.27 652)">[U]&amp;[L] </text><text font-family="Noto Sans CJK TC,Noto Sans CJK TC_MSFontService,sans-serif" font-weight="400" font-size="55" transform="matrix(1 0 0 1 2542.77 652)">→</text><text font-family="Noto Sans CJK TC,Noto Sans CJK TC_MSFontService,sans-serif" font-weight="400" font-size="55" transform="matrix(1 0 0 1 2597.77 652)"> </text><text fill="#7F7F7F" font-family="Noto Sans CJK TC,Noto Sans CJK TC_MSFontService,sans-serif" font-weight="400" font-size="55" transform="matrix(1 0 0 1 2311.96 761)">(</text><text fill="#7F7F7F" font-family="Noto Sans CJK TC,Noto Sans CJK TC_MSFontService,sans-serif" font-weight="400" font-size="55" transform="matrix(1 0 0 1 2330.3 761)">結果驗證</text><text fill="#7F7F7F" font-family="Noto Sans CJK TC,Noto Sans CJK TC_MSFontService,sans-serif" font-weight="400" font-size="55" transform="matrix(1 0 0 1 2550.3 761)">)</text><text fill="#7F7F7F" font-family="Noto Sans CJK TC,Noto Sans CJK TC_MSFontService,sans-serif" font-weight="400" font-size="55" transform="matrix(1 0 0 1 2568.63 761)"> </text><text font-family="Noto Sans CJK TC,Noto Sans CJK TC_MSFontService,sans-serif" font-weight="400" font-size="55" transform="matrix(1 0 0 1 2029.04 1046)">前向求解矩陣得</text><text font-family="Noto Sans CJK TC,Noto Sans CJK TC_MSFontService,sans-serif" font-weight="400" font-size="55" transform="matrix(1 0 0 1 2414.04 1046)"> </text><text font-family="Noto Sans CJK TC,Noto Sans CJK TC_MSFontService,sans-serif" font-weight="400" font-size="55" transform="matrix(1 0 0 1 2426.65 1046)">{D}</text><text font-family="Noto Sans CJK TC,Noto Sans CJK TC_MSFontService,sans-serif" font-weight="400" font-size="55" transform="matrix(1 0 0 1 2501.13 1046)"> </text><text font-family="Noto Sans CJK TC,Noto Sans CJK TC_MSFontService,sans-serif" font-weight="400" font-size="55" transform="matrix(1 0 0 1 2513.73 1046)">→</text><text font-family="Noto Sans CJK TC,Noto Sans CJK TC_MSFontService,sans-serif" font-weight="400" font-size="55" transform="matrix(1 0 0 1 2568.73 1046)"> </text><text font-family="Noto Sans CJK TC,Noto Sans CJK TC_MSFontService,sans-serif" font-weight="400" font-size="55" transform="matrix(1 0 0 1 2035.41 1362)">回代求解矩陣得</text><text font-family="Noto Sans CJK TC,Noto Sans CJK TC_MSFontService,sans-serif" font-weight="400" font-size="55" transform="matrix(1 0 0 1 2420.41 1362)"> </text><text font-family="Noto Sans CJK TC,Noto Sans CJK TC_MSFontService,sans-serif" font-weight="400" font-size="55" transform="matrix(1 0 0 1 2433.01 1362)">{X}</text><text font-family="Noto Sans CJK TC,Noto Sans CJK TC_MSFontService,sans-serif" font-weight="400" font-size="55" transform="matrix(1 0 0 1 2501.19 1362)"> </text><text font-family="Noto Sans CJK TC,Noto Sans CJK TC_MSFontService,sans-serif" font-weight="400" font-size="55" transform="matrix(1 0 0 1 2513.79 1362)">→</text><text font-family="Noto Sans CJK TC,Noto Sans CJK TC_MSFontService,sans-serif" font-weight="400" font-size="55" transform="matrix(1 0 0 1 2568.79 1362)"> </text></g></svg>