<svg xmlns="http://www.w3.org/2000/svg" viewBox="0 0 50.88597 50.3463"><defs><style>.cls-1,.cls-2,.cls-4,.cls-5,.cls-6{fill:none;stroke-miterlimit:10;}.cls-1,.cls-2{stroke:#231815;}.cls-1,.cls-4,.cls-5,.cls-6{stroke-width:0.1px;}.cls-2{stroke-width:0.05px;}.cls-3{fill:#231815;}.cls-4{stroke:#e60012;}.cls-5{stroke:#f39800;}.cls-6{stroke:#00a0e9;}.cls-7{fill:#e60012;}.cls-8{fill:#f39800;}.cls-9{fill:#00a0e9;}</style></defs><title>資產 1</title><g id="圖層_2" data-name="圖層 2"><g id="圖層_1-2" data-name="圖層 1"><rect class="cls-1" x="3.65079" y="0.05" width="47.18519" height="47.18519"/><line class="cls-2" x1="6.20634" y1="46.51296" x2="6.20634" y2="47.92037"/><line class="cls-2" x1="20.23104" y1="46.51296" x2="20.23104" y2="47.92037"/><line class="cls-2" x1="34.25573" y1="46.51296" x2="34.25573" y2="47.92037"/><line class="cls-2" x1="48.28042" y1="46.51296" x2="48.28042" y2="47.92037"/><path class="cls-3" d="M4.52832,49.15489a1.00526,1.00526,0,0,1,.06836-.39062.55478.55478,0,0,1,.18164-.24317A.30875.30875,0,0,1,4.96,48.45762a.34607.34607,0,0,1,.27344.15528.82209.82209,0,0,1,.15137.52148,1.03558,1.03558,0,0,1-.06641.3916.5211.5211,0,0,1-.169.23438.35432.35432,0,0,1-.19921.07226.36535.36535,0,0,1-.31543-.22363A.90794.90794,0,0,1,4.52832,49.15489Zm.19141.02441a1.24454,1.24454,0,0,0,.06738.44629c.03711.09668.09277.14551.166.14551a.17137.17137,0,0,0,.10937-.04785.29628.29628,0,0,0,.08594-.1582,1.91419,1.91419,0,0,0,.04492-.47364,1.29358,1.29358,0,0,0-.04688-.37793.33367.33367,0,0,0-.09082-.15918.1481.1481,0,0,0-.09668-.03222.15255.15255,0,0,0-.11816.05957.49235.49235,0,0,0-.0957.25488A2.42369,2.42369,0,0,0,4.71973,49.1793Z"/><path class="cls-3" d="M5.70605,49.61973a.1061.1061,0,0,1,.07715.03125.10772.10772,0,0,1,.03125.07715.1084.1084,0,1,1-.21679,0,.10834.10834,0,0,1,.10839-.1084Z"/><path class="cls-3" d="M6.02832,49.15489a1.00526,1.00526,0,0,1,.06836-.39062.55478.55478,0,0,1,.18164-.24317A.30875.30875,0,0,1,6.46,48.45762a.34607.34607,0,0,1,.27344.15528.82209.82209,0,0,1,.15137.52148,1.03558,1.03558,0,0,1-.06641.3916.5211.5211,0,0,1-.169.23438.35432.35432,0,0,1-.19921.07226.36535.36535,0,0,1-.31543-.22363A.90794.90794,0,0,1,6.02832,49.15489Zm.19141.02441a1.24454,1.24454,0,0,0,.06738.44629c.03711.09668.09277.14551.166.14551a.17137.17137,0,0,0,.10937-.04785.29628.29628,0,0,0,.08594-.1582,1.91419,1.91419,0,0,0,.04492-.47364,1.29358,1.29358,0,0,0-.04688-.37793.33367.33367,0,0,0-.09082-.15918.1481.1481,0,0,0-.09668-.03222.15255.15255,0,0,0-.11816.05957.49235.49235,0,0,0-.0957.25488A2.42369,2.42369,0,0,0,6.21973,49.1793Z"/><path class="cls-3" d="M7.02832,49.15489a1.00526,1.00526,0,0,1,.06836-.39062.55478.55478,0,0,1,.18164-.24317A.30875.30875,0,0,1,7.46,48.45762a.34607.34607,0,0,1,.27344.15528.82209.82209,0,0,1,.15137.52148,1.03558,1.03558,0,0,1-.06641.3916.5211.5211,0,0,1-.169.23438.35432.35432,0,0,1-.19921.07226.36535.36535,0,0,1-.31543-.22363A.90794.90794,0,0,1,7.02832,49.15489Zm.19141.02441a1.24454,1.24454,0,0,0,.06738.44629c.03711.09668.09277.14551.166.14551a.17137.17137,0,0,0,.10937-.04785.29628.29628,0,0,0,.08594-.1582,1.91419,1.91419,0,0,0,.04492-.47364,1.29358,1.29358,0,0,0-.04688-.37793.33367.33367,0,0,0-.09082-.15918.1481.1481,0,0,0-.09668-.03222.15255.15255,0,0,0-.11816.05957.49235.49235,0,0,0-.0957.25488A2.42369,2.42369,0,0,0,7.21973,49.1793Z"/><path class="cls-3" d="M18.55371,49.15489a1.00526,1.00526,0,0,1,.06836-.39062.55478.55478,0,0,1,.18164-.24317.30875.30875,0,0,1,.18164-.06348.34607.34607,0,0,1,.27344.15528.822.822,0,0,1,.15137.52148,1.03538,1.03538,0,0,1-.06641.3916.5211.5211,0,0,1-.16895.23438.35432.35432,0,0,1-.19921.07226.36535.36535,0,0,1-.31543-.22363A.90794.90794,0,0,1,18.55371,49.15489Zm.19141.02441a1.24454,1.24454,0,0,0,.06738.44629c.03711.09668.09277.14551.166.14551a.17137.17137,0,0,0,.10937-.04785.29628.29628,0,0,0,.08594-.1582,1.91419,1.91419,0,0,0,.04492-.47364,1.29361,1.29361,0,0,0-.04687-.37793.33375.33375,0,0,0-.09083-.15918.14809.14809,0,0,0-.09667-.03222.15255.15255,0,0,0-.11817.05957.49235.49235,0,0,0-.0957.25488A2.42369,2.42369,0,0,0,18.74512,49.1793Z"/><path class="cls-3" d="M19.73145,49.61973a.1061.1061,0,0,1,.07714.03125.10772.10772,0,0,1,.03125.07715.1084.1084,0,1,1-.21679,0,.10834.10834,0,0,1,.1084-.1084Z"/><path class="cls-3" d="M20.89844,49.5543l-.09278.25489h-.78125v-.03614a3.5616,3.5616,0,0,0,.48536-.51367.64839.64839,0,0,0,.14062-.36426.28621.28621,0,0,0-.07715-.207.24816.24816,0,0,0-.18457-.08105.27864.27864,0,0,0-.1748.05762.32054.32054,0,0,0-.11524.167H20.0625a.452.452,0,0,1,.126-.27735.34859.34859,0,0,1,.252-.09668.37367.37367,0,0,1,.26953.10352.32983.32983,0,0,1,.10742.24414.4727.4727,0,0,1-.04687.20117,1.315,1.315,0,0,1-.23438.335c-.16211.17676-.26367.28418-.30371.32032h.34571a.96927.96927,0,0,0,.14746-.00782.17572.17572,0,0,0,.07714-.03222.20244.20244,0,0,0,.05957-.06739Z"/><path class="cls-3" d="M21.84961,48.485l-.07617.166H21.375l-.08691.17774a.69742.69742,0,0,1,.41015.19238.43106.43106,0,0,1,.12989.3125.45845.45845,0,0,1-.042.19336.52951.52951,0,0,1-.251.252.524.524,0,0,1-.23047.05371.28671.28671,0,0,1-.17285-.041.11018.11018,0,0,1-.05469-.08887.06357.06357,0,0,1,.02246-.04785.07732.07732,0,0,1,.05664-.02148.11793.11793,0,0,1,.04395.00781.34012.34012,0,0,1,.06543.04.25676.25676,0,0,0,.14843.05078.26951.26951,0,0,0,.2002-.08692.28.28,0,0,0,.08691-.21.36342.36342,0,0,0-.07715-.22363.49094.49094,0,0,0-.21289-.16113.87514.87514,0,0,0-.29-.05078L21.375,48.485Z"/><path class="cls-3" d="M32.57715,49.15489a1.00526,1.00526,0,0,1,.06836-.39062.5547.5547,0,0,1,.18164-.24317.30875.30875,0,0,1,.18164-.06348.34607.34607,0,0,1,.27344.15528.82209.82209,0,0,1,.15136.52148,1.03559,1.03559,0,0,1-.0664.3916.5211.5211,0,0,1-.169.23438.35432.35432,0,0,1-.19922.07226.36537.36537,0,0,1-.31543-.22363A.90794.90794,0,0,1,32.57715,49.15489Zm.1914.02441a1.24452,1.24452,0,0,0,.06739.44629c.03711.09668.09277.14551.166.14551a.17137.17137,0,0,0,.10938-.04785.29641.29641,0,0,0,.08594-.1582,1.91419,1.91419,0,0,0,.04492-.47364,1.29358,1.29358,0,0,0-.04688-.37793.33367.33367,0,0,0-.09082-.15918.1481.1481,0,0,0-.09668-.03222.15255.15255,0,0,0-.11816.05957.49226.49226,0,0,0-.0957.25488A2.42224,2.42224,0,0,0,32.76855,49.1793Z"/><path class="cls-3" d="M33.75488,49.61973a.10612.10612,0,0,1,.07715.03125.10772.10772,0,0,1,.03125.07715.1084.1084,0,1,1-.2168,0,.10836.10836,0,0,1,.1084-.1084Z"/><path class="cls-3" d="M34.20605,48.485h.71v.03711l-.44141,1.31445h-.10938l.39551-1.19238h-.36426a.34225.34225,0,0,0-.15722.02637.3298.3298,0,0,0-.13184.13867l-.02832-.01075Z"/><path class="cls-3" d="M35.87305,48.485l-.07617.166h-.39844l-.08692.17774a.69745.69745,0,0,1,.41016.19238.43109.43109,0,0,1,.12988.3125.4586.4586,0,0,1-.042.19336.52948.52948,0,0,1-.251.252.52394.52394,0,0,1-.23046.05371.28674.28674,0,0,1-.17286-.041.11016.11016,0,0,1-.05468-.08887.06357.06357,0,0,1,.02246-.04785.07732.07732,0,0,1,.05664-.02148.11788.11788,0,0,1,.04394.00781.33981.33981,0,0,1,.06543.04.25681.25681,0,0,0,.14844.05078.26953.26953,0,0,0,.2002-.08692.28.28,0,0,0,.08691-.21.36342.36342,0,0,0-.07715-.22363.491.491,0,0,0-.21289-.16113.87514.87514,0,0,0-.29-.05078l.25391-.51465Z"/><path class="cls-3" d="M46.76465,48.61485l.32226-.15723h.03223v1.11817a.628.628,0,0,0,.00879.13867.07453.07453,0,0,0,.03906.042.32222.32222,0,0,0,.11914.0166v.03614h-.498v-.03614a.31928.31928,0,0,0,.12109-.0166.0744.0744,0,0,0,.03809-.03711.5422.5422,0,0,0,.01074-.14355v-.71485a1.01577,1.01577,0,0,0-.00977-.18554.078.078,0,0,0-.02539-.0459.06548.06548,0,0,0-.043-.01465.253.253,0,0,0-.10058.03027Z"/><path class="cls-3" d="M47.78027,49.61973a.10612.10612,0,0,1,.07715.03125.10772.10772,0,0,1,.03125.07715.1084.1084,0,1,1-.21679,0,.10834.10834,0,0,1,.10839-.1084Z"/><path class="cls-3" d="M48.10254,49.15489a1.00526,1.00526,0,0,1,.06836-.39062.5547.5547,0,0,1,.18164-.24317.30875.30875,0,0,1,.18164-.06348.34607.34607,0,0,1,.27344.15528.82209.82209,0,0,1,.15136.52148,1.03559,1.03559,0,0,1-.0664.3916.5211.5211,0,0,1-.169.23438.35432.35432,0,0,1-.19922.07226A.36537.36537,0,0,1,48.209,49.609.908.908,0,0,1,48.10254,49.15489Zm.19141.02441a1.24454,1.24454,0,0,0,.06738.44629c.03711.09668.09277.14551.166.14551a.17137.17137,0,0,0,.10938-.04785.29635.29635,0,0,0,.08594-.1582,1.91419,1.91419,0,0,0,.04492-.47364,1.29358,1.29358,0,0,0-.04688-.37793.33367.33367,0,0,0-.09082-.15918.1481.1481,0,0,0-.09668-.03222.15255.15255,0,0,0-.11816.05957.49226.49226,0,0,0-.0957.25488A2.42221,2.42221,0,0,0,48.294,49.1793Z"/><path class="cls-3" d="M49.10254,49.15489a1.00526,1.00526,0,0,1,.06836-.39062.5547.5547,0,0,1,.18164-.24317.30875.30875,0,0,1,.18164-.06348.34607.34607,0,0,1,.27344.15528.82209.82209,0,0,1,.15136.52148,1.03559,1.03559,0,0,1-.0664.3916.5211.5211,0,0,1-.169.23438.35432.35432,0,0,1-.19922.07226A.36537.36537,0,0,1,49.209,49.609.908.908,0,0,1,49.10254,49.15489Zm.19141.02441a1.24454,1.24454,0,0,0,.06738.44629c.03711.09668.09277.14551.166.14551a.17137.17137,0,0,0,.10938-.04785.29635.29635,0,0,0,.08594-.1582,1.91419,1.91419,0,0,0,.04492-.47364,1.29358,1.29358,0,0,0-.04688-.37793.33367.33367,0,0,0-.09082-.15918.1481.1481,0,0,0-.09668-.03222.15255.15255,0,0,0-.11816.05957.49226.49226,0,0,0-.0957.25488A2.42221,2.42221,0,0,0,49.294,49.1793Z"/><line class="cls-2" x1="4.34145" y1="2.60556" x2="2.93404" y2="2.60556"/><line class="cls-2" x1="4.34145" y1="16.63025" x2="2.93404" y2="16.63025"/><line class="cls-2" x1="4.34145" y1="30.65494" x2="2.93404" y2="30.65494"/><line class="cls-2" x1="4.34145" y1="44.67963" x2="2.93404" y2="44.67963"/><path class="cls-3" d="M1.70117,43.00157a1.00535,1.00535,0,0,1,.39063.06836.55467.55467,0,0,1,.24316.18164.30875.30875,0,0,1,.06348.18164.34607.34607,0,0,1-.15528.27344.82207.82207,0,0,1-.52148.15137,1.03558,1.03558,0,0,1-.3916-.06641.52115.52115,0,0,1-.23438-.16895.35432.35432,0,0,1-.07226-.19922.36537.36537,0,0,1,.22363-.31542A.908.908,0,0,1,1.70117,43.00157Zm-.02441.19141a1.24454,1.24454,0,0,0-.44629.06738c-.09668.03711-.14551.09277-.14551.166a.17143.17143,0,0,0,.04785.10938.29631.29631,0,0,0,.15821.08594,1.9141,1.9141,0,0,0,.47363.04492,1.29353,1.29353,0,0,0,.37793-.04688.33367.33367,0,0,0,.15918-.09082.1481.1481,0,0,0,.03222-.09668.15255.15255,0,0,0-.05957-.11816.49226.49226,0,0,0-.25488-.0957A2.42369,2.42369,0,0,0,1.67676,43.193Z"/><path class="cls-3" d="M1.23633,44.1793a.10608.10608,0,0,1-.03125.07715.10772.10772,0,0,1-.07715.03125.1084.1084,0,1,1,0-.21679.10834.10834,0,0,1,.1084.10839Z"/><path class="cls-3" d="M1.70117,44.50157a1.00535,1.00535,0,0,1,.39063.06836.55467.55467,0,0,1,.24316.18164.30875.30875,0,0,1,.06348.18164.34607.34607,0,0,1-.15528.27344.82207.82207,0,0,1-.52148.15137,1.03558,1.03558,0,0,1-.3916-.06641.52115.52115,0,0,1-.23438-.16895.35432.35432,0,0,1-.07226-.19922.36537.36537,0,0,1,.22363-.31542A.908.908,0,0,1,1.70117,44.50157Zm-.02441.19141a1.24454,1.24454,0,0,0-.44629.06738c-.09668.03711-.14551.09277-.14551.166a.17143.17143,0,0,0,.04785.10938.29631.29631,0,0,0,.15821.08594,1.9141,1.9141,0,0,0,.47363.04492,1.29353,1.29353,0,0,0,.37793-.04688.33367.33367,0,0,0,.15918-.09082.1481.1481,0,0,0,.03222-.09668.15255.15255,0,0,0-.05957-.11816.49226.49226,0,0,0-.25488-.0957A2.42369,2.42369,0,0,0,1.67676,44.693Z"/><path class="cls-3" d="M1.70117,45.50157a1.00535,1.00535,0,0,1,.39063.06836.55467.55467,0,0,1,.24316.18164.30875.30875,0,0,1,.06348.18164.34607.34607,0,0,1-.15528.27344.82207.82207,0,0,1-.52148.15137,1.03558,1.03558,0,0,1-.3916-.06641.52115.52115,0,0,1-.23438-.16895.35432.35432,0,0,1-.07226-.19922.36537.36537,0,0,1,.22363-.31542A.908.908,0,0,1,1.70117,45.50157Zm-.02441.19141a1.24454,1.24454,0,0,0-.44629.06738c-.09668.03711-.14551.09277-.14551.166a.17143.17143,0,0,0,.04785.10938.29631.29631,0,0,0,.15821.08594,1.9141,1.9141,0,0,0,.47363.04492,1.29353,1.29353,0,0,0,.37793-.04688.33367.33367,0,0,0,.15918-.09082.1481.1481,0,0,0,.03222-.09668.15255.15255,0,0,0-.05957-.11816.49226.49226,0,0,0-.25488-.0957A2.42369,2.42369,0,0,0,1.67676,45.693Z"/><path class="cls-3" d="M1.70117,28.97716a1.00535,1.00535,0,0,1,.39063.06836.55459.55459,0,0,1,.24316.18164.30875.30875,0,0,1,.06348.18164.346.346,0,0,1-.15528.27343.822.822,0,0,1-.52148.15137,1.03538,1.03538,0,0,1-.3916-.06641.52107.52107,0,0,1-.23438-.16894.35434.35434,0,0,1-.07226-.19922.36538.36538,0,0,1,.22363-.31543A.908.908,0,0,1,1.70117,28.97716Zm-.02441.1914a1.24454,1.24454,0,0,0-.44629.06738c-.09668.03711-.14551.09278-.14551.166a.17143.17143,0,0,0,.04785.10938.29638.29638,0,0,0,.15821.08593,1.91361,1.91361,0,0,0,.47363.04492,1.29357,1.29357,0,0,0,.37793-.04687.33375.33375,0,0,0,.15918-.09082.14812.14812,0,0,0,.03222-.09668.15253.15253,0,0,0-.05957-.11816.49226.49226,0,0,0-.25488-.09571A2.42369,2.42369,0,0,0,1.67676,29.16856Z"/><path class="cls-3" d="M1.23633,30.15489a.1061.1061,0,0,1-.03125.07715.10772.10772,0,0,1-.07715.03125.1084.1084,0,1,1,0-.2168.10836.10836,0,0,1,.1084.1084Z"/><path class="cls-3" d="M1.30176,31.32188l-.25488-.09277v-.78125H1.083a3.562,3.562,0,0,0,.51367.48535.64844.64844,0,0,0,.36426.14063.28625.28625,0,0,0,.207-.07715.24816.24816,0,0,0,.081-.18457.27872.27872,0,0,0-.05761-.17481.32051.32051,0,0,0-.167-.11523v-.03614a.452.452,0,0,1,.27735.126.34862.34862,0,0,1,.09668.25195.37369.37369,0,0,1-.10352.26954.32985.32985,0,0,1-.24414.10742.47271.47271,0,0,1-.20117-.04688,1.3149,1.3149,0,0,1-.335-.23437c-.17676-.16211-.28418-.26367-.32031-.30371v.3457a.9709.9709,0,0,0,.00781.14746.17561.17561,0,0,0,.03223.07715.20241.20241,0,0,0,.06738.05957Z"/><path class="cls-3" d="M2.37109,32.27305l-.166-.07617v-.39844l-.17774-.08691a.69748.69748,0,0,1-.19238.41016.43109.43109,0,0,1-.3125.12988.45863.45863,0,0,1-.19336-.042.54258.54258,0,0,1-.15137-.10742.537.537,0,0,1-.10058-.14356.52412.52412,0,0,1-.05371-.23047.28673.28673,0,0,1,.041-.17285.11018.11018,0,0,1,.08887-.05469.06359.06359,0,0,1,.04785.02246.07733.07733,0,0,1,.02149.05664.11769.11769,0,0,1-.00782.044.33981.33981,0,0,1-.04.06543.25686.25686,0,0,0-.05078.14844.26949.26949,0,0,0,.08692.20019.28.28,0,0,0,.21.08692.3634.3634,0,0,0,.22363-.07715.491.491,0,0,0,.16113-.21289.87537.87537,0,0,0,.05079-.29l.51464.2539Z"/><path class="cls-3" d="M1.70117,14.95274a1.00535,1.00535,0,0,1,.39063.06836.55474.55474,0,0,1,.24316.18164.30877.30877,0,0,1,.06348.18164.34605.34605,0,0,1-.15528.27344.822.822,0,0,1-.52148.15137,1.03538,1.03538,0,0,1-.3916-.06641.52114.52114,0,0,1-.23438-.16894.35437.35437,0,0,1-.07226-.19922.36537.36537,0,0,1,.22363-.31543A.908.908,0,0,1,1.70117,14.95274Zm-.02441.19141a1.24454,1.24454,0,0,0-.44629.06738c-.09668.03711-.14551.09277-.14551.166a.1714.1714,0,0,0,.04785.10937.29631.29631,0,0,0,.15821.08594,1.9141,1.9141,0,0,0,.47363.04492,1.29357,1.29357,0,0,0,.37793-.04687.33383.33383,0,0,0,.15918-.09082.14813.14813,0,0,0,.03222-.09668.15255.15255,0,0,0-.05957-.11817.49235.49235,0,0,0-.25488-.0957A2.42369,2.42369,0,0,0,1.67676,15.14415Z"/><path class="cls-3" d="M1.23633,16.13048a.10606.10606,0,0,1-.03125.07714.10772.10772,0,0,1-.07715.03125.1084.1084,0,1,1,0-.21679.10834.10834,0,0,1,.1084.1084Z"/><path class="cls-3" d="M2.37109,16.58165v.71H2.334L1.01953,16.8502v-.10937l1.19238.39551v-.36426a.34233.34233,0,0,0-.02636-.15723.32978.32978,0,0,0-.13867-.13183l.01074-.02833Z"/><path class="cls-3" d="M2.37109,18.24864l-.166-.07617V17.774l-.17774-.08691a.69742.69742,0,0,1-.19238.41015.43106.43106,0,0,1-.3125.12989.45848.45848,0,0,1-.19336-.042.52951.52951,0,0,1-.25195-.251.52416.52416,0,0,1-.05371-.23047.28671.28671,0,0,1,.041-.17285.11018.11018,0,0,1,.08887-.05469.06356.06356,0,0,1,.04785.02246.07733.07733,0,0,1,.02149.05664.11772.11772,0,0,1-.00782.04395.34012.34012,0,0,1-.04.06543.25683.25683,0,0,0-.05078.14843.2695.2695,0,0,0,.08692.2002.28.28,0,0,0,.21.08691.3634.3634,0,0,0,.22363-.07715.49094.49094,0,0,0,.16113-.21289.87537.87537,0,0,0,.05079-.29l.51464.25391Z"/><path class="cls-3" d="M2.24121,1.08946l.15723.32227V1.444H1.28027a.628.628,0,0,0-.13867.00879.07459.07459,0,0,0-.042.03906.32226.32226,0,0,0-.0166.11914H1.04688v-.498H1.083a.31928.31928,0,0,0,.0166.12109.07436.07436,0,0,0,.03711.03809.5422.5422,0,0,0,.14355.01074h.71485a1.0157,1.0157,0,0,0,.18554-.00977.07793.07793,0,0,0,.0459-.02539.06546.06546,0,0,0,.01465-.043.25281.25281,0,0,0-.03027-.10058Z"/><path class="cls-3" d="M1.23633,2.10509a.10606.10606,0,0,1-.03125.07714.10772.10772,0,0,1-.07715.03125.1084.1084,0,1,1,0-.21679.10834.10834,0,0,1,.1084.1084Z"/><path class="cls-3" d="M1.70117,2.42735a1.00535,1.00535,0,0,1,.39063.06836.55474.55474,0,0,1,.24316.18164.30875.30875,0,0,1,.06348.18164.34607.34607,0,0,1-.15528.27344.822.822,0,0,1-.52148.15137,1.03538,1.03538,0,0,1-.3916-.06641.52115.52115,0,0,1-.23438-.169.35432.35432,0,0,1-.07226-.19921.36537.36537,0,0,1,.22363-.31543A.908.908,0,0,1,1.70117,2.42735Zm-.02441.19141a1.24454,1.24454,0,0,0-.44629.06738c-.09668.03711-.14551.09277-.14551.166a.17143.17143,0,0,0,.04785.10937.29631.29631,0,0,0,.15821.08594,1.9141,1.9141,0,0,0,.47363.04492,1.29357,1.29357,0,0,0,.37793-.04687.33375.33375,0,0,0,.15918-.09083A.14809.14809,0,0,0,2.334,2.858a.15255.15255,0,0,0-.05957-.11817.49235.49235,0,0,0-.25488-.0957A2.42369,2.42369,0,0,0,1.67676,2.61876Z"/><path class="cls-3" d="M1.70117,3.42735a1.00535,1.00535,0,0,1,.39063.06836.55474.55474,0,0,1,.24316.18164.30875.30875,0,0,1,.06348.18164.34607.34607,0,0,1-.15528.27344.822.822,0,0,1-.52148.15137,1.03538,1.03538,0,0,1-.3916-.06641.52115.52115,0,0,1-.23438-.16895.35432.35432,0,0,1-.07226-.19921.36537.36537,0,0,1,.22363-.31543A.908.908,0,0,1,1.70117,3.42735Zm-.02441.19141a1.24454,1.24454,0,0,0-.44629.06738c-.09668.03711-.14551.09277-.14551.166a.17143.17143,0,0,0,.04785.10937.29631.29631,0,0,0,.15821.08594,1.9141,1.9141,0,0,0,.47363.04492,1.29357,1.29357,0,0,0,.37793-.04687.33375.33375,0,0,0,.15918-.09083A.14809.14809,0,0,0,2.334,3.858a.15255.15255,0,0,0-.05957-.11817.49235.49235,0,0,0-.25488-.0957A2.42369,2.42369,0,0,0,1.67676,3.61876Z"/><polyline class="cls-4" points="48.28 44.68 48.28 2.606 6.206 2.606"/><path class="cls-1" d="M48.28042,44.67963A42.04987,42.04987,0,0,0,6.20634,2.60556"/><path class="cls-3" d="M27.35059,49.78673l.1582.30078a.78488.78488,0,0,0,.12988.19922.11663.11663,0,0,0,.07227.02441v.03516h-.50879v-.03516a.17751.17751,0,0,0,.07422-.01562.0353.0353,0,0,0,.01367-.0293.21915.21915,0,0,0-.03125-.08594l-.0791-.14844-.06739.09864c-.03027.04492-.04785.07129-.05175.08007a.095.095,0,0,0-.00782.03321.07833.07833,0,0,0,.00879.03808.05912.05912,0,0,0,.02539.02149.14681.14681,0,0,0,.05957.00781v.03516h-.35742v-.03516a.21138.21138,0,0,0,.12207-.03711.77811.77811,0,0,0,.16016-.19141l.07519-.11132-.15722-.291a.74368.74368,0,0,0-.11524-.1748.15027.15027,0,0,0-.085-.03614v-.03613h.50586v.03613l-.02637.001-.05078.01758a.02966.02966,0,0,0-.00781.02246.11488.11488,0,0,0,.00488.03027c.002.00489.01075.02246.02735.05274l.07129.13281.03711-.05274a.34461.34461,0,0,0,.07812-.15039.04127.04127,0,0,0-.01758-.03418.10932.10932,0,0,0-.06054-.01953v-.03613h.32324v.03613a.20261.20261,0,0,0-.11133.03711.46358.46358,0,0,0-.11621.13379Z"/><path class="cls-3" d="M.39453,23.62852l.67676-.29492a.88816.88816,0,0,0,.18848-.09766.16593.16593,0,0,0,.04882-.07714h.03614v.48535H1.30859A.111.111,0,0,0,1.29,23.57677a.05133.05133,0,0,0-.04-.01954.48915.48915,0,0,0-.14648.04883l-.35743.15625.27637.10645a.70634.70634,0,0,0,.20508.05761.07189.07189,0,0,0,.05762-.02441.1286.1286,0,0,0,.02343-.084h.03614v.30566H1.30859a.109.109,0,0,0-.03515-.07324.846.846,0,0,0-.20215-.09473l-.67676-.26074a1.45982,1.45982,0,0,1-.3125-.14649A.21026.21026,0,0,1,0,23.3795a.1878.1878,0,0,1,.04688-.13184.14486.14486,0,0,1,.11132-.0498A.13337.13337,0,0,1,.252,23.232a.1145.1145,0,0,1,.03711.08594.10366.10366,0,0,1-.03125.07812.13646.13646,0,0,1-.09668.03125.10669.10669,0,0,0-.04785.00879.0265.0265,0,0,0-.01074.02246.07363.07363,0,0,0,.02832.04981.59922.59922,0,0,0,.1875.09179Z"/><path class="cls-5" d="M6.20634,2.60556c37.86667,0,42.07408,4.2074,42.07408,42.07407"/><path class="cls-6" d="M6.2058,2.60556c31.55556,0,42.07408,10.51851,42.07408,42.07407"/><path class="cls-3" d="M43.39258,7.89415a.31625.31625,0,0,1,.22461-.1416.1594.1594,0,0,1,.09472.02734.18682.18682,0,0,1,.06348.09082.42117.42117,0,0,1,.01563.13477v.28613a.23506.23506,0,0,0,.01074.08594.05177.05177,0,0,0,.02539.02832.13584.13584,0,0,0,.0664.01074V8.443h-.331V8.41661h.01367A.10947.10947,0,0,0,43.6416,8.402.07633.07633,0,0,0,43.668,8.36c.001-.00684.002-.03028.002-.06836V8.01719a.28726.28726,0,0,0-.02344-.13378.08522.08522,0,0,0-.08007-.041.24379.24379,0,0,0-.17383.09473v.35449a.271.271,0,0,0,.00781.084.06839.06839,0,0,0,.02832.03125.17378.17378,0,0,0,.07324.00977V8.443h-.332V8.41661h.01465a.07824.07824,0,0,0,.06934-.02637.18856.18856,0,0,0,.01757-.09863v-.249a1.08429,1.08429,0,0,0-.00488-.14747A.0732.0732,0,0,0,43.25,7.859a.05177.05177,0,0,0-.03125-.00976.13445.13445,0,0,0-.04883.01171l-.01074-.02636.20215-.082h.03125Z"/><path class="cls-3" d="M44.30273,7.79649h.79v.05957h-.79Zm0,.23828h.79v.06055h-.79Z"/><path class="cls-3" d="M45.67188,7.54747l.24218-.11817h.02344v.83887a.49058.49058,0,0,0,.00684.10352.05859.05859,0,0,0,.02929.03222.25961.25961,0,0,0,.08887.01172V8.443h-.373V8.41563a.2604.2604,0,0,0,.09082-.01172.05691.05691,0,0,0,.02832-.02832.37672.37672,0,0,0,.00782-.10742V7.732a.81441.81441,0,0,0-.00684-.13965.064.064,0,0,0-.01855-.03418.04862.04862,0,0,0-.03321-.01074.2041.2041,0,0,0-.07519.02246Z"/><path class="cls-3" d="M46.43359,8.3004a.07975.07975,0,0,1,.05762.02441.07884.07884,0,0,1,.02344.05762.08044.08044,0,0,1-.02344.05762.08255.08255,0,0,1-.11523,0,.08373.08373,0,0,1,0-.11621A.08287.08287,0,0,1,46.43359,8.3004Z"/><path class="cls-3" d="M46.67578,7.95274a.75974.75974,0,0,1,.05078-.293.40148.40148,0,0,1,.13672-.18261A.22355.22355,0,0,1,46.999,7.4293a.26022.26022,0,0,1,.20508.11622.62036.62036,0,0,1,.11328.3916.76542.76542,0,0,1-.0498.293.38407.38407,0,0,1-.127.17578.26337.26337,0,0,1-.14844.05468.274.274,0,0,1-.23731-.168A.68328.68328,0,0,1,46.67578,7.95274Zm.14258.01758a.94815.94815,0,0,0,.05078.335c.02832.07324.06934.10938.125.10938a.12716.12716,0,0,0,.082-.03614.22172.22172,0,0,0,.06446-.11914,1.4423,1.4423,0,0,0,.0332-.35449.98.98,0,0,0-.03516-.28418.24921.24921,0,0,0-.06836-.11914.1151.1151,0,0,0-.16015.02051.37584.37584,0,0,0-.07227.1914A1.78127,1.78127,0,0,0,46.81836,7.97032Z"/><path class="cls-7" d="M43.39258,3.819a.31628.31628,0,0,1,.22461-.1416.1594.1594,0,0,1,.09472.02734.18686.18686,0,0,1,.06348.09083.42106.42106,0,0,1,.01563.13476v.28613a.235.235,0,0,0,.01074.08594.05173.05173,0,0,0,.02539.02832.13584.13584,0,0,0,.0664.01074v.02637h-.331V4.34141h.01367a.10955.10955,0,0,0,.06543-.01464.07632.07632,0,0,0,.02637-.042c.001-.00683.002-.03027.002-.06836V3.942a.2873.2873,0,0,0-.02344-.13379.08524.08524,0,0,0-.08007-.041.24379.24379,0,0,0-.17383.09473v.35449a.271.271,0,0,0,.00781.084.06844.06844,0,0,0,.02832.03125.174.174,0,0,0,.07324.00976v.02637h-.332V4.34141h.01465a.07826.07826,0,0,0,.06934-.02636.18863.18863,0,0,0,.01757-.09864v-.249a1.0842,1.0842,0,0,0-.00488-.14746A.07311.07311,0,0,0,43.25,3.7838a.05178.05178,0,0,0-.03125-.00977.13449.13449,0,0,0-.04883.01172l-.01074-.02637.20215-.082h.03125Z"/><path class="cls-7" d="M44.30273,3.7213h.79v.05957h-.79Zm0,.23828h.79v.06054h-.79Z"/><path class="cls-7" d="M46.34961,3.8795a.39248.39248,0,0,1,.10937-.15918.29224.29224,0,0,1,.36036.041.30331.30331,0,0,1,.08105.2207.31469.31469,0,0,1-.07812.2207.23739.23739,0,0,1-.17676.08692.19908.19908,0,0,1-.13477-.05372.6623.6623,0,0,1-.1123-.15625.35944.35944,0,0,1-.10254.13086.22686.22686,0,0,1-.13477.04.24121.24121,0,0,1-.17871-.07519.27259.27259,0,0,1-.07226-.19531.27687.27687,0,0,1,.06738-.19434.20438.20438,0,0,1,.15723-.07422.196.196,0,0,1,.11132.03223A.39811.39811,0,0,1,46.34961,3.8795Zm-.02148.05664a.3225.3225,0,0,0-.082-.11914.1842.1842,0,0,0-.24316.0166.20023.20023,0,0,0-.05273.14551.22844.22844,0,0,0,.05175.15625.15264.15264,0,0,0,.11719.05859.16217.16217,0,0,0,.123-.0625A.76231.76231,0,0,0,46.32813,3.93614Zm.09179.0918a.40368.40368,0,0,0,.1084.15332.19461.19461,0,0,0,.12012.03906.19795.19795,0,0,0,.15039-.06445.24617.24617,0,0,0,.06055-.17383.25422.25422,0,0,0-.06446-.17871.18833.18833,0,0,0-.14258-.07031.15059.15059,0,0,0-.08789.02636.2186.2186,0,0,0-.06836.082C46.48438,3.8629,46.459,3.9254,46.41992,4.02794Z"/><path class="cls-8" d="M43.39355,5.17735a.31629.31629,0,0,1,.22461-.1416.15945.15945,0,0,1,.09473.02734.18694.18694,0,0,1,.06348.09082.42122.42122,0,0,1,.01562.13477v.28613a.23529.23529,0,0,0,.01074.08594.05182.05182,0,0,0,.0254.02832.13582.13582,0,0,0,.0664.01074v.02637h-.33105V5.69981h.01367a.10949.10949,0,0,0,.06543-.01465.07635.07635,0,0,0,.02637-.042c.001-.00683.002-.03027.002-.06836V5.3004a.28728.28728,0,0,0-.02344-.13379.08526.08526,0,0,0-.08008-.041.2438.2438,0,0,0-.17383.09473v.35449a.27063.27063,0,0,0,.00782.084.06844.06844,0,0,0,.02832.03125.174.174,0,0,0,.07324.00976v.02637h-.332V5.69981h.01465a.07822.07822,0,0,0,.06933-.02637.18854.18854,0,0,0,.01758-.09863v-.249a1.0859,1.0859,0,0,0-.00488-.14746.07337.07337,0,0,0-.0166-.03614.05188.05188,0,0,0-.03125-.00976.13444.13444,0,0,0-.04883.01172l-.01074-.02637.20214-.082h.03125Z"/><path class="cls-8" d="M44.30371,5.07969h.79v.05958h-.79Zm0,.23829h.79v.06054h-.79Z"/><path class="cls-8" d="M46.18457,5.53477l-.06934.19141H45.5293V5.69884a2.6791,2.6791,0,0,0,.36425-.38477.4863.4863,0,0,0,.10547-.27344.21614.21614,0,0,0-.05859-.15527.18367.18367,0,0,0-.1377-.06055.21331.21331,0,0,0-.13183.043.24635.24635,0,0,0-.08594.125h-.02734a.34517.34517,0,0,1,.09472-.208.26256.26256,0,0,1,.18848-.07226.28.28,0,0,1,.20215.07812.24557.24557,0,0,1,.08105.18262.35675.35675,0,0,1-.03515.15137,1.02044,1.02044,0,0,1-.17578.251c-.1211.13282-.19727.21289-.22754.24024h.25879A.71663.71663,0,0,0,46.05566,5.61a.13752.13752,0,0,0,.05762-.02442.15188.15188,0,0,0,.04395-.05078Z"/><path class="cls-8" d="M46.43457,5.5836a.07974.07974,0,0,1,.05762.02442.07884.07884,0,0,1,.02344.05761.08047.08047,0,0,1-.02344.05762.08254.08254,0,0,1-.11524,0,.08376.08376,0,0,1,0-.11621A.08292.08292,0,0,1,46.43457,5.5836Z"/><path class="cls-8" d="M46.67676,5.23594a.75968.75968,0,0,1,.05078-.293.40151.40151,0,0,1,.13672-.18262A.22353.22353,0,0,1,47,4.71251a.26022.26022,0,0,1,.20508.11621.62044.62044,0,0,1,.11328.3916.76522.76522,0,0,1-.04981.293.384.384,0,0,1-.127.17578.26336.26336,0,0,1-.14844.05469.274.274,0,0,1-.2373-.168A.68325.68325,0,0,1,46.67676,5.23594Zm.14258.01758a.94792.94792,0,0,0,.05078.335c.02832.07325.06933.10938.125.10938a.12722.12722,0,0,0,.082-.03613.22175.22175,0,0,0,.06445-.11914,1.44234,1.44234,0,0,0,.0332-.3545.98007.98007,0,0,0-.03515-.28418.24921.24921,0,0,0-.06836-.11914.11513.11513,0,0,0-.16016.02051.37588.37588,0,0,0-.07226.19141A1.7796,1.7796,0,0,0,46.81934,5.25352Z"/><path class="cls-9" d="M43.39355,6.53477a.31632.31632,0,0,1,.22461-.1416.15939.15939,0,0,1,.09473.02735.18684.18684,0,0,1,.06348.09082.42111.42111,0,0,1,.01562.13476v.28613a.23525.23525,0,0,0,.01074.08594.05179.05179,0,0,0,.0254.02832.13582.13582,0,0,0,.0664.01074V7.0836h-.33105V7.05723h.01367a.10957.10957,0,0,0,.06543-.01464.07638.07638,0,0,0,.02637-.042c.001-.00683.002-.03027.002-.06836V6.65782a.2873.2873,0,0,0-.02344-.13379.08525.08525,0,0,0-.08008-.041.24379.24379,0,0,0-.17383.09472v.35449a.27054.27054,0,0,0,.00782.084.06839.06839,0,0,0,.02832.03125.174.174,0,0,0,.07324.00976V7.0836h-.332V7.05723h.01465a.07824.07824,0,0,0,.06933-.02636.18858.18858,0,0,0,.01758-.09864v-.249a1.086,1.086,0,0,0-.00488-.14746.07328.07328,0,0,0-.0166-.03613.05182.05182,0,0,0-.03125-.00977.13444.13444,0,0,0-.04883.01172l-.01074-.02637.20214-.082h.03125Z"/><path class="cls-9" d="M44.30371,6.43712h.79v.05957h-.79Zm0,.23828h.79v.06054h-.79Z"/><path class="cls-9" d="M45.67285,6.18809l.24219-.11816h.02344V6.9088a.49154.49154,0,0,0,.00683.10351.05867.05867,0,0,0,.0293.03223.26008.26008,0,0,0,.08887.01172V7.0836h-.373V7.05626a.261.261,0,0,0,.09082-.01172.057.057,0,0,0,.02832-.02832.37693.37693,0,0,0,.00781-.10742V6.37266a.81466.81466,0,0,0-.00683-.13964.06392.06392,0,0,0-.01856-.03418.04856.04856,0,0,0-.0332-.01075.20438.20438,0,0,0-.0752.02246Z"/><path class="cls-9" d="M46.43457,6.941a.07974.07974,0,0,1,.05762.02442.07884.07884,0,0,1,.02344.05761.08045.08045,0,0,1-.02344.05762.08254.08254,0,0,1-.11524,0,.08376.08376,0,0,1,0-.11621A.08292.08292,0,0,1,46.43457,6.941Z"/><path class="cls-9" d="M47.32031,6.71739v.10449h-.13379V7.0836h-.12109V6.82188h-.41992V6.72813l.46094-.6582h.08007v.64746Zm-.25488,0V6.22423l-.34766.49316Z"/></g></g></svg>