<svg xmlns="http://www.w3.org/2000/svg" viewBox="0 0 50.71 50.73"><defs><style>.cls-1,.cls-2,.cls-3,.cls-4,.cls-5{fill:none;stroke-miterlimit:10;}.cls-1,.cls-2{stroke:#231815;}.cls-1,.cls-3,.cls-4,.cls-5{stroke-width:0.1px;}.cls-2{stroke-width:0.05px;}.cls-3{stroke:#e60012;}.cls-4{stroke:#f39800;}.cls-5{stroke:#00a0e9;}.cls-10,.cls-11,.cls-6{font-size:1.5px;}.cls-6{fill:#e60012;}.cls-10,.cls-6{font-family:TimesNewRomanPSMT, Times New Roman;}.cls-7{fill:#f39800;}.cls-8{fill:#00a0e9;}.cls-9{fill:#000;}.cls-11{font-family:TimesNewRomanPS-BoldMT, Times New Roman;font-weight:700;}</style></defs><g id="圖層_2" data-name="圖層 2"><g id="圖層_1-2" data-name="圖層 1"><rect class="cls-1" x="3.48" y="0.05" width="47.19" height="47.19"/><line class="cls-2" x1="6.03" y1="46.51" x2="6.03" y2="47.92"/><line class="cls-2" x1="20.06" y1="46.51" x2="20.06" y2="47.92"/><line class="cls-2" x1="34.08" y1="46.51" x2="34.08" y2="47.92"/><line class="cls-2" x1="48.1" y1="46.51" x2="48.1" y2="47.92"/><line class="cls-2" x1="4.17" y1="2.61" x2="2.76" y2="2.61"/><line class="cls-2" x1="4.17" y1="16.63" x2="2.76" y2="16.63"/><line class="cls-2" x1="4.17" y1="30.65" x2="2.76" y2="30.65"/><line class="cls-2" x1="4.17" y1="44.68" x2="2.76" y2="44.68"/><polyline class="cls-3" points="48.1 44.68 48.1 2.61 6.03 2.61"/><path class="cls-1" d="M48.1,44.68A42,42,0,0,0,6,2.61"/><path class="cls-4" d="M6,2.61c37.87,0,42.07,4.2,42.07,42.07"/><path class="cls-5" d="M6,2.61c31.56,0,42.07,10.51,42.07,42.07"/><text class="cls-6" transform="translate(42.71 4.45)"><tspan xml:space="preserve">n =  ∞</tspan><tspan class="cls-7"><tspan x="0" y="1.3">n = 2.0</tspan></tspan><tspan class="cls-8"><tspan x="0" y="2.6">n = 1.4</tspan></tspan><tspan class="cls-9"><tspan x="0" y="3.9">n = 1.0</tspan></tspan></text><text class="cls-10" transform="translate(4.72 49.2)">0.00</text><text class="cls-10" transform="translate(18.74 49.2)">0.25</text><text class="cls-10" transform="translate(32.77 49.2)">0.75</text><text class="cls-10" transform="translate(46.79 49.32)">1.00</text><text class="cls-10" transform="translate(1.51 43.37) rotate(90)">0.00</text><text class="cls-10" transform="translate(1.51 29.34) rotate(90)">0.25</text><text class="cls-10" transform="translate(1.51 15.32) rotate(90)">0.75</text><text class="cls-10" transform="translate(1.38 1.29) rotate(90)">1.00</text><text class="cls-11" transform="translate(26.69 50.24)">x</text><text class="cls-11" transform="translate(0.49 23.27) rotate(90)">y</text></g></g></svg>